<?xml version="1.0" standalone="no"?>
<!DOCTYPE svg PUBLIC "-//W3C//DTD SVG 1.1//EN" "http://www.w3.org/Graphics/SVG/1.1/DTD/svg11.dtd">
<svg xmlns="http://www.w3.org/2000/svg"><metadata>This SVG WebFont was generated by YouWorkForThem.
Copyright (c) 2015 by thmbnl. graphic design. All rights reserved</metadata><defs><font horiz-adv-x="1206" id="ywftsvg"><font-face ascent="1638" bbox="-879 -512 2415 2079" cap-height="1516" descent="-410" font-family="" font-stretch="normal" font-weight="700" panose-1="0 0 8 0 0 0 0 0 0 0" underline-position="0" underline-thickness="0" unicode-range="U+0020-25CA" units-per-em="2048" x-height="1024"/><missing-glyph d="M788 1516v-1926h-610v1926h610zM641 1386h-317v-63h125v-72h-127v-63h319v63h-127v72h127v63zM514 1139h-192v-201h319v66h-127v135zM449 1073v-69h-64v69h64zM641 887h-319v-64h127v-71h-127v-64h192v135h127v64zM641 770h-63v-127h-256v-65h319v192zM641 537h-192v-109 h65v45h64v-92h-193v156h-63v-220h319v220zM641 203h-319v-217h319v217zM578 139v-90h-193v90h193zM641 -59h-319v-64h135l-135 -90v-63h319v63h-197l136 90h61v64z" horiz-adv-x="962"/><glyph d="M788 1516v-1926h-610v1926h610zM641 1386h-317v-63h125v-72h-127v-63h319v63h-127v72h127v63zM514 1139h-192v-201h319v66h-127v135zM449 1073v-69h-64v69h64zM641 887h-319v-64h127v-71h-127v-64h192v135h127v64zM641 770h-63v-127h-256v-65h319v192zM641 537h-192v-109 h65v45h64v-92h-193v156h-63v-220h319v220zM641 203h-319v-217h319v217zM578 139v-90h-193v90h193zM641 -59h-319v-64h135l-135 -90v-63h319v63h-197l136 90h61v64z" glyph-name=".notdef" horiz-adv-x="962"/><glyph glyph-name="glyph1" horiz-adv-x="0"/><glyph glyph-name="glyph2" horiz-adv-x="681"/><glyph glyph-name="space" horiz-adv-x="583" unicode=" "/><glyph d="M88 389v1127h328v-1127h-328zM252 0q-70 0 -120 49t-50 119t50 120t120 50t118 -50t48 -120t-48 -119t-118 -49z" glyph-name="exclam" horiz-adv-x="499" unicode="!"/><glyph d="M176 1094l-104 422h264l108 -422h-268zM530 1094l-104 422h266l109 -422h-271z" glyph-name="quotedbl" horiz-adv-x="862" unicode="&quot;"/><glyph d="M1466 1122l-49 -245h-272l-43 -224h266l-49 -245h-264l-76 -408h-256l82 408h-240l-78 -408h-254l78 408h-250l50 245h249l41 224h-241l49 245h242l77 394h250l-73 -394h237l76 394h250l-74 -394h272zM852 653l43 224h-238l-45 -224h240z" glyph-name="numbersign" horiz-adv-x="1517" unicode="#"/><glyph d="M1030 453q0 -168 -100.5 -295t-261.5 -162v-219h-269v227q-160 45 -327 176l166 295q162 -131 294 -131q66 0 105 33t39 86q0 68 -66.5 119t-247.5 141q-279 143 -270 399q4 137 88 239.5t219 143.5v215h269v-202q141 -25 268 -111l-162 -252q-98 72 -203 72 q-68 0 -105.5 -29t-37.5 -76q0 -29 12.5 -52t46 -46t52 -34t75 -38.5t70.5 -33.5q47 -23 84 -44.5t89 -64.5t87 -89t60.5 -116.5t25.5 -150.5z" glyph-name="dollar" horiz-adv-x="1101" unicode="$"/><glyph d="M428 803q-150 0 -253 104.5t-103 253.5q0 147 104.5 253t251.5 106q145 0 251.5 -105.5t106.5 -253.5q0 -150 -105.5 -254t-252.5 -104zM594 0h-277l799 1516h277zM428 1274q-45 0 -78 -34t-33 -79t33 -78.5t78 -33.5t79 33.5t34 78.5t-34 79t-79 34zM1290 0 q-150 0 -255 105.5t-105 252.5q0 150 104.5 254.5t255.5 104.5q147 0 252 -104.5t105 -254.5q0 -147 -106 -252.5t-251 -105.5zM1290 471q-49 0 -81.5 -32.5t-32.5 -80.5q0 -45 32.5 -78.5t81.5 -33.5q45 0 78 33.5t33 78.5q0 47 -33 80t-78 33z" glyph-name="percent" horiz-adv-x="1708" unicode="%"/><glyph d="M1219 666l-156 -320l121 -147l-238 -199l-67 82q-139 -100 -308 -100q-207 0 -353 145t-146 352q0 221 157 369q-84 111 -84 254q0 176 126 301t300 125q176 0 302 -125t126 -301q0 -129 -69.5 -234.5t-179.5 -156.5l94 -109l94 199zM571.5 1217q-49.5 0 -82 -34 t-32.5 -83t32.5 -84t82 -35t83 35t33.5 84t-33.5 83t-83 34zM578 291q53 0 98 28l-248 291q-47 -53 -47 -133q0 -86 58.5 -136t138.5 -50z" glyph-name="ampersand" horiz-adv-x="1277" unicode="&amp;"/><glyph d="M176 1094l-104 422h264l108 -422h-268z" glyph-name="quotesingle" horiz-adv-x="505" unicode="'"/><glyph d="M647 -20l-246 -158q-299 418 -299 870q0 463 297 877l240 -152q-129 -193 -190.5 -352.5t-61.5 -359.5q0 -205 63.5 -372t196.5 -353z" glyph-name="parenleft" horiz-adv-x="708" unicode="("/><glyph d="M61 -20q133 186 197 353t64 372q0 201 -61.5 360.5t-190.5 351.5l239 152q299 -416 299 -877q0 -449 -301 -870z" glyph-name="parenright" horiz-adv-x="708" unicode=")"/><glyph d="M745 1171v-180h-124l90 -88l-127 -127l-88 86v-125h-183v125l-88 -86l-127 127l88 88h-125v180h125l-88 91l127 127l88 -89v125h183v-125l88 89l127 -127l-90 -91h124z" glyph-name="asterisk" horiz-adv-x="806" unicode="*"/><glyph d="M1157 700v-280h-409v-420h-279v420h-408v280h408v396h279v-396h409z" glyph-name="plus" unicode="+"/><glyph d="M319 -190h-268l109 421h264z" glyph-name="comma" horiz-adv-x="495" unicode=","/><glyph d="M793 455h-711v319h711v-319z" glyph-name="hyphen" horiz-adv-x="872" unicode="-"/><glyph d="M397 168q0 -70 -49 -119t-118.5 -49t-119 49t-49.5 119q0 72 49.5 121t119 49t118.5 -50t49 -120z" glyph-name="period" horiz-adv-x="458" unicode="."/><glyph d="M41 0l586 1516h264l-588 -1516h-262z" glyph-name="slash" horiz-adv-x="942" unicode="/"/><glyph d="M612 -12q-209 0 -359.5 149.5t-150.5 360.5v520q0 211 150.5 360.5t359.5 149.5q211 0 360.5 -149.5t149.5 -360.5v-520q0 -211 -149.5 -360.5t-360.5 -149.5zM432 1018v-520q0 -74 53.5 -128.5t127 -54.5t127 54.5t53.5 128.5v520q0 74 -53.5 128t-127 54t-127 -54 t-53.5 -128z" glyph-name="zero" horiz-adv-x="1224" unicode="0"/><glyph d="M649 1516v-1516h-332v1225h-256v291h588z" glyph-name="one" horiz-adv-x="782" unicode="1"/><glyph d="M1030 334v-334h-880l-3 334l490 557q66 72 62.5 159t-72.5 138q-66 51 -151 32.5t-148 -100.5l-215 178q127 193 346 228t383 -105q162 -135 172 -351t-133 -380l-310 -356h459z" glyph-name="two" horiz-adv-x="1128" unicode="2"/><glyph d="M963 850q152 -152 151 -354q0 -207 -144.5 -357.5t-359.5 -150.5q-195 0 -341 126t-187 318l299 113q35 -106 96.5 -160.5t134.5 -54.5q72 0 122 49t50 125q0 78 -53 128t-131 50h-88v309h92q45 0 75 31t30 76t-30 75.5t-75 30.5q-66 0 -104 -65l-252 157 q31 51 71.5 96.5t125.5 90.5t184 45q176 0 293.5 -127t117.5 -303q1 -125 -77 -248z" glyph-name="three" horiz-adv-x="1226" unicode="3"/><glyph d="M1171 575v-305h-151v-270h-330v270h-598v305l674 941h254v-941h151zM440 575h250v353z" glyph-name="four" horiz-adv-x="1263" unicode="4"/><glyph d="M555 1067q223 0 376.5 -155.5t153.5 -379t-157.5 -384t-370.5 -160.5q-133 0 -251 65.5t-204 171.5l258 221q78 -111 195 -110q84 0 142.5 57.5t58.5 141.5q0 86 -58.5 144t-144.5 58q-74 0 -133 -43l-256 191l96 631h713v-332h-436l-17 -121q21 4 35 4z" glyph-name="five" horiz-adv-x="1185" unicode="5"/><glyph d="M735 1061q199 -27 332 -178.5t133 -356.5q0 -223 -157.5 -380.5t-380.5 -157.5q-221 0 -380 157.5t-159 380.5q0 137 61 250l441 740l286 -166zM662 317q88 0 148 61.5t60 147.5t-61 148.5t-147.5 62.5t-146.5 -62.5t-60 -148.5t60.5 -147.5t146.5 -61.5z" glyph-name="six" horiz-adv-x="1282" unicode="6"/><glyph d="M969 1516v-332l-412 -1184h-354l411 1184h-532v332h887z" glyph-name="seven" horiz-adv-x="1036" unicode="7"/><glyph d="M944 840q154 -143 154 -359q0 -205 -144.5 -349t-349.5 -144q-203 0 -347 144t-144 349q0 215 153 359q-90 117 -90 260q0 178 126 303t302 125q178 0 304 -125t126 -303q0 -143 -90 -260zM604 1217q-47 0 -82 -34t-35 -83t35 -83t82 -34q49 0 84 34t35 83t-35 83t-84 34 zM604 299q76 0 130 53.5t54 128.5q0 74 -54 129.5t-130 55.5t-128 -54.5t-52 -130t52 -129t128 -53.5z" glyph-name="eight" horiz-adv-x="1210" unicode="8"/><glyph d="M621 1532q221 0 380.5 -157.5t159.5 -379.5q0 -133 -61 -250l-414 -745h-389l260 459q-201 23 -338 175t-137 359q0 223 158 381t381 158zM621 782q86 0 146 62.5t60 150.5q0 84 -60 145.5t-146 61.5q-88 0 -148.5 -61.5t-60.5 -147.5t61.5 -148.5t147.5 -62.5z" glyph-name="nine" horiz-adv-x="1220" unicode="9"/><glyph d="M397 856q0 -70 -49 -120t-118.5 -50t-119 49t-49.5 121q0 70 49.5 119t119 49t118.5 -49t49 -119zM397 168q0 -70 -49 -119t-118.5 -49t-119 49t-49.5 119q0 72 49.5 121t119 49t118.5 -50t49 -120z" glyph-name="colon" horiz-adv-x="448" unicode=":"/><glyph d="M280.5 686q-69.5 0 -118.5 49t-49 121q0 70 48 119t120 49q70 0 120 -49t50 -119t-50.5 -120t-120 -50zM61 -190l109 421h264l-104 -421h-269z" glyph-name="semicolon" horiz-adv-x="520" unicode=";"/><glyph d="M827 -37l-735 434v228l735 434v-328l-374 -219l374 -221v-328z" glyph-name="less" horiz-adv-x="888" unicode="&lt;"/><glyph d="M1190 602h-1098v281h1098v-281zM1190 260h-1098v283h1098v-283z" glyph-name="equal" horiz-adv-x="1271" unicode="="/><glyph d="M61 -37v328l375 221l-375 219v328l736 -434v-228z" glyph-name="greater" horiz-adv-x="888" unicode=">"/><glyph d="M948 1067q0 -150 -87 -268.5t-216 -165.5v-244h-332v547h168q55 0 94 40t39 95q0 68 -53 104.5t-115.5 21.5t-85.5 -77l-309 129q55 131 171 208t257 77q195 0 332 -137t137 -330zM664 170q0 -72 -50.5 -121t-120 -49t-118.5 49t-49 121q0 70 49 120t118.5 50t120 -50 t50.5 -120z" glyph-name="question" horiz-adv-x="1019" unicode="?"/><glyph d="M843.5 1528q319.5 0 544 -226.5t224.5 -558.5q0 -213 -98.5 -357t-260.5 -144q-92 0 -168.5 48t-117.5 124q-72 -33 -150 -33q-152 0 -258 106.5t-106 258t106.5 259t259.5 107.5q76 0 144 -31v31h223v-569q6 -57 57 -58q55 0 84 80q29 92 31 190.5t-39 195t-102.5 173 t-158.5 123.5t-212 47q-221 0 -374 -158.5t-153 -375.5t152 -370.5t367 -153.5q53 0 120 14l58 -242q-82 -20 -172 -20q-319 0 -545.5 226t-226.5 543.5t226 544t545.5 226.5zM817 629q51 0 86 34.5t35 84.5q0 47 -35 82.5t-86 35.5q-47 0 -83 -35.5t-36 -82.5q0 -49 36 -84 t83 -35z" glyph-name="at" horiz-adv-x="1683" unicode="@"/><glyph d="M1561 0l-361 2l-102 258h-551l-105 -260h-360l602 1516h260zM680 590h287l-144 362z" glyph-name="A" horiz-adv-x="1632" unicode="A"/><glyph d="M913 784q131 -141 131 -323q0 -190 -136 -325.5t-326 -135.5h-480v1516h437q190 0 326 -134.5t136 -324.5q0 -148 -88 -273zM418 1184v-260h106q53 0 93 37.5t40 91.5q0 55 -38.5 93t-94.5 38h-106zM567 332q53 0 92 38t39 93q0 53 -38.5 91t-92.5 38h-149v-260h149z" glyph-name="B" horiz-adv-x="1114" unicode="B"/><glyph d="M831 -12q-317 0 -543.5 226t-226.5 543.5t225.5 544t542.5 226.5q330 0 582 -277l-197 -237q-195 184 -383 184q-182 0 -311 -129t-129 -311.5t129 -311.5t311 -129q219 0 383 181l197 -256q-109 -119 -260.5 -186.5t-319.5 -67.5z" glyph-name="C" horiz-adv-x="1513" unicode="C"/><glyph d="M602 1516q313 0 535.5 -222.5t222.5 -536t-222.5 -535.5t-535.5 -222h-500v1516h500zM602 332q176 0 300 125t124 301t-124 301t-300 125h-168v-852h168z" glyph-name="D" horiz-adv-x="1421" unicode="D"/><glyph d="M975 332v-332h-873v1516h873v-332h-541v-281h504v-291h-504v-280h541z" glyph-name="E" horiz-adv-x="1054" unicode="E"/><glyph d="M434 0h-332v1516h838v-332h-506v-281h469v-291h-469v-612z" glyph-name="F" horiz-adv-x="999" unicode="F"/><glyph d="M1575 899v-174q-12 -313 -229.5 -525t-520.5 -212q-322 0 -537.5 225t-215.5 545q0 317 225 543.5t545 226.5q317 0 569 -277l-197 -237q-96 92 -182 138t-190 46q-180 0 -309.5 -129t-129.5 -311q0 -186 122 -313.5t300 -127.5q137 0 244 81t150 210h-512v291h868z" glyph-name="G" horiz-adv-x="1654" unicode="G"/><glyph d="M866 1516h328v-1516h-328v612h-436v-612h-328v1516h328v-613h436v613z" glyph-name="H" horiz-adv-x="1286" unicode="H"/><glyph d="M102 0v1516h328v-1516h-328z" glyph-name="I" horiz-adv-x="520" unicode="I"/><glyph d="M336 1516h330v-1084q0 -432 -428 -432h-166v330h161q41 0 71 28.5t30 69.5z" glyph-name="J" horiz-adv-x="765" unicode="J"/><glyph d="M1206 0h-401l-336 604l-37 -51v-553h-330v1516h330v-435l316 435h385l-447 -615z" glyph-name="K" horiz-adv-x="1298" unicode="K"/><glyph d="M942 0h-840v1516h332v-1184h508v-332z" glyph-name="L" horiz-adv-x="991" unicode="L"/><glyph d="M1614 1516v-1516h-334v733l-334 -680h-178l-334 680v-733h-332v1516h273l483 -990l481 990h275z" glyph-name="M" horiz-adv-x="1705" unicode="M"/><glyph d="M971 1516h329v-1516h-256l-610 891v-891h-332v1516h250l619 -898v898z" glyph-name="N" horiz-adv-x="1392" unicode="N"/><glyph d="M842 1528q319 0 544.5 -225.5t225.5 -545t-225.5 -544.5t-544.5 -225q-317 0 -543.5 225t-226.5 544.5t226.5 545t543.5 225.5zM840 1198q-182 0 -309.5 -129t-127.5 -311.5t127 -311.5t310 -129q178 0 309 130.5t131 310.5t-131 310t-309 130z" glyph-name="O" horiz-adv-x="1681" unicode="O"/><glyph d="M584 1516q195 0 334 -138.5t139 -330.5q0 -197 -139.5 -335.5t-333.5 -138.5h-150v-573h-332v1516h482zM584 905q59 0 100 40t41 102q0 57 -41 97t-100 40h-150v-279h150z" glyph-name="P" horiz-adv-x="1095" unicode="P"/><glyph d="M1458 299l96 -98l-211 -201l-98 104q-182 -119 -403 -118q-319 0 -544.5 225t-225.5 547q0 319 225 543.5t544.5 224.5t545 -224.5t225.5 -543.5q0 -256 -154 -459zM842 317q84 0 157 31l-84 92l203 199l103 -100q59 96 59 219q0 182 -128 309t-310 127 q-186 0 -313.5 -126t-127.5 -310q0 -186 127.5 -313.5t313.5 -127.5z" glyph-name="Q" horiz-adv-x="1681" unicode="Q"/><glyph d="M805 0l-326 573h-45v-573h-332v1516h482q195 0 333 -137.5t138 -331.5q0 -131 -66.5 -242t-177.5 -172l373 -633h-379zM434 1184v-279h150q59 0 100 40t41 102q0 57 -41 97t-100 40h-150z" glyph-name="R" horiz-adv-x="1243" unicode="R"/><glyph d="M575 -16q-229 0 -483 196l164 291q164 -127 299 -127q66 0 103.5 29.5t37.5 81.5q0 41 -31.5 77.5t-66.5 56t-107.5 55.5t-107.5 54q-283 158 -270 424q8 188 148 302t345 104q184 -8 350 -121l-159 -252q-102 72 -205 72q-68 0 -105.5 -29t-37.5 -76q0 -29 12 -52 t44 -44.5t54.5 -34t73.5 -36t72 -33.5q346 -170 346 -469q0 -199 -135.5 -334t-340.5 -135z" glyph-name="S" horiz-adv-x="1122" unicode="S"/><glyph d="M1026 1516v-332h-324v-1184h-329v1184h-322v332h975z" glyph-name="T" horiz-adv-x="1064" unicode="T"/><glyph d="M608 -12q-209 0 -357.5 148.5t-148.5 357.5v1022h330v-1022q0 -72 51.5 -123.5t125 -51.5t125.5 51.5t52 123.5v1022h330v-1022q0 -209 -149.5 -357.5t-358.5 -148.5z" glyph-name="U" unicode="U"/><glyph d="M1430 1516l-553 -1516h-242l-553 1516h356l316 -904l317 904h359z" glyph-name="V" horiz-adv-x="1501" unicode="V"/><glyph d="M1874 1516l-424 -1516h-272l-207 780l-205 -780h-270l-424 1516h364l223 -791l203 762h221l203 -762l219 791h369z" glyph-name="W" horiz-adv-x="1933" unicode="W"/><glyph d="M995 756l502 -756h-387l-315 469l-316 -469h-385l502 756l-504 760h387l316 -472l315 472h389z" glyph-name="X" horiz-adv-x="1591" unicode="X"/><glyph d="M1401 1516l-490 -846v-670h-329v670l-490 846h400l253 -461l254 461h402z" glyph-name="Y" horiz-adv-x="1482" unicode="Y"/><glyph d="M1169 332v-332h-1069v332l611 874h-650v310h1049v-310l-610 -874h669z" glyph-name="Z" horiz-adv-x="1218" unicode="Z"/><glyph d="M580 -289h-478v1886h478v-290h-189v-1305h189v-291z" glyph-name="bracketleft" horiz-adv-x="651" unicode="["/><glyph d="M901 0h-262l-588 1516h264z" glyph-name="backslash" horiz-adv-x="942" unicode="\"/><glyph d="M72 -289v291h188v1305h-188v290h477v-1886h-477z" glyph-name="bracketright" horiz-adv-x="651" unicode="]"/><glyph d="M72 600l434 735h225l436 -735h-327l-219 375l-224 -375h-325z" glyph-name="asciicircum" horiz-adv-x="1239" unicode="^"/><glyph d="M1157 -233h-1106v233h1106v-233z" glyph-name="underscore" horiz-adv-x="1208" unicode="_"/><glyph d="M369 1145l-420 221l123 219l409 -219z" glyph-name="grave" horiz-adv-x="552" unicode="`"/><glyph d="M1116 1024v-1024h-274v49q-131 -66 -254 -65q-217 0 -372 155.5t-155 374.5t154 372.5t373 153.5q129 0 250 -63v47h278zM596 315q82 0 139.5 58.5t57.5 140.5t-57.5 139.5t-139.5 57.5t-138.5 -57.5t-56.5 -139.5q0 -84 56.5 -141.5t138.5 -57.5z" glyph-name="a" unicode="a"/><glyph d="M618 1040q217 0 373 -155.5t156 -372.5t-155.5 -372.5t-373.5 -155.5q-139 0 -256 63v-47h-270v1434h330v-430q85 36 196 36zM612.5 317q77.5 0 136 58.5t58.5 136.5q0 80 -58.5 137.5t-136 57.5t-136 -57.5t-58.5 -137.5q0 -78 58.5 -136.5t136 -58.5z" glyph-name="b" unicode="b"/><glyph d="M592 -16q-213 0 -366.5 155.5t-153.5 372.5q0 219 152.5 373.5t369.5 154.5q223 0 397 -186l-207 -227q-92 86 -186 86q-80 0 -137.5 -58.5t-57.5 -138.5t57.5 -138.5t137.5 -58.5q100 0 188 97l205 -238q-194 -194 -399 -194z" glyph-name="c" horiz-adv-x="1062" unicode="c"/><glyph d="M590 1040q106 0 196 -36v430h330v-1434h-272v47q-117 -63 -254 -63q-217 0 -373 155.5t-156 372.5t156 372.5t373 155.5zM596 317q78 0 136.5 58.5t58.5 136.5q0 80 -58.5 137.5t-136.5 57.5t-136.5 -57.5t-58.5 -137.5q0 -78 58.5 -136.5t136.5 -58.5z" glyph-name="d" unicode="d"/><glyph d="M1116 408h-721q76 -119 226 -119q123 0 245 86l193 -230q-207 -162 -445 -161q-231 0 -392 155.5t-161 378.5q0 217 155 369.5t376 152.5q229 0 376.5 -171.5t147.5 -460.5zM399 657h361q-14 49 -60.5 85t-115.5 36q-74 0 -123.5 -36t-61.5 -85z" glyph-name="e" horiz-adv-x="1175" unicode="e"/><glyph d="M520 1141q-45 0 -72.5 -28t-27.5 -71v-18h262v-289h-262l-2 -735h-326v1026q0 201 113.5 304.5t314.5 103.5h162v-293h-162z" glyph-name="f" horiz-adv-x="731" unicode="f"/><glyph d="M1126 1024v-985q0 -217 -132 -341t-322 -124q-209 0 -353 123l125 260q115 -66 207 -66q72 0 117 36t45 104q-102 -47 -215 -47q-217 0 -371.5 155.5t-154.5 374.5t154.5 372.5t371.5 153.5q129 0 250 -63v47h278zM606 315q82 0 139.5 57.5t57.5 141.5q0 82 -57.5 139.5 t-139.5 57.5t-138 -57.5t-56 -139.5q0 -84 56 -141.5t138 -57.5z" glyph-name="g" horiz-adv-x="1218" unicode="g"/><glyph d="M547 1040q188 0 321 -133t133 -321v-586h-331v586q0 51 -36 87t-87 36q-49 0 -85 -36t-36 -87v-586h-334v1434h334v-408q68 14 121 14z" glyph-name="h" horiz-adv-x="1052" unicode="h"/><glyph d="M449 1270q0 -84 -52.5 -136.5t-138.5 -52.5q-76 0 -131 53.5t-55 135.5q0 72 57 128t129 56q84 0 137.5 -54t53.5 -130zM422 0h-324v1024h324v-1024z" glyph-name="i" horiz-adv-x="509" unicode="i"/><glyph d="M575 1267.5q0 -75.5 -55 -130t-133 -54.5t-132 54.5t-54 132.5q0 74 55 128t131 54q78 0 133 -54.5t55 -130zM553 92q0 -387 -342 -518l-170 281q80 25 130 85t50 152v932h332v-932z" glyph-name="j" horiz-adv-x="647" unicode="j"/><glyph d="M1106 0h-401l-246 338l-35 -45v-293h-332v1434h332v-682l238 272h393l-387 -446z" glyph-name="k" horiz-adv-x="1198" unicode="k"/><glyph d="M567 332v-332h-80q-215 0 -305 98.5t-90 317.5v1018h332v-1022q0 -80 74 -80h69z" glyph-name="l" horiz-adv-x="618" unicode="l"/><glyph d="M664 0v590q0 51 -36 86t-85 35q-51 0 -86 -35t-35 -86v-590h-330v1024h254v-47q106 63 219 63q135 0 264 -102q129 102 289 102q186 0 319.5 -132t133.5 -318v-590h-332v590q0 51 -36 86t-87 35q-49 0 -85 -35t-36 -86v-590h-331z" glyph-name="m" horiz-adv-x="1640" unicode="m"/><glyph d="M567 1040q178 0 302 -132t124 -318v-590h-329v590q0 51 -35 86t-86 35t-87 -35t-36 -86v-590h-328v1024h254v-47q108 63 221 63z" glyph-name="n" horiz-adv-x="1064" unicode="n"/><glyph d="M590 1040q217 0 372.5 -155.5t155.5 -372.5t-155.5 -372.5t-372.5 -155.5t-373 155.5t-156 372.5t156 372.5t373 155.5zM590 709q-82 0 -139.5 -57.5t-57.5 -139.5t57.5 -139.5t139.5 -57.5t139 57.5t57 139.5t-57 139.5t-139 57.5z" glyph-name="o" horiz-adv-x="1177" unicode="o"/><glyph d="M618 -16q-111 0 -196 36v-430h-330v1434h270v-47q117 63 256 63q217 0 373 -155.5t156 -372.5t-156 -372.5t-373 -155.5zM612.5 707q-77.5 0 -136 -58.5t-58.5 -136.5q0 -80 58.5 -137.5t136 -57.5t136 57.5t58.5 137.5q0 78 -58.5 136.5t-136 58.5z" glyph-name="p" unicode="p"/><glyph d="M600 -16q-219 0 -373.5 155.5t-154.5 372.5t154.5 372.5t373.5 155.5q137 0 254 -63v47h272v-1434h-329v430q-91 -36 -197 -36zM606 707q-78 0 -136 -58.5t-58 -136.5q0 -80 58 -137.5t136 -57.5t136.5 57.5t58.5 137.5q0 78 -58.5 136.5t-136.5 58.5z" glyph-name="q" horiz-adv-x="1216" unicode="q"/><glyph d="M678 1024v-313h-135q-51 0 -87 -35t-36 -86v-590h-328v1024h254v-47q76 47 184 47h148z" glyph-name="r" horiz-adv-x="718" unicode="r"/><glyph d="M766 944l-137 -233q-131 61 -170 61q-43 0 -43 -31q0 -10 6 -16q10 -12 127 -57q129 -47 210 -133t81 -209q0 -141 -107.5 -241.5t-288.5 -100.5q-188 0 -362 122l123 256q37 -23 114.5 -50t126.5 -27q55 0 56 32q0 10 -6 19q-12 18 -140 74q-45 18 -74.5 34.5 t-80.5 55.5t-80 98t-29 133q0 139 101.5 224t252.5 85q144 0 320 -96z" glyph-name="s" horiz-adv-x="878" unicode="s"/><glyph d="M508 0q-416 0 -416 432v918h332v-326h291v-289h-291v-307q0 -43 25.5 -69.5t68.5 -26.5h184v-332h-194z" glyph-name="t" horiz-adv-x="755" unicode="t"/><glyph d="M544.5 -16q-188.5 0 -320.5 133t-132 319v588h330v-588q0 -51 36 -87t87 -36t87 36t36 87v588h329v-588q0 -186 -132 -319t-320.5 -133z" glyph-name="u" horiz-adv-x="1069" unicode="u"/><glyph d="M700 0h-217l-422 1024h342l189 -465l188 465h342z" glyph-name="v" horiz-adv-x="1173" unicode="v"/><glyph d="M768 987l186 -2l176 -428l181 467h348l-402 -1024h-219l-176 459l-180 -459h-217l-404 1024h351l180 -467z" glyph-name="w" horiz-adv-x="1710" unicode="w"/><glyph d="M1157 0h-377l-157 223l-154 -223h-377l354 514l-348 510h377l148 -231l151 231h377l-350 -510z" glyph-name="x" horiz-adv-x="1249" unicode="x"/><glyph d="M1139 1024l-410 -993q-86 -205 -225 -319.5t-318 -139.5l-102 293q115 10 208 85t130 195l-361 879h361l176 -432l176 432h365z" glyph-name="y" horiz-adv-x="1230" unicode="y"/><glyph d="M924 328v-328h-854v328l426 397h-435v299h840v-299l-401 -397h424z" glyph-name="z" horiz-adv-x="974" unicode="z"/><glyph d="M817 -20v-289h-102q-164 0 -280 115.5t-116 279.5v317q0 45 -31.5 78t-76.5 33h-139v289h139q45 0 76.5 31.5t31.5 76.5v320q0 164 116 281.5t280 117.5h102v-289h-102q-43 0 -75 -32.5t-32 -77.5v-320q0 -139 -92 -254q92 -113 92 -254v-317q0 -43 32 -74.5t75 -31.5 h102z" glyph-name="braceleft" horiz-adv-x="868" unicode="{"/><glyph d="M102 -410v1926h248v-1926h-248z" glyph-name="bar" horiz-adv-x="452" unicode="|"/><glyph d="M51 -20h103q43 0 73.5 31.5t30.5 74.5v317q0 139 94 254q-94 119 -94 254v320q0 45 -30.5 77.5t-73.5 32.5h-103v289h103q164 0 279.5 -117.5t115.5 -281.5v-320q0 -45 31.5 -76.5t76.5 -31.5h140v-289h-140q-45 0 -76.5 -32.5t-31.5 -78.5v-317q0 -164 -116 -279.5 t-279 -115.5h-103v289z" glyph-name="braceright" horiz-adv-x="868" unicode="}"/><glyph d="M346 117l-254 108q78 365 348 465q78 29 151 32t141.5 -22.5t109.5 -47t104 -60.5q41 -25 65.5 -39t61.5 -31.5t64.5 -22.5t60.5 -4t62 15q119 57 188 278l285 -114q-14 -55 -42 -117.5t-76 -141.5t-126 -144.5t-172 -94.5q-55 -18 -112.5 -19t-101.5 7t-94.5 30.5 t-81 40t-73.5 44.5q-53 35 -88 54t-84 37.5t-93 16.5t-85 -27q-97 -59 -158 -243z" glyph-name="asciitilde" horiz-adv-x="1814" unicode="~"/><glyph d="M252 1516q70 0 118 -49.5t48 -119t-48 -119.5t-118 -50t-120 50t-50 119.5t50 119t120 49.5zM88 1126h328v-1126h-328v1126z" glyph-name="exclamdown" horiz-adv-x="499" unicode="¡"/><glyph d="M786 416l205 -238q-137 -137 -274 -178v-236h-240v232q-176 41 -290.5 185.5t-114.5 330.5t114.5 330.5t290.5 185.5v215h240v-217q147 -39 274 -172l-207 -227q-31 27 -67 51v-322q32 19 69 60zM403 516q0 -94 74 -154v308q-74 -60 -74 -154z" glyph-name="cent" horiz-adv-x="1052" unicode="¢"/><glyph d="M874 590h310v-184q0 -188 -119 -297t-301 -109h-680v311h268v170q0 78 -51 172h-219v248h65q-39 88 -38 195q0 190 122.5 310t313.5 120q166 0 291 -92.5t198 -249.5l-243 -148q-94 180 -232 181q-59 0 -97 -36t-38 -96q0 -70 65 -184h426v-248h-278q33 -82 33 -168v-174 h94q53 0 81.5 28t28.5 67v184z" glyph-name="sterling" horiz-adv-x="1245" unicode="£"/><glyph d="M1104 532q0 -137 -70 -251l109 -109l-162 -160l-104 105q-123 -76 -265 -76q-139 0 -264 76l-104 -105l-162 160l108 109q-70 115 -69 251q0 135 65 244l-104 105l162 159l98 -98q125 82 270 82q150 0 271 -82l98 98l162 -159l-103 -105q64 -111 64 -244zM610 295 q94 0 165 70.5t71 167t-70.5 167t-165.5 70.5q-96 0 -164.5 -69.5t-68.5 -168t68.5 -168t164.5 -69.5z" glyph-name="currency" horiz-adv-x="1214" unicode="¤"/><glyph d="M1370 1516l-330 -570h201v-289h-360v-63h360v-287h-360v-307h-330v307h-361v287h361v63h-361v289h201l-330 570h400l254 -461l254 461h401z" glyph-name="yen" horiz-adv-x="1421" unicode="¥"/><glyph d="M846 244q111 -111 110 -273q0 -180 -113.5 -292.5t-297.5 -112.5q-246 0 -473 205l164 272q59 -55 138 -95t140 -40q49 0 75.5 28.5t26.5 71.5q0 55 -48 98.5t-117.5 79t-138 79.5t-117 122t-48.5 182q0 188 142 316q-70 104 -70 229q0 180 134 302t311 118 q186 -4 307 -141l-150 -248q-78 70 -159 69q-53 0 -90 -28.5t-37 -75.5t49 -84t119.5 -68.5t142.5 -70.5t121 -114t49 -177q0 -174 -170 -352zM621 434q37 23 62.5 62t25.5 79q0 45 -33 79t-84 34t-85 -33.5t-34 -76.5q1 -95 148 -144z" glyph-name="section" horiz-adv-x="1077" unicode="§"/><glyph d="M350 1309q0 -59 -41 -100.5t-98 -41.5t-98 41t-41 101q0 57 41 99t98 42t98 -42t41 -99zM680 1309q0 -59 -41 -100.5t-100 -41.5q-57 0 -97.5 41t-40.5 101q0 57 40 99t98 42q59 0 100 -42t41 -99z" glyph-name="dieresis" horiz-adv-x="751" unicode="¨"/><glyph d="M844 -12q-322 0 -547 225t-225 547q0 317 225 542.5t547 225.5q317 0 542.5 -225.5t225.5 -542.5q0 -319 -225.5 -545.5t-542.5 -226.5zM844 240q215 0 365.5 151.5t150.5 368.5q0 219 -148.5 367.5t-367.5 148.5t-370.5 -149.5t-151.5 -366.5q0 -215 152.5 -367.5 t369.5 -152.5zM850 373q-160 0 -274.5 115.5t-114.5 277.5q0 164 113.5 278.5t275.5 114.5q170 0 297 -137l-156 -170q-70 66 -137 66q-61 0 -104 -44.5t-43 -105.5q0 -59 43 -103t104 -44q74 0 139 71l154 -176q-143 -143 -297 -143z" glyph-name="copyright" horiz-adv-x="1683" unicode="©"/><glyph d="M719 266l-205 -194l-442 446l440 436l205 -188l-248 -250zM1204 266l-205 -194l-442 446l440 436l205 -188l-248 -250z" glyph-name="guillemotleft" horiz-adv-x="1265" unicode="«"/><glyph d="M866 246v350h-815v319h1135v-669h-320z" glyph-name="logicalnot" horiz-adv-x="1277" unicode="¬"/><glyph d="M844 1528q319 0 545.5 -226.5t226.5 -545.5q0 -317 -227.5 -542.5t-544.5 -225.5q-322 0 -547 225t-225 543q0 322 225 547t547 225zM844 217q217 0 379.5 161t162.5 378q0 219 -161.5 380.5t-380.5 161.5q-223 0 -383 -159.5t-160 -382.5q0 -221 163 -380t380 -159z M1077 930q0 -66 -33.5 -123t-91.5 -88l191 -328h-195l-168 297h-22v-297h-170v780h248q100 0 170.5 -70.5t70.5 -170.5zM758 1001v-147h78q29 0 50 21.5t21 54.5q0 31 -21.5 51t-49.5 20h-78z" glyph-name="registered" horiz-adv-x="1687" unicode="®"/><glyph d="M616 1167h-544v246h544v-246z" glyph-name="macron" horiz-adv-x="688" unicode="¯"/><glyph d="M367 1516q121 0 206.5 -85t85.5 -206q0 -123 -86 -208t-206 -85q-123 0 -209 85t-86 208q0 121 86 206t209 85zM367 1311q-37 0 -65 -25.5t-28 -60.5q0 -37 28 -62.5t65 -25.5q33 0 59.5 25.5t26.5 62.5q0 33 -26.5 59.5t-59.5 26.5z" glyph-name="degree" horiz-adv-x="731" unicode="°"/><glyph d="M1176 928v-285h-416v-307h-283v307h-416v285h416v282h283v-282h416zM1176 0h-1115v285h1115v-285z" glyph-name="plusminus" horiz-adv-x="1226" unicode="±"/><glyph d="M115 592l-2 221l282 315q37 39 36 86.5t-40 75.5q-35 25 -80 14.5t-80 -53.5l-139 117q80 117 212 137.5t231 -63.5q98 -82 104 -213t-84 -236l-162 -180h252v-221h-530z" glyph-name="uni00B2" horiz-adv-x="716" unicode="²"/><glyph d="M606 1114q78 -90 78 -207q0 -123 -86 -214t-217 -91q-119 0 -208 78t-112 194l195 74q43 -121 127 -121q35 0 60.5 23.5t25.5 62.5q0 41 -26.5 64.5t-67.5 23.5h-56v205h58q49 0 49 49q0 47 -49 48q-29 0 -45 -29l-166 102q90 139 229 140q109 0 179.5 -76t70.5 -183 q0 -59 -39 -143z" glyph-name="uni00B3" horiz-adv-x="776" unicode="³"/><glyph d="M184 1145l-112 221l409 219l123 -219z" glyph-name="acute" horiz-adv-x="552" unicode="´"/><glyph d="M1053 1516v-1760h-250v1549h-127v-1549h-250v854q-160 29 -267.5 156t-107.5 293q0 184 132 320.5t306 136.5h564z" glyph-name="paragraph" horiz-adv-x="1153" unicode="¶"/><glyph d="M315 -512q-94 0 -168.5 65.5t-74.5 170.5h180q0 -18 19.5 -36t41.5 -18q25 0 43.5 19.5t18.5 46.5q0 25 -17.5 42t-44.5 17h-92v232h185v-66q68 -27 110.5 -89t42.5 -138q0 -100 -72 -173t-172 -73z" glyph-name="cedilla" horiz-adv-x="630" unicode="¸"/><glyph d="M195 602v721h-154v193h375v-914h-221z" glyph-name="uni00B9" horiz-adv-x="518" unicode="¹"/><glyph d="M61 266l250 250l-248 250l205 188l441 -436l-443 -446zM547 266l250 250l-248 250l205 188l440 -436l-442 -446z" glyph-name="guillemotright" horiz-adv-x="1265" unicode="»"/><glyph d="M256 602v721h-154v193h375v-914h-221zM236 0l929 1516h291l-930 -1516h-290zM1618 362v-202h-86v-160h-219v160h-350v202l397 551h172v-551h86zM1192 362h119v164z" glyph-name="onequarter" horiz-adv-x="1720" unicode="¼"/><glyph d="M256 602v721h-154v193h375v-914h-221zM236 0l929 1516h291l-930 -1516h-290zM1169 0l-2 221l285 316q37 39 36 86t-40 75q-37 25 -81 14.5t-79 -53.5l-141 117q80 117 213 137.5t231 -63.5q98 -82 104.5 -213t-83.5 -236l-162 -180h252v-221h-533z" glyph-name="onehalf" horiz-adv-x="1822" unicode="½"/><glyph d="M606 1114q78 -90 78 -207q0 -123 -86 -214t-217 -91q-119 0 -208 78t-112 194l195 74q43 -121 127 -121q35 0 60.5 23.5t25.5 62.5q0 41 -26.5 64.5t-67.5 23.5h-56v205h58q49 0 49 49q0 47 -49 48q-29 0 -45 -29l-166 102q90 139 229 140q109 0 179.5 -76t70.5 -183 q0 -59 -39 -143zM381 0l930 1516h291l-930 -1516h-291zM1765 362v-202h-88v-160h-219v160h-350v202l397 551h172v-551h88zM1337 362h119v164z" glyph-name="threequarters" horiz-adv-x="1855" unicode="¾"/><glyph d="M356 1346q0 72 49.5 121t120.5 49q70 0 119 -49.5t49 -120.5q0 -70 -49 -120t-118.5 -50t-120 50t-50.5 120zM72 449q0 150 86 268.5t217 165.5v243h332v-546h-168q-55 0 -94 -40t-39 -96q0 -68 53 -104.5t115.5 -21t84.5 76.5l310 -129q-55 -131 -171 -207.5t-257 -76.5 q-195 0 -332 137t-137 330z" glyph-name="questiondown" horiz-adv-x="1019" unicode="¿"/><glyph d="M905 1589l-420 221l125 220l410 -220zM1561 0l-361 2l-102 258h-551l-105 -260h-360l602 1516h260zM680 590h287l-144 362z" glyph-name="Agrave" horiz-adv-x="1632" unicode="À"/><glyph d="M723 1589l-115 221l410 220l125 -220zM1561 0l-361 2l-102 258h-551l-105 -260h-360l602 1516h260zM680 590h287l-144 362z" glyph-name="Aacute" horiz-adv-x="1632" unicode="Á"/><glyph d="M1184 1614h-310l-65 86l-78 -86h-291l262 307h220zM1561 0l-361 2l-102 258h-551l-105 -260h-360l602 1516h260zM680 590h287l-144 362z" glyph-name="Acircumflex" horiz-adv-x="1632" unicode="Â"/><glyph d="M600 1614l-186 129q100 168 268 168q51 0 110.5 -25.5t94.5 -25.5q74 0 121 75l206 -125q-121 -180 -286 -180q-68 0 -127.5 26.5t-81.5 26.5q-35 0 -69 -20t-50 -49zM1561 0l-361 2l-102 258h-551l-105 -260h-360l602 1516h260zM680 590h287l-144 362z" glyph-name="Atilde" horiz-adv-x="1632" unicode="Ã"/><glyph d="M786 1755q0 -59 -40.5 -100t-100.5 -41q-57 0 -98 42t-41 99t41 98t98 41q59 0 100 -41t41 -98zM1116 1755q0 -59 -42 -100t-99 -41t-98 41t-41 100q0 57 41 98t98 41t99 -41t42 -98zM1561 0l-361 2l-102 258h-551l-105 -260h-360l602 1516h260zM680 590h287l-144 362z " glyph-name="Adieresis" horiz-adv-x="1632" unicode="Ä"/><glyph d="M815 2079q96 0 164 -68.5t68 -165t-68 -164t-164 -67.5t-164.5 67.5t-68.5 164t68.5 165t164.5 68.5zM815 1915q-29 0 -48 -20.5t-19 -49.5q0 -27 19 -46t48 -19t48.5 19.5t19.5 45.5q0 29 -19.5 49.5t-48.5 20.5zM1561 0l-361 2l-102 258h-551l-105 -260h-360l602 1516 h260zM680 590h287l-144 362z" glyph-name="Aring" horiz-adv-x="1632" unicode="Å"/><glyph d="M1778 332v-332h-838v262h-377l-117 -262h-364l672 1516h1024v-332h-508v-281h471v-289h-471v-282h508zM940 594v592l-266 -592h266z" glyph-name="AE" horiz-adv-x="1859" unicode="Æ"/><glyph d="M831 317q219 0 383 181l197 -256q-98 -106 -233.5 -173t-284.5 -79v-29q68 -27 111 -89t43 -138q0 -100 -72 -173t-172 -73q-94 0 -169 65.5t-75 170.5h180q0 -18 19.5 -36t42.5 -18q25 0 43 19.5t18 46.5q0 25 -17.5 42t-43.5 17h-92v203q-276 45 -462 260t-186 500 q0 317 225.5 543.5t542.5 226.5q330 0 582 -277l-197 -237q-195 184 -383 184q-182 0 -311 -129t-129 -311.5t129 -311.5t311 -129z" glyph-name="Ccedilla" horiz-adv-x="1513" unicode="Ç"/><glyph d="M629 1589l-420 221l123 220l411 -220zM975 332v-332h-873v1516h873v-332h-541v-281h504v-291h-504v-280h541z" glyph-name="Egrave" horiz-adv-x="1054" unicode="È"/><glyph d="M444 1589l-112 221l409 220l125 -220zM975 332v-332h-873v1516h873v-332h-541v-281h504v-291h-504v-280h541z" glyph-name="Eacute" horiz-adv-x="1054" unicode="É"/><glyph d="M907 1614h-311l-66 86l-75 -86h-291l260 307h221zM975 332v-332h-873v1516h873v-332h-541v-281h504v-291h-504v-280h541z" glyph-name="Ecircumflex" horiz-adv-x="1054" unicode="Ê"/><glyph d="M508 1755q0 -59 -41 -100t-98.5 -41t-98.5 41t-41 100q0 57 41 98t98.5 41t98.5 -41t41 -98zM838 1755q0 -59 -41 -100t-101 -41q-57 0 -97 41t-40 100q0 57 40 98t97 41q59 0 100.5 -41t41.5 -98zM975 332v-332h-873v1516h873v-332h-541v-281h504v-291h-504v-280h541z " glyph-name="Edieresis" horiz-adv-x="1054" unicode="Ë"/><glyph d="M379 1591l-420 221l123 220l410 -220zM125 0v1516h328v-1516h-328z" glyph-name="Igrave" horiz-adv-x="563" unicode="Ì"/><glyph d="M190 1591l-112 221l409 220l123 -220zM121 0v1516h328v-1516h-328z" glyph-name="Iacute" horiz-adv-x="561" unicode="Í"/><glyph d="M672 1614h-310l-65 86l-78 -86h-291l262 307h220zM141 0v1516h328v-1516h-328z" glyph-name="Icircumflex" horiz-adv-x="600" unicode="Î"/><glyph d="M236 1755q0 -59 -41 -100t-101 -41q-57 0 -98 42t-41 99t41 99t98 42q59 0 100.5 -42t41.5 -99zM565 1755q0 -59 -41 -100t-100 -41q-57 0 -98 42t-41 99t41 99t98 42t99 -42t42 -99zM102 0v1516h328v-1516h-328z" glyph-name="Idieresis" horiz-adv-x="520" unicode="Ï"/><glyph d="M680 1516q313 0 535.5 -222.5t222.5 -536t-222.5 -535.5t-535.5 -222h-500v627h-78v288h78v601h500zM680 332q176 0 300 125t124 301t-124 301t-300 125h-168v-269h90v-288h-90v-295h168z" glyph-name="Eth" horiz-adv-x="1499" unicode="Ð"/><glyph d="M457 1614l-189 129q100 168 269 168q53 0 112.5 -25.5t91.5 -25.5q74 0 121 75l207 -125q-121 -180 -287 -180q-68 0 -127 26.5t-82 26.5q-35 0 -67.5 -20t-48.5 -49zM971 1516h329v-1516h-256l-610 891v-891h-332v1516h250l619 -898v898z" glyph-name="Ntilde" horiz-adv-x="1392" unicode="Ñ"/><glyph d="M932 1589l-422 221l125 220l409 -220zM842 1528q319 0 544.5 -225.5t225.5 -545t-225.5 -544.5t-544.5 -225q-317 0 -543.5 225t-226.5 544.5t226.5 545t543.5 225.5zM840 1198q-182 0 -309.5 -129t-127.5 -311.5t127 -311.5t310 -129q178 0 309 130.5t131 310.5 t-131 310t-309 130z" glyph-name="Ograve" horiz-adv-x="1681" unicode="Ò"/><glyph d="M748 1589l-115 221l411 220l123 -220zM842 1528q319 0 544.5 -225.5t225.5 -545t-225.5 -544.5t-544.5 -225q-317 0 -543.5 225t-226.5 544.5t226.5 545t543.5 225.5zM840 1198q-182 0 -309.5 -129t-127.5 -311.5t127 -311.5t310 -129q178 0 309 130.5t131 310.5 t-131 310t-309 130z" glyph-name="Oacute" horiz-adv-x="1681" unicode="Ó"/><glyph d="M1208 1614h-309l-65 86l-78 -86h-291l262 307h219zM842 1528q319 0 544.5 -225.5t225.5 -545t-225.5 -544.5t-544.5 -225q-317 0 -543.5 225t-226.5 544.5t226.5 545t543.5 225.5zM840 1198q-182 0 -309.5 -129t-127.5 -311.5t127 -311.5t310 -129q178 0 309 130.5 t131 310.5t-131 310t-309 130z" glyph-name="Ocircumflex" horiz-adv-x="1681" unicode="Ô"/><glyph d="M627 1614l-189 129q100 168 269 168q51 0 110.5 -25.5t93.5 -25.5q74 0 121 75l207 -125q-121 -180 -287 -180q-68 0 -127 26.5t-82 26.5q-35 0 -67.5 -20t-48.5 -49zM842 1528q319 0 544.5 -225.5t225.5 -545t-225.5 -544.5t-544.5 -225q-317 0 -543.5 225t-226.5 544.5 t226.5 545t543.5 225.5zM840 1198q-182 0 -309.5 -129t-127.5 -311.5t127 -311.5t310 -129q178 0 309 130.5t131 310.5t-131 310t-309 130z" glyph-name="Otilde" horiz-adv-x="1681" unicode="Õ"/><glyph d="M811 1755q0 -59 -41 -100t-100 -41q-57 0 -97.5 41t-40.5 100q0 57 40 98t98 41q59 0 100 -41t41 -98zM1141 1755q0 -59 -42 -100t-99.5 -41t-98.5 42t-41 99t41 98t98.5 41t99.5 -41t42 -98zM842 1528q319 0 544.5 -225.5t225.5 -545t-225.5 -544.5t-544.5 -225 q-317 0 -543.5 225t-226.5 544.5t226.5 545t543.5 225.5zM840 1198q-182 0 -309.5 -129t-127.5 -311.5t127 -311.5t310 -129q178 0 309 130.5t131 310.5t-131 310t-309 130z" glyph-name="Odieresis" horiz-adv-x="1681" unicode="Ö"/><glyph d="M1063 231l-197 -200l-288 291l-297 -299l-199 198l297 297l-287 289l197 197l289 -287l280 278l197 -198l-281 -279z" glyph-name="multiply" horiz-adv-x="1134" unicode="×"/><glyph d="M1305 1374q143 -109 225 -269.5t82 -346.5q0 -319 -225.5 -544.5t-544.5 -225.5q-186 0 -353 86l-45 -74l-155 94l51 80q-125 109 -196.5 260.5t-71.5 323.5q0 319 226 544.5t544 225.5q158 0 303 -62l47 74l156 -96zM403 758q0 -172 115 -297l449 719q-61 18 -127 18 q-182 0 -309.5 -129t-127.5 -311zM840 317q178 0 309 130.5t131 310.5q0 195 -154 332l-460 -736q80 -37 174 -37z" glyph-name="Oslash" horiz-adv-x="1681" unicode="Ø"/><glyph d="M694 1589l-420 221l123 220l410 -220zM608 -12q-209 0 -357.5 148.5t-148.5 357.5v1022h330v-1022q0 -72 51.5 -123.5t125 -51.5t125.5 51.5t52 123.5v1022h330v-1022q0 -209 -149.5 -357.5t-358.5 -148.5z" glyph-name="Ugrave" unicode="Ù"/><glyph d="M510 1589l-113 221l410 220l123 -220zM608 -12q-209 0 -357.5 148.5t-148.5 357.5v1022h330v-1022q0 -72 51.5 -123.5t125 -51.5t125.5 51.5t52 123.5v1022h330v-1022q0 -209 -149.5 -357.5t-358.5 -148.5z" glyph-name="Uacute" unicode="Ú"/><glyph d="M971 1614h-309l-66 86l-76 -86h-291l260 307h222zM608 -12q-209 0 -357.5 148.5t-148.5 357.5v1022h330v-1022q0 -72 51.5 -123.5t125 -51.5t125.5 51.5t52 123.5v1022h330v-1022q0 -209 -149.5 -357.5t-358.5 -148.5z" glyph-name="Ucircumflex" unicode="Û"/><glyph d="M573 1755q0 -59 -40.5 -100t-98 -41t-98.5 41t-41 100q0 57 41 98t98.5 41t98 -41t40.5 -98zM903 1755q0 -59 -41 -100t-100 -41q-57 0 -97 41t-40 100q0 57 40 98t97 41q59 0 100 -41t41 -98zM608 -12q-209 0 -357.5 148.5t-148.5 357.5v1022h330v-1022 q0 -72 51.5 -123.5t125 -51.5t125.5 51.5t52 123.5v1022h330v-1022q0 -209 -149.5 -357.5t-358.5 -148.5z" glyph-name="Udieresis" unicode="Ü"/><glyph d="M649 1589l-112 221l409 220l125 -220zM1401 1516l-490 -846v-670h-329v670l-490 846h400l253 -461l254 461h402z" glyph-name="Yacute" horiz-adv-x="1482" unicode="Ý"/><glyph d="M584 1243q195 0 334 -138t139 -331q0 -195 -139.5 -334t-333.5 -139h-150v-301h-332v1516h332v-273h150zM584 633q59 0 100 41t41 100q0 57 -41 97t-100 40h-150v-278h150z" glyph-name="Thorn" horiz-adv-x="1095" unicode="Þ"/><glyph d="M926 786q135 -135 135 -325q0 -184 -130 -322.5t-302 -138.5h-154v309h139q57 0 97.5 45t40.5 105q0 61 -40 106t-96 45h-141v305l121 5q49 2 81 45t32 96q0 59 -43 102t-105 43h-151v-1206h-308v1516h459q188 0 322.5 -133.5t134.5 -321.5q0 -158 -92 -275z" glyph-name="germandbls" horiz-adv-x="1130" unicode="ß"/><glyph d="M678 1108l-420 223l125 219l410 -221zM1116 1024v-1024h-274v49q-131 -66 -254 -65q-217 0 -372 155.5t-155 374.5t154 372.5t373 153.5q129 0 250 -63v47h278zM596 315q82 0 139.5 58.5t57.5 140.5t-57.5 139.5t-139.5 57.5t-138.5 -57.5t-56.5 -139.5 q0 -84 56.5 -141.5t138.5 -57.5z" glyph-name="agrave" unicode="à"/><glyph d="M496 1108l-115 221l410 221l124 -219zM1116 1024v-1024h-274v49q-131 -66 -254 -65q-217 0 -372 155.5t-155 374.5t154 372.5t373 153.5q129 0 250 -63v47h278zM596 315q82 0 139.5 58.5t57.5 140.5t-57.5 139.5t-139.5 57.5t-138.5 -57.5t-56.5 -139.5 q0 -84 56.5 -141.5t138.5 -57.5z" glyph-name="aacute" unicode="á"/><glyph d="M956 1133h-309l-65 86l-78 -86h-291l262 307h219zM1116 1024v-1024h-274v49q-131 -66 -254 -65q-217 0 -372 155.5t-155 374.5t154 372.5t373 153.5q129 0 250 -63v47h278zM596 315q82 0 139.5 58.5t57.5 140.5t-57.5 139.5t-139.5 57.5t-138.5 -57.5t-56.5 -139.5 q0 -84 56.5 -141.5t138.5 -57.5z" glyph-name="acircumflex" unicode="â"/><glyph d="M373 1133l-187 129q100 168 269 168q51 0 110.5 -26t93.5 -26q74 0 121 76l207 -125q-121 -180 -287 -180q-68 0 -127 26.5t-81 26.5q-35 0 -69 -20t-50 -49zM1116 1024v-1024h-274v49q-131 -66 -254 -65q-217 0 -372 155.5t-155 374.5t154 372.5t373 153.5 q129 0 250 -63v47h278zM596 315q82 0 139.5 58.5t57.5 140.5t-57.5 139.5t-139.5 57.5t-138.5 -57.5t-56.5 -139.5q0 -84 56.5 -141.5t138.5 -57.5z" glyph-name="atilde" unicode="ã"/><glyph d="M559 1274q0 -59 -41 -100t-100 -41q-57 0 -98 42t-41 99t40.5 98t98.5 41q59 0 100 -41t41 -98zM889 1274q0 -57 -41 -99t-100 -42q-57 0 -98.5 40.5t-41.5 100.5q0 57 41 98t98.5 41t99.5 -41t42 -98zM1116 1024v-1024h-274v49q-131 -66 -254 -65q-217 0 -372 155.5 t-155 374.5t154 372.5t373 153.5q129 0 250 -63v47h278zM596 315q82 0 139.5 58.5t57.5 140.5t-57.5 139.5t-139.5 57.5t-138.5 -57.5t-56.5 -139.5q0 -84 56.5 -141.5t138.5 -57.5z" glyph-name="adieresis" unicode="ä"/><glyph d="M588 1597q96 0 163.5 -68.5t67.5 -164.5t-67.5 -163.5t-163.5 -67.5t-165 67.5t-69 163.5t69 164.5t165 68.5zM587.5 1434q-28.5 0 -48 -20.5t-19.5 -49.5q0 -27 19.5 -46.5t48 -19.5t48 19.5t19.5 46.5q0 29 -19.5 49.5t-48 20.5zM1116 1024v-1024h-274v49 q-131 -66 -254 -65q-217 0 -372 155.5t-155 374.5t154 372.5t373 153.5q129 0 250 -63v47h278zM596 315q82 0 139.5 58.5t57.5 140.5t-57.5 139.5t-139.5 57.5t-138.5 -57.5t-56.5 -139.5q0 -84 56.5 -141.5t138.5 -57.5z" glyph-name="aring" unicode="å"/><glyph d="M61 514q0 219 154 372.5t373 153.5q129 0 250 -63v47h278v-20q96 37 199 36q229 0 376.5 -172t147.5 -460h-721q76 -119 225 -119q123 0 246 86l193 -230q-207 -162 -445 -161q-123 0 -221 43v-27h-274v49q-131 -66 -254 -65q-217 0 -372 155.5t-155 374.5zM1122 657h361 q-14 49 -60.5 85t-115.5 36q-74 0 -123.5 -36t-61.5 -85zM401 514q0 -84 56.5 -141.5t138.5 -57.5t139.5 58.5t57.5 140.5t-57.5 139.5t-139.5 57.5t-138.5 -57.5t-56.5 -139.5z" glyph-name="ae" horiz-adv-x="1900" unicode="æ"/><glyph d="M991 178q-154 -154 -305 -184v-33q68 -27 111 -89t43 -138q0 -100 -72 -173t-172 -73q-94 0 -170 65.5t-76 170.5h182q0 -18 19.5 -36t42 -18t41 19.5t18.5 46.5q0 25 -17.5 42t-41.5 17h-94v197q-182 35 -305 181t-123 339q0 219 152.5 373.5t369.5 154.5 q223 0 397 -186l-207 -227q-92 86 -186 86q-80 0 -137.5 -58.5t-57.5 -138.5t57.5 -138.5t137.5 -58.5q100 0 188 97z" glyph-name="ccedilla" horiz-adv-x="1062" unicode="ç"/><glyph d="M684 1108l-420 223l123 219l410 -221zM1116 408h-721q76 -119 226 -119q123 0 245 86l193 -230q-207 -162 -445 -161q-231 0 -392 155.5t-161 378.5q0 217 155 369.5t376 152.5q229 0 376.5 -171.5t147.5 -460.5zM399 657h361q-14 49 -60.5 85t-115.5 36 q-74 0 -123.5 -36t-61.5 -85z" glyph-name="egrave" horiz-adv-x="1175" unicode="è"/><glyph d="M500 1108l-113 221l410 221l123 -219zM1116 408h-721q76 -119 226 -119q123 0 245 86l193 -230q-207 -162 -445 -161q-231 0 -392 155.5t-161 378.5q0 217 155 369.5t376 152.5q229 0 376.5 -171.5t147.5 -460.5zM399 657h361q-14 49 -60.5 85t-115.5 36 q-74 0 -123.5 -36t-61.5 -85z" glyph-name="eacute" horiz-adv-x="1175" unicode="é"/><glyph d="M961 1133h-310l-65 86l-78 -86h-291l262 307h219zM1116 408h-721q76 -119 226 -119q123 0 245 86l193 -230q-207 -162 -445 -161q-231 0 -392 155.5t-161 378.5q0 217 155 369.5t376 152.5q229 0 376.5 -171.5t147.5 -460.5zM399 657h361q-14 49 -60.5 85t-115.5 36 q-74 0 -123.5 -36t-61.5 -85z" glyph-name="ecircumflex" horiz-adv-x="1175" unicode="ê"/><glyph d="M563 1274q0 -59 -41 -100t-100 -41q-57 0 -97 40.5t-40 100.5q0 57 40 98t97 41q59 0 100 -41t41 -98zM893 1274q0 -59 -41 -100t-100 -41q-57 0 -98.5 42t-41.5 99t41 98t99 41q59 0 100 -41t41 -98zM1116 408h-721q76 -119 226 -119q123 0 245 86l193 -230 q-207 -162 -445 -161q-231 0 -392 155.5t-161 378.5q0 217 155 369.5t376 152.5q229 0 376.5 -171.5t147.5 -460.5zM399 657h361q-14 49 -60.5 85t-115.5 36q-74 0 -123.5 -36t-61.5 -85z" glyph-name="edieresis" horiz-adv-x="1175" unicode="ë"/><glyph d="M365 1108l-422 223l125 219l409 -221zM438 0h-323v1024h323v-1024z" glyph-name="igrave" horiz-adv-x="538" unicode="ì"/><glyph d="M176 1108l-115 221l412 221l123 -219zM434 0h-323v1024h323v-1024z" glyph-name="iacute" horiz-adv-x="534" unicode="í"/><glyph d="M657 1133h-309l-65 86l-78 -86h-291l262 307h219zM455 0h-324v1024h324v-1024z" glyph-name="icircumflex" horiz-adv-x="573" unicode="î"/><glyph d="M221 1274q0 -59 -41 -100t-100 -41q-57 0 -98 42t-41 99t41 98t98 41q59 0 100 -41t41 -98zM551 1274q0 -57 -42 -99t-99.5 -42t-98.5 42t-41 99t41 98t98.5 41t99.5 -41t42 -98zM416 0h-324v1024h324v-1024z" glyph-name="idieresis" horiz-adv-x="495" unicode="ï"/><glyph d="M1100 776q61 -119 61 -250q0 -221 -159.5 -379.5t-380.5 -158.5q-223 0 -381 157.5t-158 380.5q0 205 134 357.5t331 177.5l-31 51l-59 -35l-109 180l58 35l-35 58l286 166l33 -56l60 35l108 -180l-59 -35zM621 317q86 0 146 61.5t60 147.5t-60 148.5t-146 62.5 t-147.5 -62.5t-61.5 -148.5t60.5 -147.5t148.5 -61.5z" glyph-name="eth" horiz-adv-x="1263" unicode="ð"/><glyph d="M330 1133l-189 129q100 168 269 168q53 0 112.5 -26t91.5 -26q74 0 121 76l207 -125q-121 -180 -287 -180q-68 0 -127 26.5t-82 26.5q-35 0 -67.5 -20t-48.5 -49zM567 1040q178 0 302 -132t124 -318v-590h-329v590q0 51 -35 86t-86 35t-87 -35t-36 -86v-590h-328v1024 h254v-47q108 63 221 63z" glyph-name="ntilde" horiz-adv-x="1064" unicode="ñ"/><glyph d="M682 1108l-422 223l125 219l410 -221zM590 1040q217 0 372.5 -155.5t155.5 -372.5t-155.5 -372.5t-372.5 -155.5t-373 155.5t-156 372.5t156 372.5t373 155.5zM590 709q-82 0 -139.5 -57.5t-57.5 -139.5t57.5 -139.5t139.5 -57.5t139 57.5t57 139.5t-57 139.5t-139 57.5z " glyph-name="ograve" horiz-adv-x="1177" unicode="ò"/><glyph d="M498 1108l-115 221l412 221l123 -219zM590 1040q217 0 372.5 -155.5t155.5 -372.5t-155.5 -372.5t-372.5 -155.5t-373 155.5t-156 372.5t156 372.5t373 155.5zM590 709q-82 0 -139.5 -57.5t-57.5 -139.5t57.5 -139.5t139.5 -57.5t139 57.5t57 139.5t-57 139.5t-139 57.5z " glyph-name="oacute" horiz-adv-x="1177" unicode="ó"/><glyph d="M958 1133h-309l-65 86l-78 -86h-291l262 307h219zM590 1040q217 0 372.5 -155.5t155.5 -372.5t-155.5 -372.5t-372.5 -155.5t-373 155.5t-156 372.5t156 372.5t373 155.5zM590 709q-82 0 -139.5 -57.5t-57.5 -139.5t57.5 -139.5t139.5 -57.5t139 57.5t57 139.5t-57 139.5 t-139 57.5z" glyph-name="ocircumflex" horiz-adv-x="1177" unicode="ô"/><glyph d="M377 1133l-189 129q100 168 269 168q51 0 110.5 -26t94.5 -26q74 0 120 76l207 -125q-121 -180 -287 -180q-68 0 -127 26.5t-81 26.5q-35 0 -68 -20t-49 -49zM590 1040q217 0 372.5 -155.5t155.5 -372.5t-155.5 -372.5t-372.5 -155.5t-373 155.5t-156 372.5t156 372.5 t373 155.5zM590 709q-82 0 -139.5 -57.5t-57.5 -139.5t57.5 -139.5t139.5 -57.5t139 57.5t57 139.5t-57 139.5t-139 57.5z" glyph-name="otilde" horiz-adv-x="1177" unicode="õ"/><glyph d="M561 1274q0 -59 -41 -100t-100 -41q-57 0 -97 40.5t-40 100.5q0 57 39.5 98t97.5 41q59 0 100 -41t41 -98zM891 1274q0 -57 -42 -99t-99.5 -42t-98.5 42t-41 99t41 98t98.5 41t99.5 -41t42 -98zM590 1040q217 0 372.5 -155.5t155.5 -372.5t-155.5 -372.5t-372.5 -155.5 t-373 155.5t-156 372.5t156 372.5t373 155.5zM590 709q-82 0 -139.5 -57.5t-57.5 -139.5t57.5 -139.5t139.5 -57.5t139 57.5t57 139.5t-57 139.5t-139 57.5z" glyph-name="odieresis" horiz-adv-x="1177" unicode="ö"/><glyph d="M782 970.5q0 -69.5 -48 -116.5t-119.5 -47t-120 47t-48.5 116.5t49.5 120t119 50.5t118.5 -50.5t49 -120zM1165 459h-1104v280h1104v-280zM782 221q0 -70 -49 -118t-118.5 -48t-119 48.5t-49.5 117.5q0 74 48.5 122t120 48t119.5 -48t48 -122z" glyph-name="divide" horiz-adv-x="1216" unicode="÷"/><glyph d="M930 915q188 -158 188 -403q0 -217 -155.5 -372.5t-372.5 -155.5q-111 0 -211 45l-19 -29l-155 94l22 35q-166 156 -166 383q0 217 156 372.5t373 155.5q92 0 180 -32l25 39l155 -97zM393 512q0 -45 19 -84l174 281q-80 -2 -136.5 -59.5t-56.5 -137.5zM590 315 q82 0 139 57.5t57 139.5q0 61 -36 115l-193 -310q10 -2 33 -2z" glyph-name="oslash" horiz-adv-x="1177" unicode="ø"/><glyph d="M633 1108l-420 223l123 219l409 -221zM544.5 -16q-188.5 0 -320.5 133t-132 319v588h330v-588q0 -51 36 -87t87 -36t87 36t36 87v588h329v-588q0 -186 -132 -319t-320.5 -133z" glyph-name="ugrave" horiz-adv-x="1069" unicode="ù"/><glyph d="M449 1108l-113 221l409 221l123 -219zM544.5 -16q-188.5 0 -320.5 133t-132 319v588h330v-588q0 -51 36 -87t87 -36t87 36t36 87v588h329v-588q0 -186 -132 -319t-320.5 -133z" glyph-name="uacute" horiz-adv-x="1069" unicode="ú"/><glyph d="M909 1133h-309l-65 86l-76 -86h-291l260 307h221zM544.5 -16q-188.5 0 -320.5 133t-132 319v588h330v-588q0 -51 36 -87t87 -36t87 36t36 87v588h329v-588q0 -186 -132 -319t-320.5 -133z" glyph-name="ucircumflex" horiz-adv-x="1069" unicode="û"/><glyph d="M512 1274q0 -59 -41 -100t-98.5 -41t-98.5 40.5t-41 100.5q0 57 41 98t98.5 41t98.5 -41t41 -98zM842 1274q0 -59 -41 -100t-101 -41q-57 0 -97 40.5t-40 100.5q0 57 40 98t97 41q59 0 100.5 -41t41.5 -98zM544.5 -16q-188.5 0 -320.5 133t-132 319v588h330v-588 q0 -51 36 -87t87 -36t87 36t36 87v588h329v-588q0 -186 -132 -319t-320.5 -133z" glyph-name="udieresis" horiz-adv-x="1069" unicode="ü"/><glyph d="M492 1108l-115 221l409 221l125 -219zM1139 1024l-410 -993q-86 -205 -225 -319.5t-318 -139.5l-102 293q115 10 208 85t130 195l-361 879h361l176 -432l176 432h365z" glyph-name="yacute" horiz-adv-x="1230" unicode="ý"/><glyph d="M618 -16q-111 0 -196 36v-430h-330v1844h330v-435q104 41 196 41q217 0 373 -155.5t156 -372.5t-156 -372.5t-373 -155.5zM612.5 707q-77.5 0 -136 -58.5t-58.5 -136.5q0 -80 58.5 -137.5t136 -57.5t136 57.5t58.5 137.5q0 78 -58.5 136.5t-136 58.5z" glyph-name="thorn" unicode="þ"/><glyph d="M555 1274q0 -57 -42 -99t-99.5 -42t-98.5 42t-41 99t41 98t98.5 41t99.5 -41t42 -98zM885 1274q0 -57 -41 -99t-101 -42q-57 0 -98 40.5t-41 100.5q0 57 41 98t98.5 41t99.5 -41t42 -98zM1139 1024l-410 -993q-86 -205 -225 -319.5t-318 -139.5l-102 293q115 10 208 85 t130 195l-361 879h361l176 -432l176 432h365z" glyph-name="ydieresis" horiz-adv-x="1230" unicode="ÿ"/><glyph d="M1090 1614h-545v246h545v-246zM1561 0l-361 2l-102 258h-551l-105 -260h-360l602 1516h260zM680 590h287l-144 362z" glyph-name="Amacron" horiz-adv-x="1632" unicode="Ā"/><glyph d="M862 1133h-545v245h545v-245zM1116 1024v-1024h-274v49q-131 -66 -254 -65q-217 0 -372 155.5t-155 374.5t154 372.5t373 153.5q129 0 250 -63v47h278zM596 315q82 0 139.5 58.5t57.5 140.5t-57.5 139.5t-139.5 57.5t-138.5 -57.5t-56.5 -139.5q0 -84 56.5 -141.5 t138.5 -57.5z" glyph-name="amacron" unicode="ā"/><glyph d="M809 1612q-106 0 -186 67.5t-80 169.5v105h184v-80q0 -33 24.5 -56.5t57.5 -23.5q35 0 60.5 23.5t25.5 56.5v80l184 2v-107q0 -102 -80.5 -169.5t-189.5 -67.5zM1561 0l-361 2l-102 258h-551l-105 -260h-360l602 1516h260zM680 590h287l-144 362z" glyph-name="Abreve" horiz-adv-x="1632" unicode="Ă"/><glyph d="M582 1130q-106 0 -186.5 68t-80.5 170v105h185v-80q0 -33 24.5 -55.5t57.5 -22.5q35 0 60.5 22.5t25.5 55.5v80l184 2v-107q0 -102 -80.5 -170t-189.5 -68zM1116 1024v-1024h-274v49q-131 -66 -254 -65q-217 0 -372 155.5t-155 374.5t154 372.5t373 153.5q129 0 250 -63 v47h278zM596 315q82 0 139.5 58.5t57.5 140.5t-57.5 139.5t-139.5 57.5t-138.5 -57.5t-56.5 -139.5q0 -84 56.5 -141.5t138.5 -57.5z" glyph-name="abreve" unicode="ă"/><glyph d="M1317 -135q0 -74 55 -103.5t127 -5.5l62 -96q-80 -39 -160 -39q-102 0 -172 71.5t-70 174.5q0 76 35 151l-96 242h-551l-105 -260h-360l602 1516h260l617 -1516l-197 2q-47 -76 -47 -137zM680 590h287l-144 362z" glyph-name="Aogonek" horiz-adv-x="1634" unicode="Ą"/><glyph d="M1145 -244l61 -96q-80 -39 -157 -39q-102 0 -172 71.5t-70 174.5q0 78 35 151v31q-131 -66 -254 -65q-217 0 -372 155.5t-155 374.5t154 372.5t373 153.5q129 0 250 -63v47h278v-1024h-104q-47 -70 -47 -135q0 -74 54 -104t126 -5zM596 315q82 0 139.5 58.5t57.5 140.5 t-57.5 139.5t-139.5 57.5t-138.5 -57.5t-56.5 -139.5q0 -84 56.5 -141.5t138.5 -57.5z" glyph-name="aogonek" horiz-adv-x="1222" unicode="ą"/><glyph d="M707 1589l-115 221l412 220l122 -220zM831 -12q-317 0 -543.5 226t-226.5 543.5t225.5 544t542.5 226.5q330 0 582 -277l-197 -237q-195 184 -383 184q-182 0 -311 -129t-129 -311.5t129 -311.5t311 -129q219 0 383 181l197 -256q-109 -119 -260.5 -186.5t-319.5 -67.5z " glyph-name="Cacute" horiz-adv-x="1513" unicode="Ć"/><glyph d="M502 1108l-115 221l410 221l125 -219zM592 -16q-213 0 -366.5 155.5t-153.5 372.5q0 219 152.5 373.5t369.5 154.5q223 0 397 -186l-207 -227q-92 86 -186 86q-80 0 -137.5 -58.5t-57.5 -138.5t57.5 -138.5t137.5 -58.5q100 0 188 97l205 -238q-194 -194 -399 -194z" glyph-name="cacute" horiz-adv-x="1062" unicode="ć"/><glyph d="M1169 1921l-262 -307h-219l-262 307h291l78 -86l65 86h309zM831 -12q-317 0 -543.5 226t-226.5 543.5t225.5 544t542.5 226.5q330 0 582 -277l-197 -237q-195 184 -383 184q-182 0 -311 -129t-129 -311.5t129 -311.5t311 -129q219 0 383 181l197 -256 q-109 -119 -260.5 -186.5t-319.5 -67.5z" glyph-name="Ccaron" horiz-adv-x="1513" unicode="Č"/><glyph d="M965 1440l-263 -307h-219l-262 307h291l78 -86l65 86h310zM592 -16q-213 0 -366.5 155.5t-153.5 372.5q0 219 152.5 373.5t369.5 154.5q223 0 397 -186l-207 -227q-92 86 -186 86q-80 0 -137.5 -58.5t-57.5 -138.5t57.5 -138.5t137.5 -58.5q100 0 188 97l205 -238 q-194 -194 -399 -194z" glyph-name="ccaron" horiz-adv-x="1062" unicode="č"/><glyph d="M813 1614h-545v246h545v-246zM975 332v-332h-873v1516h873v-332h-541v-281h504v-291h-504v-280h541z" glyph-name="Emacron" horiz-adv-x="1054" unicode="Ē"/><glyph d="M868 1133h-544v245h544v-245zM1116 408h-721q76 -119 226 -119q123 0 245 86l193 -230q-207 -162 -445 -161q-231 0 -392 155.5t-161 378.5q0 217 155 369.5t376 152.5q229 0 376.5 -171.5t147.5 -460.5zM399 657h361q-14 49 -60.5 85t-115.5 36q-74 0 -123.5 -36 t-61.5 -85z" glyph-name="emacron" horiz-adv-x="1175" unicode="ē"/><glyph d="M672 1755q0 -59 -41 -100t-101 -41q-57 0 -98 42t-41 99t41 98t98 41q59 0 100.5 -41t41.5 -98zM975 332v-332h-873v1516h873v-332h-541v-281h504v-291h-504v-280h541z" glyph-name="Edotaccent" horiz-adv-x="1054" unicode="Ė"/><glyph d="M727 1274q0 -57 -42 -99t-99.5 -42t-98.5 40.5t-41 100.5q0 57 41 98t98.5 41t99.5 -41t42 -98zM1116 408h-721q76 -119 226 -119q123 0 245 86l193 -230q-207 -162 -445 -161q-231 0 -392 155.5t-161 378.5q0 217 155 369.5t376 152.5q229 0 376.5 -171.5t147.5 -460.5z M399 657h361q-14 49 -60.5 85t-115.5 36q-74 0 -123.5 -36t-61.5 -85z" glyph-name="edotaccent" horiz-adv-x="1175" unicode="ė"/><glyph d="M1077 -244l64 -96q-84 -39 -160 -39q-102 0 -172 71.5t-70 174.5q0 63 27 133h-664v1516h873v-332h-541v-281h504v-291h-504v-280h541v-332h-31q-47 -70 -47 -135q0 -74 54 -104t126 -5z" glyph-name="Eogonek" horiz-adv-x="1067" unicode="Ę"/><glyph d="M1059 145q-147 -117 -314 -147q-45 -74 -45 -133q0 -74 55.5 -103.5t127.5 -5.5l61 -96q-80 -39 -160 -39q-102 0 -171.5 71.5t-69.5 174.5q0 57 22 119q-215 18 -359.5 170.5t-144.5 361.5q0 217 155 369.5t376 152.5q229 0 376.5 -172t147.5 -460h-721 q76 -119 226 -119q123 0 245 86zM584 778q-74 0 -123 -35.5t-62 -85.5h361q-14 49 -60 85t-116 36z" glyph-name="eogonek" horiz-adv-x="1175" unicode="ę"/><glyph d="M909 1921l-262 -307h-221l-260 307h291l75 -86l66 86h311zM975 332v-332h-873v1516h873v-332h-541v-281h504v-291h-504v-280h541z" glyph-name="Ecaron" horiz-adv-x="1054" unicode="Ě"/><glyph d="M963 1440l-263 -307h-219l-262 307h291l78 -86l65 86h310zM1116 408h-721q76 -119 226 -119q123 0 245 86l193 -230q-207 -162 -445 -161q-231 0 -392 155.5t-161 378.5q0 217 155 369.5t376 152.5q229 0 376.5 -171.5t147.5 -460.5zM399 657h361q-14 49 -60.5 85 t-115.5 36q-74 0 -123.5 -36t-61.5 -85z" glyph-name="ecaron" horiz-adv-x="1175" unicode="ě"/><glyph d="M541 1614h-545v246h545v-246zM102 0v1516h328v-1516h-328z" glyph-name="Imacron" horiz-adv-x="520" unicode="Ī"/><glyph d="M524 1133h-542v245h542v-245zM416 0h-324v1024h324v-1024z" glyph-name="imacron" horiz-adv-x="495" unicode="ī"/><glyph d="M541 -244l63 -96q-84 -39 -160 -39q-102 0 -171.5 71.5t-69.5 174.5q0 63 26 133h-127v1516h328v-1516h-22q-47 -70 -48 -135q0 -74 54.5 -104t126.5 -5z" glyph-name="Iogonek" horiz-adv-x="536" unicode="Į"/><glyph d="M243.5 1133q-57.5 0 -98.5 40.5t-41 100.5q0 57 41 98t98.5 41t98.5 -41t41 -98q0 -59 -41 -100t-98.5 -41zM397 -244l62 -96q-80 -39 -158 -39q-102 0 -172 71.5t-70 174.5q0 72 33 147v1010h324v-1024h-154q-47 -70 -47 -135q0 -74 55 -104t127 -5z" glyph-name="iogonek" horiz-adv-x="509" unicode="į"/><glyph d="M395 0h-323v1024h323v-1024z" glyph-name="dotlessi" horiz-adv-x="456" unicode="ı"/><glyph d="M270 1608l-114 221l409 219l125 -219zM942 0h-840v1516h332v-1184h508v-332z" glyph-name="Lacute" horiz-adv-x="991" unicode="Ĺ"/><glyph d="M211 1534l-113 221l410 219l123 -219zM567 332v-332h-82q-213 0 -304 98.5t-91 317.5v1018h332v-1022q0 -80 76 -80h69z" glyph-name="lacute" horiz-adv-x="636" unicode="ĺ"/><glyph d="M516 332h508v-332h-840v473l-82 -45v307l82 45v736h332v-553l348 190v-313l-348 -189v-319z" glyph-name="Lslash" horiz-adv-x="1073" unicode="Ł"/><glyph d="M580 332h69v-332h-80q-213 0 -304 98.5t-91 317.5v57l-82 -45v307l82 45v654h332v-471l133 73v-311l-133 -72v-241q0 -80 74 -80z" glyph-name="lslash" horiz-adv-x="700" unicode="ł"/><glyph d="M578 1589l-113 221l409 220l123 -220zM971 1516h329v-1516h-256l-610 891v-891h-332v1516h250l619 -898v898z" glyph-name="Nacute" horiz-adv-x="1392" unicode="Ń"/><glyph d="M451 1108l-113 221l410 221l122 -219zM567 1040q178 0 302 -132t124 -318v-590h-329v590q0 51 -35 86t-86 35t-87 -35t-36 -86v-590h-328v1024h254v-47q108 63 221 63z" glyph-name="nacute" horiz-adv-x="1064" unicode="ń"/><glyph d="M1040 1921l-260 -307h-221l-262 307h293l76 -86l65 86h309zM971 1516h329v-1516h-256l-610 891v-891h-332v1516h250l619 -898v898z" glyph-name="Ncaron" horiz-adv-x="1392" unicode="Ň"/><glyph d="M913 1440l-260 -307h-221l-260 307h291l76 -86l65 86h309zM567 1040q178 0 302 -132t124 -318v-590h-329v590q0 51 -35 86t-86 35t-87 -35t-36 -86v-590h-328v1024h254v-47q108 63 221 63z" glyph-name="ncaron" horiz-adv-x="1064" unicode="ň"/><glyph d="M1116 1614h-545v246h545v-246zM842 1528q319 0 544.5 -225.5t225.5 -545t-225.5 -544.5t-544.5 -225q-317 0 -543.5 225t-226.5 544.5t226.5 545t543.5 225.5zM840 1198q-182 0 -309.5 -129t-127.5 -311.5t127 -311.5t310 -129q178 0 309 130.5t131 310.5t-131 310 t-309 130z" glyph-name="Omacron" horiz-adv-x="1681" unicode="Ō"/><glyph d="M866 1133h-544v245h544v-245zM590 1040q217 0 372.5 -155.5t155.5 -372.5t-155.5 -372.5t-372.5 -155.5t-373 155.5t-156 372.5t156 372.5t373 155.5zM590 709q-82 0 -139.5 -57.5t-57.5 -139.5t57.5 -139.5t139.5 -57.5t139 57.5t57 139.5t-57 139.5t-139 57.5z" glyph-name="omacron" horiz-adv-x="1177" unicode="ō"/><glyph d="M672 1567l-154 151l309 346l164 -147zM1034 1567l-153 151l309 346l166 -147zM842 1528q319 0 544.5 -225.5t225.5 -545t-225.5 -544.5t-544.5 -225q-317 0 -543.5 225t-226.5 544.5t226.5 545t543.5 225.5zM840 1198q-182 0 -309.5 -129t-127.5 -311.5t127 -311.5 t310 -129q178 0 309 130.5t131 310.5t-131 310t-309 130z" glyph-name="Ohungarumlaut" horiz-adv-x="1681" unicode="Ő"/><glyph d="M422 1085l-154 152l310 346l163 -147zM784 1085l-153 152l309 346l166 -147zM590 1040q217 0 372.5 -155.5t155.5 -372.5t-155.5 -372.5t-372.5 -155.5t-373 155.5t-156 372.5t156 372.5t373 155.5zM590 709q-82 0 -139.5 -57.5t-57.5 -139.5t57.5 -139.5t139.5 -57.5 t139 57.5t57 139.5t-57 139.5t-139 57.5z" glyph-name="ohungarumlaut" horiz-adv-x="1177" unicode="ő"/><glyph d="M2122 332v-332h-836v121q-197 -139 -442 -139q-319 0 -545.5 225t-226.5 545q0 322 226 547t546 225q242 0 440 -138v130h838v-330h-510v-283h473v-291h-473v-280h510zM1282 752q0 186 -126 313t-312 127q-182 0 -311.5 -128t-129.5 -312q0 -182 129.5 -310.5 t311.5 -128.5q184 0 311 130.5t127 308.5z" glyph-name="OE" horiz-adv-x="2201" unicode="Œ"/><glyph d="M61 512q0 217 156 372.5t373 155.5q207 0 356 -139q152 139 363 139q229 0 376.5 -172t147.5 -460h-721q76 -119 225 -119q123 0 246 86l193 -230q-207 -162 -445 -161q-223 0 -379 143q-154 -143 -362 -143q-217 0 -373 155.5t-156 372.5zM1116 657h361q-14 49 -60.5 85 t-116.5 36q-74 0 -123 -36t-61 -85zM393 512q0 -82 57.5 -139.5t139.5 -57.5t139 57.5t57 139.5t-57 139.5t-139 57.5t-139.5 -57.5t-57.5 -139.5z" glyph-name="oe" horiz-adv-x="1894" unicode="œ"/><glyph d="M819 1812l-420 -221l-114 221l409 220zM805 0l-326 573h-45v-573h-332v1516h482q195 0 333 -137.5t138 -331.5q0 -131 -66.5 -242t-177.5 -172l373 -633h-379zM434 1184v-279h150q59 0 100 40t41 102q0 57 -41 97t-100 40h-150z" glyph-name="Racute" horiz-adv-x="1245" unicode="Ŕ"/><glyph d="M268 1110l-112 221l409 219l125 -219zM678 1024v-313h-135q-51 0 -87 -35t-36 -86v-590h-328v1024h254v-47q76 47 184 47h148z" glyph-name="racute" horiz-adv-x="729" unicode="ŕ"/><glyph d="M600 1614h-219l-262 307h291l75 -86l66 86h311zM805 0l-326 573h-45v-573h-332v1516h482q195 0 333 -137.5t138 -331.5q0 -131 -66.5 -242t-177.5 -172l373 -633h-379zM434 1184v-279h150q59 0 100 40t41 102q0 57 -41 97t-100 40h-150z" glyph-name="Rcaron" horiz-adv-x="1245" unicode="Ř"/><glyph d="M772 1440l-262 -307h-219l-262 307h290l76 -86l66 86h311zM717 1024v-313h-135q-51 0 -87 -35t-36 -86v-590h-328v1024h254v-47q76 47 184 47h148z" glyph-name="rcaron" horiz-adv-x="794" unicode="ř"/><glyph d="M442 1589l-114 221l409 220l125 -220zM575 -16q-229 0 -483 196l164 291q164 -127 299 -127q66 0 103.5 29.5t37.5 81.5q0 41 -31.5 77.5t-66.5 56t-107.5 55.5t-107.5 54q-283 158 -270 424q8 188 148 302t345 104q184 -8 350 -121l-159 -252q-102 72 -205 72 q-68 0 -105.5 -29t-37.5 -76q0 -29 12 -52t44 -44.5t54.5 -34t73.5 -36t72 -33.5q346 -170 346 -469q0 -199 -135.5 -334t-340.5 -135z" glyph-name="Sacute" horiz-adv-x="1122" unicode="Ś"/><glyph d="M367 1108l-115 221l410 221l124 -219zM766 944l-137 -233q-131 61 -170 61q-43 0 -43 -31q0 -10 6 -16q10 -12 127 -57q129 -47 210 -133t81 -209q0 -141 -107.5 -241.5t-288.5 -100.5q-188 0 -362 122l123 256q37 -23 114.5 -50t126.5 -27q55 0 56 32q0 10 -6 19 q-12 18 -140 74q-45 18 -74.5 34.5t-80.5 55.5t-80 98t-29 133q0 139 101.5 224t252.5 85q144 0 320 -96z" glyph-name="sacute" horiz-adv-x="878" unicode="ś"/><glyph d="M1051 453q0 -172 -103.5 -299t-269.5 -160v-33q68 -27 110.5 -89t42.5 -138q0 -100 -71.5 -173t-171.5 -73q-94 0 -170 65.5t-76 170.5h182q0 -18 19.5 -36t42 -18t41 19.5t18.5 46.5q0 25 -17.5 42t-41.5 17h-94v195q-190 29 -400 190l164 291q164 -127 299 -127 q66 0 103.5 29.5t37.5 81.5q0 41 -31.5 77.5t-66.5 56t-107.5 55.5t-107.5 54q-283 158 -270 424q8 188 148 302t345 104q184 -8 350 -121l-159 -252q-102 72 -205 72q-68 0 -105.5 -29t-37.5 -76q0 -29 12 -52t44 -44.5t54.5 -34t73.5 -36t72 -33.5q346 -170 346 -469z" glyph-name="Scedilla" horiz-adv-x="1122" unicode="Ş"/><glyph d="M840 326q0 -115 -74 -207t-205 -123v-35q68 -27 111 -89t43 -138q0 -102 -73 -174t-173 -72q-94 0 -169 65.5t-75 170.5h183q0 -18 18 -36t41 -18q25 0 43 19.5t18 46.5q0 25 -17 42t-44 17h-92v193q-156 18 -293 118l123 256q37 -23 114.5 -50t126.5 -27q55 0 56 32 q0 20 -28 37t-101 49q-10 4 -17 7q-45 18 -74.5 34.5t-80.5 55.5t-80 98t-29 133q0 139 101.5 224t252.5 85q143 0 320 -96l-137 -233q-131 61 -170 61q-43 0 -43 -31q0 -25 102 -61q18 -8 31 -12q129 -47 210 -133t81 -209z" glyph-name="scedilla" horiz-adv-x="878" unicode="ş"/><glyph d="M905 1921l-262 -307h-219l-262 307h291l75 -86l68 86h309zM575 -16q-229 0 -483 196l164 291q164 -127 299 -127q66 0 103.5 29.5t37.5 81.5q0 41 -31.5 77.5t-66.5 56t-107.5 55.5t-107.5 54q-283 158 -270 424q8 188 148 302t345 104q184 -8 350 -121l-159 -252 q-102 72 -205 72q-68 0 -105.5 -29t-37.5 -76q0 -29 12 -52t44 -44.5t54.5 -34t73.5 -36t72 -33.5q346 -170 346 -469q0 -199 -135.5 -334t-340.5 -135z" glyph-name="Scaron" horiz-adv-x="1122" unicode="Š"/><glyph d="M829 1440l-262 -307h-219l-262 307h291l76 -86l65 86h311zM766 944l-137 -233q-131 61 -170 61q-43 0 -43 -31q0 -10 6 -16q10 -12 127 -57q129 -47 210 -133t81 -209q0 -141 -107.5 -241.5t-288.5 -100.5q-188 0 -362 122l123 256q37 -23 114.5 -50t126.5 -27 q55 0 56 32q0 10 -6 19q-12 18 -140 74q-45 18 -74.5 34.5t-80.5 55.5t-80 98t-29 133q0 139 101.5 224t252.5 85q144 0 320 -96z" glyph-name="scaron" horiz-adv-x="878" unicode="š"/><glyph d="M702 0h-75v-39q68 -27 110.5 -89t42.5 -138q0 -100 -71.5 -173t-171.5 -73q-94 0 -169 65.5t-75 170.5h180q0 -18 19.5 -36t42.5 -18q25 0 43 19.5t18 46.5q0 25 -17.5 42t-43.5 17h-93v205h-69v1184h-322v332h975v-332h-324v-1184z" glyph-name="Tcommaaccent" horiz-adv-x="1064" unicode="Ţ"/><glyph d="M715 735h-291v-307q0 -43 25.5 -69.5t68.5 -26.5h184v-332h-159v-39q68 -27 110.5 -89t42.5 -138q0 -102 -71.5 -174t-173.5 -72q-94 0 -169 65.5t-75 170.5h182q0 -18 18.5 -36t41.5 -18q25 0 43 19.5t18 46.5q0 25 -17.5 42t-43.5 17h-93v223q-264 70 -264 414v918h332 v-326h291v-289z" glyph-name="tcommaaccent" horiz-adv-x="755" unicode="ţ"/><glyph d="M879 1614h-545v246h545v-246zM608 -12q-209 0 -357.5 148.5t-148.5 357.5v1022h330v-1022q0 -72 51.5 -123.5t125 -51.5t125.5 51.5t52 123.5v1022h330v-1022q0 -209 -149.5 -357.5t-358.5 -148.5z" glyph-name="Umacron" unicode="Ū"/><glyph d="M817 1133h-545v245h545v-245zM544.5 -16q-188.5 0 -320.5 133t-132 319v588h330v-588q0 -51 36 -87t87 -36t87 36t36 87v588h329v-588q0 -186 -132 -319t-320.5 -133z" glyph-name="umacron" horiz-adv-x="1069" unicode="ū"/><glyph d="M602 2079q96 0 164 -68.5t68 -165t-68 -164t-164 -67.5q-94 0 -162.5 67.5t-68.5 164t67.5 165t163.5 68.5zM602 1915q-29 0 -48 -20.5t-19 -49.5q0 -27 19 -46t48 -19t49.5 19.5t20.5 45.5q0 29 -20.5 49.5t-49.5 20.5zM608 -12q-209 0 -357.5 148.5t-148.5 357.5v1022 h330v-1022q0 -72 51.5 -123.5t125 -51.5t125.5 51.5t52 123.5v1022h330v-1022q0 -209 -149.5 -357.5t-358.5 -148.5z" glyph-name="Uring" unicode="Ů"/><glyph d="M540.5 1597q96.5 0 164 -68.5t67.5 -164.5t-67.5 -163.5t-163.5 -67.5q-94 0 -163 68.5t-69 162.5q0 96 67.5 164.5t164 68.5zM540.5 1434q-28.5 0 -48 -20.5t-19.5 -49.5q0 -27 19.5 -46.5t48 -19.5t49 19.5t20.5 46.5q0 29 -20.5 49.5t-49 20.5zM544.5 -16 q-188.5 0 -320.5 133t-132 319v588h330v-588q0 -51 36 -87t87 -36t87 36t36 87v588h329v-588q0 -186 -132 -319t-320.5 -133z" glyph-name="uring" horiz-adv-x="1069" unicode="ů"/><glyph d="M436 1567l-155 151l309 346l166 -147zM799 1567l-156 151l309 346l166 -147zM608 -12q-209 0 -357.5 148.5t-148.5 357.5v1022h330v-1022q0 -72 51.5 -123.5t125 -51.5t125.5 51.5t52 123.5v1022h330v-1022q0 -209 -149.5 -357.5t-358.5 -148.5z" glyph-name="Uhungarumlaut" horiz-adv-x="1208" unicode="Ű"/><glyph d="M375 1085l-156 152l309 346l166 -147zM737 1085l-155 152l309 346l166 -147zM544.5 -16q-188.5 0 -320.5 133t-132 319v588h330v-588q0 -51 36 -87t87 -36t87 36t36 87v588h329v-588q0 -186 -132 -319t-320.5 -133z" glyph-name="uhungarumlaut" horiz-adv-x="1069" unicode="ű"/><glyph d="M786 1516h330v-1022q0 -166 -98 -298.5t-252 -183.5q-55 -82 -55 -147q0 -74 55 -103.5t127 -5.5l61 -96q-80 -39 -159 -39q-102 0 -172 71.5t-70 174.5q0 59 22 123q-199 12 -336 157.5t-137 346.5v1022h330v-1022q0 -72 51.5 -123.5t125 -51.5t125.5 51.5t52 123.5 v1022z" glyph-name="Uogonek" unicode="Ų"/><glyph d="M997 436q0 -137 -75.5 -249.5t-196.5 -166.5q-61 -84 -61 -155q0 -74 55 -103.5t127 -5.5l61 -96q-80 -39 -159 -39q-102 0 -172 71.5t-70 174.5q0 51 20 117q-182 8 -308 139t-126 313v588h330v-588q0 -51 36 -87t87 -36t87 36t36 87v588h329v-588z" glyph-name="uogonek" horiz-adv-x="1069" unicode="ų"/><glyph d="M1341 1614h-311l-65 86l-76 -86h-291l262 307h219zM1874 1516l-424 -1516h-272l-207 780l-205 -780h-270l-424 1516h364l223 -791l203 762h221l203 -762l219 791h369z" glyph-name="Wcircumflex" horiz-adv-x="1933" unicode="Ŵ"/><glyph d="M1229 1133h-309l-66 86l-76 -86h-293l263 307h219zM768 987l186 -2l176 -428l181 467h348l-402 -1024h-219l-176 459l-180 -459h-217l-404 1024h351l180 -467z" glyph-name="wcircumflex" horiz-adv-x="1710" unicode="ŵ"/><glyph d="M1112 1614h-311l-66 86l-76 -86h-290l260 307h221zM1401 1516l-490 -846v-670h-329v670l-490 846h400l253 -461l254 461h402z" glyph-name="Ycircumflex" horiz-adv-x="1482" unicode="Ŷ"/><glyph d="M952 1133h-309l-68 86l-75 -86h-291l262 307h219zM1139 1024l-410 -993q-86 -205 -225 -319.5t-318 -139.5l-102 293q115 10 208 85t130 195l-361 879h361l176 -432l176 432h365z" glyph-name="ycircumflex" horiz-adv-x="1230" unicode="ŷ"/><glyph d="M713 1755q0 -59 -41 -100t-98.5 -41t-98.5 41t-41 100q0 57 41 98t98.5 41t98.5 -41t41 -98zM1042 1755q0 -59 -40.5 -100t-100.5 -41q-57 0 -97 41t-40 100q0 57 40 98t97 41q59 0 100 -41t41 -98zM1401 1516l-490 -846v-670h-329v670l-490 846h400l253 -461l254 461 h402z" glyph-name="Ydieresis" horiz-adv-x="1482" unicode="Ÿ"/><glyph d="M473 1608l-115 221l410 219l125 -219zM1169 332v-332h-1069v332l611 874h-650v310h1049v-310l-610 -874h669z" glyph-name="Zacute" horiz-adv-x="1218" unicode="Ź"/><glyph d="M375 1108l-113 221l410 221l123 -219zM924 328v-328h-854v328l426 397h-435v299h840v-299l-401 -397h424z" glyph-name="zacute" horiz-adv-x="974" unicode="ź"/><glyph d="M698 1772q0 -59 -41 -100.5t-100 -41.5q-57 0 -97 41t-40 101q0 57 40 99t97 42q59 0 100 -42t41 -99zM1169 332v-332h-1069v332l611 874h-650v310h1049v-310l-610 -874h669z" glyph-name="Zdotaccent" horiz-adv-x="1218" unicode="Ż"/><glyph d="M602 1274q0 -57 -41 -99t-100 -42q-57 0 -98 40.5t-41 100.5q0 57 40.5 98t98 41t99.5 -41t42 -98zM924 328v-328h-854v328l426 397h-435v299h840v-299l-401 -397h424z" glyph-name="zdotaccent" horiz-adv-x="974" unicode="ż"/><glyph d="M936 1937l-262 -307h-219l-262 307h290l76 -86l68 86h309zM1169 332v-332h-1069v332l611 874h-650v310h1049v-310l-610 -874h669z" glyph-name="Zcaron" horiz-adv-x="1218" unicode="Ž"/><glyph d="M838 1440l-263 -307h-219l-262 307h293l76 -86l65 86h310zM924 328v-328h-854v328l426 397h-435v299h840v-299l-401 -397h424z" glyph-name="zcaron" horiz-adv-x="974" unicode="ž"/><glyph d="M721 1104q-41 0 -68.5 -28.5t-27.5 -71.5v-156h256v-291h-256v-567q0 -197 -118 -298.5t-284 -101.5h-162v334h162q29 0 49.5 18.5t20.5 47.5v1014q0 203 115.5 316.5t312.5 113.5h160v-330h-160z" glyph-name="florin" horiz-adv-x="931" unicode="ƒ"/><glyph d="M553 92q0 -387 -342 -518l-170 281q80 25 130 85t50 152v932h332v-932z" glyph-name="uni0237" horiz-adv-x="624" unicode="ȷ"/><glyph d="M815 1167h-311l-66 86l-76 -86h-290l262 308h219z" glyph-name="circumflex" horiz-adv-x="884" unicode="ˆ"/><glyph d="M815 1475l-262 -308h-219l-262 308h290l76 -86l66 86h311z" glyph-name="caron" horiz-adv-x="884" unicode="ˇ"/><glyph d="M338 1165q-106 0 -186 67.5t-80 170.5v104h182v-80q0 -33 24.5 -55t59.5 -22t60.5 22.5t25.5 54.5v80l182 2v-106q0 -102 -79.5 -170t-188.5 -68z" glyph-name="breve" horiz-adv-x="677" unicode="˘"/><glyph d="M350 1309q0 -59 -41 -100.5t-98 -41.5t-98 41t-41 101q0 57 41 99t98 42t98 -42t41 -99z" glyph-name="dotaccent" horiz-adv-x="421" unicode="˙"/><glyph d="M303 1632q96 0 164 -67.5t68 -165.5q0 -96 -68 -164t-164 -68q-94 0 -162.5 68t-68.5 164q0 98 67.5 165.5t163.5 67.5zM303 1468q-29 0 -48 -20.5t-19 -48.5q0 -27 20 -46.5t47 -19.5q29 0 49.5 19.5t20.5 46.5q0 29 -20.5 49t-49.5 20z" glyph-name="ring" horiz-adv-x="606" unicode="˚"/><glyph d="M313 -391q-102 0 -171.5 71.5t-69.5 174.5q0 82 39 159h182q-66 -88 -66 -161.5t55.5 -103.5t127.5 -5l61 -96q-80 -39 -158 -39z" glyph-name="ogonek" horiz-adv-x="542" unicode="˛"/><glyph d="M260 1167l-188 131q100 166 268 166q51 0 111.5 -25.5t93.5 -25.5q74 0 121 76l206 -125q-121 -180 -286 -180q-68 0 -127.5 26.5t-81.5 26.5q-35 0 -68 -20.5t-49 -49.5z" glyph-name="tilde" horiz-adv-x="942" unicode="˜"/><glyph d="M248 1120l-156 152l309 346l166 -148zM610 1120l-155 152l309 346l166 -148z" glyph-name="hungarumlaut" horiz-adv-x="899" unicode="˝"/><glyph d="M-184 1145l-420 221l123 219l409 -219z" glyph-name="gravecomb" horiz-adv-x="0" unicode="̀"/><glyph d="M-369 1145l-112 221l409 219l123 -219z" glyph-name="acutecomb" horiz-adv-x="0" unicode="́"/><glyph d="M-70 1167h-311l-65 86l-76 -86h-291l262 308h219z" glyph-name="uni0302" horiz-adv-x="0" unicode="̂"/><glyph d="M-682 1167l-188 131q100 166 268 166q53 0 112.5 -25.5t92.5 -25.5q74 0 121 76l206 -125q-121 -180 -286 -180q-68 0 -127.5 26.5t-81.5 26.5q-35 0 -68 -20.5t-49 -49.5z" glyph-name="tildecomb" horiz-adv-x="0" unicode="̃"/><glyph d="M-72 1167h-544v246h544v-246z" glyph-name="uni0304" horiz-adv-x="0" unicode="̄"/><glyph d="M-340 1165q-106 0 -186 67.5t-80 170.5v104h182v-80q0 -33 24.5 -55t59.5 -22t60.5 22.5t25.5 54.5v80l182 2v-106q0 -102 -79.5 -170t-188.5 -68z" glyph-name="uni0306" horiz-adv-x="0" unicode="̆"/><glyph d="M-72 1309q0 -59 -41 -100.5t-98 -41.5t-98 41t-41 101q0 57 41 99t98 42t98 -42t41 -99z" glyph-name="uni0307" horiz-adv-x="0" unicode="̇"/><glyph d="M-401 1309q0 -59 -41 -100.5t-98.5 -41.5t-98.5 41t-41 101q0 57 41 99t98.5 42t98.5 -42t41 -99zM-72 1309q0 -59 -41 -100.5t-100 -41.5q-57 0 -97 41t-40 101q0 57 40 99t97 42q59 0 100 -42t41 -99z" glyph-name="uni0308" horiz-adv-x="0" unicode="̈"/><glyph d="M-303 1632q96 0 163.5 -67.5t67.5 -165.5q0 -96 -67.5 -164t-163.5 -68q-94 0 -163 68t-69 164q0 98 68 165.5t164 67.5zM-303 1468q-29 0 -48.5 -20.5t-19.5 -48.5q0 -27 20.5 -46.5t47.5 -19.5q29 0 49.5 19.5t20.5 46.5q0 29 -20.5 49t-49.5 20z" glyph-name="uni030A" horiz-adv-x="0" unicode="̊"/><glyph d="M-651 1120l-156 152l309 346l166 -148zM-289 1120l-155 152l309 346l166 -148z" glyph-name="uni030B" horiz-adv-x="0" unicode="̋"/><glyph d="M-70 1475l-262 -308h-219l-262 308h291l76 -86l65 86h311z" glyph-name="uni030C" horiz-adv-x="0" unicode="̌"/><glyph d="M-315 -512q-94 0 -169 65.5t-75 170.5h180q0 -18 19.5 -36t42.5 -18q25 0 43 19.5t18 46.5q0 25 -17.5 42t-43.5 17h-93v232h185v-66q68 -27 110.5 -89t42.5 -138q0 -100 -71.5 -173t-171.5 -73z" glyph-name="uni0327" horiz-adv-x="0" unicode="̧"/><glyph d="M-229 -391q-102 0 -172 71.5t-70 174.5q0 82 39 159h182q-66 -88 -65.5 -161.5t55.5 -103.5t127 -5l61 -96q-79 -39 -157 -39z" glyph-name="uni0328" horiz-adv-x="0" unicode="̨"/><glyph d="M-72 438h-544v248h544v-248z" glyph-name="uni0335" horiz-adv-x="0" unicode="̵"/><glyph d="M-879 0l586 1516h242l-588 -1516h-240z" glyph-name="uni0338" horiz-adv-x="0" unicode="̸"/><glyph d="M913 0v1186h-491v-1186h-330v1516h1151v-1516h-330z" glyph-name="Pi" horiz-adv-x="1325" unicode="Π"/><glyph d="M1798 291v-291h-670v315q117 55 189 171t72 251q0 193 -133.5 330t-319.5 137q-188 0 -320.5 -137t-132.5 -330q0 -133 70 -248.5t186 -173.5v-315h-667v291h211q-133 217 -133 446q0 330 231 564.5t555 234.5t553 -234.5t229 -564.5q0 -233 -133 -446h213z" glyph-name="Omega" horiz-adv-x="1869" unicode="Ω"/><glyph d="M668 1024h329v-588q0 -188 -133 -320t-319 -132q-68 0 -123 14v-408h-330v1434h330v-588q0 -51 36 -86t87 -35t87 35t36 86v588z" glyph-name="mu" horiz-adv-x="1058" unicode="μ"/><glyph d="M1188 326h143v-326l-143 -2q-162 0 -275.5 114.5t-113.5 276.5v307h-178l-158 -696h-342l164 696h-193v328h1030v-635q0 -27 19.5 -45t46.5 -18z" glyph-name="pi" horiz-adv-x="1392" unicode="π"/><glyph d="M1063 1589l-420 221l125 220l410 -220zM1874 1516l-424 -1516h-272l-207 780l-205 -780h-270l-424 1516h364l223 -791l203 762h221l203 -762l219 791h369z" glyph-name="Wgrave" horiz-adv-x="1933" unicode="Ẁ"/><glyph d="M952 1108l-420 223l123 219l410 -221zM768 987l186 -2l176 -428l181 467h348l-402 -1024h-219l-176 459l-180 -459h-217l-404 1024h351l180 -467z" glyph-name="wgrave" horiz-adv-x="1710" unicode="ẁ"/><glyph d="M879 1589l-113 221l410 220l124 -220zM1874 1516l-424 -1516h-272l-207 780l-205 -780h-270l-424 1516h364l223 -791l203 762h221l203 -762l219 791h369z" glyph-name="Wacute" horiz-adv-x="1933" unicode="Ẃ"/><glyph d="M768 1108l-113 221l410 221l123 -219zM768 987l186 -2l176 -428l181 467h348l-402 -1024h-219l-176 459l-180 -459h-217l-404 1024h351l180 -467z" glyph-name="wacute" horiz-adv-x="1710" unicode="ẃ"/><glyph d="M944 1755q0 -59 -42 -100t-99.5 -41t-98 41t-40.5 100q0 57 40.5 98t98 41t99.5 -41t42 -98zM1272 1755q0 -59 -41 -100t-98.5 -41t-98.5 41t-41 100q0 57 41 98t98.5 41t98.5 -41t41 -98zM1874 1516l-424 -1516h-272l-207 780l-205 -780h-270l-424 1516h364l223 -791 l203 762h221l203 -762l219 791h369z" glyph-name="Wdieresis" horiz-adv-x="1933" unicode="Ẅ"/><glyph d="M831 1274q0 -59 -40.5 -100t-100.5 -41q-57 0 -97 40.5t-40 100.5q0 57 40 98t97 41q59 0 100 -41t41 -98zM1161 1274q0 -59 -41 -100t-100 -41q-57 0 -98 42t-41 99t41 98t98 41q59 0 100 -41t41 -98zM768 987l186 -2l176 -428l181 467h348l-402 -1024h-219l-176 459 l-180 -459h-217l-404 1024h351l180 -467z" glyph-name="wdieresis" horiz-adv-x="1710" unicode="ẅ"/><glyph d="M834 1589l-420 221l123 220l411 -220zM1401 1516l-490 -846v-670h-329v670l-490 846h400l253 -461l254 461h402z" glyph-name="Ygrave" horiz-adv-x="1482" unicode="Ỳ"/><glyph d="M674 1108l-420 223l125 219l409 -221zM1139 1024l-410 -993q-86 -205 -225 -319.5t-318 -139.5l-102 293q115 10 208 85t130 195l-361 879h361l176 -432l176 432h365z" glyph-name="ygrave" horiz-adv-x="1230" unicode="ỳ"/><glyph d="M1434 455h-1342v319h1342v-319z" glyph-name="endash" horiz-adv-x="1523" unicode="–"/><glyph d="M176 1094l-104 422h264l108 -422h-268z" glyph-name="quoteleft" horiz-adv-x="505" unicode="‘"/><glyph d="M330 1094h-269l109 422h264z" glyph-name="quoteright" horiz-adv-x="505" unicode="’"/><glyph d="M176 1094l-104 422h264l108 -422h-268zM530 1094l-104 422h266l109 -422h-271z" glyph-name="quotedblleft" horiz-adv-x="862" unicode="“"/><glyph d="M330 1094h-269l109 422h264zM686 1094h-270l108 422h267z" glyph-name="quotedblright" horiz-adv-x="862" unicode="”"/><glyph d="M319 -190h-268l109 421h264zM676 -190h-270l108 421h266z" glyph-name="quotedblbase" horiz-adv-x="851" unicode="„"/><glyph d="M1186 1024v-289h-424v-1145h-287v1145h-424v289h424v492h287v-492h424z" glyph-name="dagger" horiz-adv-x="1226" unicode="†"/><glyph d="M1186 674v-291h-424v-793h-287v793h-424v291h424v61h-424v289h424v492h287v-492h424v-289h-424v-61h424z" glyph-name="daggerdbl" horiz-adv-x="1226" unicode="‡"/><glyph d="M657 504q0 -119 -87 -203t-207.5 -84t-205.5 84t-85 203q0 123 85 208t205 85q123 0 209 -85t86 -208z" glyph-name="bullet" horiz-adv-x="729" unicode="•"/><glyph d="M428 803q-150 0 -253 104.5t-103 253.5q0 147 104.5 253t251.5 106q145 0 251.5 -105.5t106.5 -253.5q0 -150 -105.5 -254t-252.5 -104zM594 0h-277l799 1516h277zM428 1274q-45 0 -78 -34t-33 -79t33 -78.5t78 -33.5t79 33.5t34 78.5t-34 79t-79 34zM1290 0 q-150 0 -255 105.5t-105 252.5q0 150 104.5 254.5t255.5 104.5q147 0 252 -104.5t105 -254.5q0 -147 -106 -252.5t-251 -105.5zM2058.5 0q-147.5 0 -254 105.5t-106.5 252.5q0 150 106.5 254.5t253.5 104.5q150 0 253.5 -104.5t103.5 -254.5q0 -147 -104.5 -252.5 t-252 -105.5zM1290 471q-49 0 -81.5 -32.5t-32.5 -80.5q0 -45 32.5 -78.5t81.5 -33.5q45 0 78 33.5t33 78.5q0 47 -33 80t-78 33zM2058 471q-47 0 -80.5 -32.5t-33.5 -80.5q0 -45 34.5 -78.5t79.5 -33.5q47 0 79 33.5t32 78.5q0 47 -32 80t-79 33z" glyph-name="perthousand" horiz-adv-x="2455" unicode="‰"/><glyph d="M719 266l-205 -194l-442 446l440 436l205 -188l-248 -250z" glyph-name="guilsinglleft" horiz-adv-x="780" unicode="‹"/><glyph d="M61 266l250 250l-248 250l205 188l441 -436l-443 -446z" glyph-name="guilsinglright" horiz-adv-x="780" unicode="›"/><glyph d="M340 0h-289l930 1516h289z" glyph-name="fraction" horiz-adv-x="1310" unicode="⁄"/><glyph d="M408 614q-125 0 -215.5 91.5t-90.5 216.5v299q0 125 90.5 216t215.5 91q129 0 218 -90t89 -217v-299q0 -127 -89 -217.5t-218 -90.5zM317 1221v-299q0 -37 27 -65t64 -28q39 0 65.5 28t26.5 65v299q0 37 -27 64.5t-65 27.5q-37 0 -64 -27.5t-27 -64.5z" glyph-name="uni2070" horiz-adv-x="817" unicode="⁰"/><glyph d="M717 965v-203h-88v-160h-219v160h-349v203l396 551h172v-551h88zM291 965h117v163z" glyph-name="uni2074" horiz-adv-x="778" unicode="⁴"/><glyph d="M367 1253q135 0 227 -93t92 -228t-94 -232.5t-223 -97.5q-158 0 -277 146l172 147q39 -61 105 -61q45 0 72.5 28.5t27.5 71.5q0 45 -28.5 73.5t-73.5 28.5q-39 0 -70 -20l-170 125l57 375h434v-220h-249l-7 -39z" glyph-name="uni2075" horiz-adv-x="747" unicode="⁵"/><glyph d="M485 1249q113 -20 188 -111t72 -208q-2 -135 -98 -229.5t-231 -92.5q-133 0 -228.5 96.5t-95.5 231.5q0 84 39 149l266 437l189 -111zM418 825q47 -2 77.5 30t30.5 77t-29.5 76.5t-76.5 33.5q-43 0 -75 -31.5t-32 -76.5q0 -43 31 -76t74 -33z" glyph-name="uni2076" horiz-adv-x="827" unicode="⁶"/><glyph d="M582 1294l-244 -692h-234l240 692h-303v222h541v-222z" glyph-name="uni2077" horiz-adv-x="653" unicode="⁷"/><glyph d="M600 1118q82 -88 82 -207q0 -123 -87 -210t-208 -87t-208 87t-87 210q0 119 82 207q-47 72 -47 152q0 106 77 182t181 76q109 0 184.5 -76t75.5 -182q0 -82 -45 -152zM387 1325q-25 0 -40 -16.5t-15 -38.5q0 -25 15 -42.5t40 -17.5t40 17.5t15 42.5q0 23 -15 39t-40 16z M385 817q41 0 67.5 27.5t26.5 66.5q0 37 -26.5 65t-67.5 28q-39 0 -64.5 -27t-25.5 -66q0 -41 25.5 -67.5t64.5 -26.5z" glyph-name="uni2078" horiz-adv-x="774" unicode="⁸"/><glyph d="M401 1526q133 0 228.5 -96.5t95.5 -231.5q0 -84 -39 -149l-266 -437l-189 113l101 160q-113 20 -187.5 111t-72.5 208q2 135 98 229.5t231 92.5zM291 1202q0 -45 29.5 -76.5t76.5 -33.5q41 0 74 31.5t33 76.5q0 43 -31 76t-74 33q-47 2 -77.5 -30t-30.5 -77z" glyph-name="uni2079" horiz-adv-x="817" unicode="⁹"/><glyph d="M1260 385l100 -317q-197 -78 -387 -78q-236 0 -424.5 126t-278.5 330h-198v271h135q-2 14 -2 40.5t2 41.5h-135v270h198q90 207 280.5 333t428.5 126q170 0 344 -82l-100 -305q-133 55 -246 55q-170 0 -301 -127h354v-270h-491q-2 -14 -2 -45q0 -25 2 -37h491v-271h-364 q123 -127 299 -127q137 0 295 66z" glyph-name="Euro" horiz-adv-x="1421" unicode="€"/><glyph d="M543 1516v-187h-160v-581h-182v581h-160v187h502zM1405 1516v-768h-186v329l-146 -303h-100l-150 303v-329h-186v768h154l231 -476l231 476h152z" glyph-name="trademark" horiz-adv-x="1466" unicode="™"/><glyph d="M1114 530q0 -236 -149.5 -389t-372.5 -153q-215 0 -367.5 152.5t-152.5 367.5q0 217 152.5 369.5t367.5 152.5q94 0 190 -37v31q0 63 -48 112.5t-118 49.5h-311v330h256q244 0 397.5 -131.5t155.5 -360.5v-494zM592 317q80 0 136 55.5t56 135.5t-57 136t-135 56 q-80 0 -135.5 -56t-55.5 -136t55.5 -135.5t135.5 -55.5z" glyph-name="partialdiff" horiz-adv-x="1204" unicode="∂"/><glyph d="M1139 289v-289h-1057v289l424 1227h205zM385 289h446l-221 643z" glyph-name="uni2206" horiz-adv-x="1210" unicode="∆"/><glyph d="M1599 1516v-332h-239v-1594h-334v1594h-375v-1594h-336v1594h-243v332h1527z" glyph-name="product" horiz-adv-x="1660" unicode="∏"/><glyph d="M1069 -287h-1008v330l392 584l-392 559v330h1008v-330h-604l397 -559l-405 -584h612v-330z" glyph-name="summation" horiz-adv-x="1120" unicode="∑"/><glyph d="M1407 1516l-612 -1516h-201l-287 731h-256v293h455l194 -483l392 975h315z" glyph-name="radical" horiz-adv-x="1458" unicode="√"/><glyph d="M1374 965q174 0 300 -128t126 -309q0 -178 -126 -305t-300 -127q-215 0 -438 219q-229 -219 -440 -219q-172 0 -298 127t-126 305q0 180 125 308.5t299 128.5q211 0 440 -220q223 220 438 220zM498 375q111 0 258 155q-147 156 -258 156q-61 0 -104.5 -45t-43.5 -110.5 t43.5 -110.5t104.5 -45zM1372 375q61 0 104.5 45t43.5 110.5t-43 110.5t-105 45q-109 0 -256 -156q147 -155 256 -155z" glyph-name="infinity" horiz-adv-x="1859" unicode="∞"/><glyph d="M205 -412h-144v291h144q39 0 66.5 26.5t27.5 63.5v1131q0 190 123 303t293 113h145v-293h-145q-53 0 -91 -36t-38 -87v-1131q0 -178 -111.5 -279.5t-269.5 -101.5z" glyph-name="integral" horiz-adv-x="911" unicode="∫"/><glyph d="M1081 629q-238 -139 -526 -72q-2 0 -37 8t-49 12.5t-52 10.5t-62.5 8t-62.5 3t-67.5 -4t-65.5 -14.5t-67 -23.5v248q90 35 182.5 41t151.5 -5.5t172 -39.5q246 -63 483 76v-248zM1081 301q-238 -139 -526 -72q-2 0 -37 8.5t-49 12.5t-52 10t-62.5 8t-62.5 3t-67.5 -4 t-65.5 -14t-67 -24v248q90 35 182.5 41t151.5 -5t172 -40q246 -63 483 76v-248z" glyph-name="approxequal" horiz-adv-x="1163" unicode="≈"/><glyph d="M1190 602h-412l-30 -59h442v-283h-582l-166 -338l-215 107l115 231h-250v283h389l29 59h-418v281h557l154 311l213 -109l-101 -202h275v-281z" glyph-name="notequal" horiz-adv-x="1271" unicode="≠"/><glyph d="M1016 330l-912 319v166l912 320v-279l-354 -125l354 -123v-278zM92 0v262h924v-262h-924z" glyph-name="lessequal" horiz-adv-x="1095" unicode="≤"/><glyph d="M82 330v278l352 123l-352 125v279l911 -320v-166zM1006 0h-924v262h924v-262z" glyph-name="greaterequal" horiz-adv-x="1095" unicode="≥"/><glyph d="M676 0h-166l-449 758l449 758h166l448 -758zM397 758l195 -332l196 332l-196 332z" glyph-name="lozenge" horiz-adv-x="1173" unicode="◊"/><glyph d="M92 0v1026q0 201 113.5 304.5t314.5 103.5h162v-293h-162q-45 0 -72.5 -28t-27.5 -71v-18h368v2q0 201 114 304.5t315 103.5h161v-293h-161q-45 0 -73 -28t-28 -71v-18h262v-276h-262l-2 -748h-326v748h-368l-2 -748h-326z" glyph-name="f_f.dlig" horiz-adv-x="1427"/><glyph d="M1487 1270q0 72 56 128t130 56q82 0 136.5 -55.5t54.5 -128.5q0 -84 -53.5 -136.5t-137.5 -52.5q-76 0 -131 53.5t-55 135.5zM92 0v1026q0 201 113.5 304.5t314.5 103.5h162v-293h-162q-45 0 -72.5 -28t-27.5 -71v-18h368v2q0 201 114 304.5t315 103.5h161v-293h-161 q-45 0 -73 -28t-28 -71v-18h721v-1024h-324v748h-397l-2 -748h-326v748h-368l-2 -748h-326z" glyph-name="f_f_i.dlig" horiz-adv-x="1923"/><glyph d="M973 1081q-76 0 -131.5 53.5t-55.5 135.5q0 72 57.5 128t129.5 56q84 0 137 -54t53 -130q0 -84 -52 -136.5t-138 -52.5zM92 0v1026q0 201 113.5 304.5t314.5 103.5h162v-293h-162q-45 0 -72.5 -28t-27.5 -71v-18h717v-1024h-324v750h-393l-2 -750h-326z" glyph-name="f_i.dlig" horiz-adv-x="1222"/><glyph d="M92 432v918h332v-326h414v326h331v-326h291v-289h-291v-307q0 -43 26 -69.5t69 -26.5h184v-332h-195q-416 0 -415 432v303h-414v-307q0 -43 25.5 -69.5t68.5 -26.5h184v-332h-194q-416 0 -416 432z" glyph-name="t_t.dlig" horiz-adv-x="1501"/></font>
</defs>
</svg>
