<?xml version="1.0" standalone="no"?>
<!DOCTYPE svg PUBLIC "-//W3C//DTD SVG 1.1//EN" "http://www.w3.org/Graphics/SVG/1.1/DTD/svg11.dtd">
<svg xmlns="http://www.w3.org/2000/svg"><metadata>This SVG WebFont was generated by YouWorkForThem.
Copyright (c) 2015 by thmbnl. graphic design. All rights reserved</metadata><defs><font horiz-adv-x="0" id="ywftsvg"><font-face ascent="1638" bbox="-811 -494 2232 2036" cap-height="1516" descent="-410" font-family="" font-stretch="normal" font-weight="300" panose-1="0 0 4 0 0 0 0 0 0 0" underline-position="0" underline-thickness="0" unicode-range="U+0020-25CA" units-per-em="2048" x-height="1024"/><missing-glyph d="M788 1516v-1926h-610v1926h610zM641 1386h-317v-63h125v-72h-127v-63h319v63h-127v72h127v63zM514 1139h-192v-201h319v66h-127v135zM449 1073v-69h-64v69h64zM641 887h-319v-64h127v-71h-127v-64h192v135h127v64zM641 770h-63v-127h-256v-65h319v192zM641 537h-192v-109 h65v45h64v-92h-193v156h-63v-220h319v220zM641 203h-319v-217h319v217zM578 139v-90h-193v90h193zM641 -59h-319v-64h135l-135 -90v-63h319v63h-197l136 90h61v64z" horiz-adv-x="962"/><glyph d="M788 1516v-1926h-610v1926h610zM641 1386h-317v-63h125v-72h-127v-63h319v63h-127v72h127v63zM514 1139h-192v-201h319v66h-127v135zM449 1073v-69h-64v69h64zM641 887h-319v-64h127v-71h-127v-64h192v135h127v64zM641 770h-63v-127h-256v-65h319v192zM641 537h-192v-109 h65v45h64v-92h-193v156h-63v-220h319v220zM641 203h-319v-217h319v217zM578 139v-90h-193v90h193zM641 -59h-319v-64h135l-135 -90v-63h319v63h-197l136 90h61v64z" glyph-name=".notdef" horiz-adv-x="962"/><glyph glyph-name="glyph1"/><glyph glyph-name="glyph2" horiz-adv-x="681"/><glyph glyph-name="space" horiz-adv-x="624" unicode=" "/><glyph d="M125 291v1225h141v-1225h-141zM197 0q-39 0 -67 28.5t-28 69.5t28 65.5t67 24.5t66.5 -24.5t27.5 -65.5t-28.5 -69.5t-65.5 -28.5z" glyph-name="exclam" horiz-adv-x="393" unicode="!"/><glyph d="M180 1153l-88 363h131l90 -363h-133zM410 1153l-88 363h131l90 -363h-133z" glyph-name="quotedbl" horiz-adv-x="624" unicode="&quot;"/><glyph d="M1454 1094l-29 -144h-290l-70 -368h283l-29 -144h-283l-84 -438h-145l82 438h-389l-84 -438h-142l86 438h-278l29 144h274l70 368h-267l29 144h266l80 422h150l-86 -422h389l86 422h139l-82 -422h295zM918 582l73 368h-389l-74 -368h390z" glyph-name="numbersign" horiz-adv-x="1525" unicode="#"/><glyph d="M928 383q0 -158 -102.5 -270.5t-266.5 -126.5v-209h-145v217q-164 29 -322 168l84 129q184 -152 332 -152q109 0 186.5 72t77.5 174q0 113 -90 189.5t-244 148.5q-61 29 -97 47t-91 57t-85 77t-52.5 99.5t-18.5 131.5q6 141 95.5 244.5t224.5 136.5v202h145v-192 q141 -10 254 -96l-80 -115q-113 76 -219 76q-109 0 -189.5 -77t-80.5 -190q0 -96 61.5 -153.5t177.5 -110.5q74 -33 111 -50t111.5 -64.5t114.5 -92.5t74 -116.5t34 -153.5z" glyph-name="dollar" horiz-adv-x="1019" unicode="$"/><glyph d="M420 864q-135 0 -231.5 95.5t-96.5 230.5t96.5 230.5t231.5 95.5t232.5 -95.5t97.5 -230.5t-97.5 -230.5t-232.5 -95.5zM473 0h-164l795 1516h164zM420 1370q-76 0 -129 -52t-53 -128q0 -74 53 -127t129 -53t130 53t54 127q0 76 -53 128t-131 52zM1151 -4 q-133 0 -229.5 95t-96.5 230.5t96.5 230.5t229.5 95q137 0 234.5 -95t97.5 -230.5t-97.5 -230.5t-234.5 -95zM1151 502q-74 0 -127 -52.5t-53 -127.5q0 -74 53 -127.5t127 -53.5q78 0 132 53.5t54 127.5q0 76 -54 128t-132 52z" glyph-name="percent" horiz-adv-x="1564" unicode="%"/><glyph d="M1167 655l-186 -389l149 -172l-110 -94l-117 141q-139 -160 -350 -159q-190 0 -325.5 137t-135.5 330q0 121 57.5 225t161.5 168q-139 125 -139 303q0 158 111.5 270.5t269.5 112.5t268.5 -111.5t110.5 -269.5q0 -154 -106.5 -265.5t-260.5 -117.5l318 -375l155 328z M553 1384q-98 0 -168 -70.5t-70 -168.5t70 -168t168 -70q96 0 165.5 70t69.5 168q0 96 -69.5 167.5t-165.5 71.5zM551 125q158 0 258 125l-403 483q-80 -43 -126.5 -120.5t-46.5 -168.5q0 -133 94.5 -226t223.5 -93z" glyph-name="ampersand" horiz-adv-x="1249" unicode="&amp;"/><glyph d="M180 1153l-88 363h131l90 -363h-133z" glyph-name="quotesingle" horiz-adv-x="395" unicode="'"/><glyph d="M510 -115l-123 -78q-264 418 -264 842q0 236 72.5 463t201.5 401l113 -69q-248 -373 -248 -789q0 -207 56.5 -368.5t191.5 -401.5z" glyph-name="parenleft" horiz-adv-x="591" unicode="("/><glyph d="M82 -115q135 240 191.5 402t56.5 368q0 416 -248 789l113 69q129 -174 201.5 -401t72.5 -463q0 -424 -264 -842z" glyph-name="parenright" horiz-adv-x="591" unicode=")"/><glyph d="M829 1143v-119h-227l160 -164l-84 -84l-160 164v-233h-121v233l-164 -164l-83 84l159 164h-227v119h227l-159 160l83 88l164 -164v229h121v-229l160 164l84 -88l-160 -160h227z" glyph-name="asterisk" horiz-adv-x="911" unicode="*"/><glyph d="M1190 631v-139h-485v-496h-140v496h-483v139h483v473h140v-473h485z" glyph-name="plus" horiz-adv-x="1261" unicode="+"/><glyph d="M205 -133h-133l90 362h131z" glyph-name="comma" horiz-adv-x="385" unicode=","/><glyph d="M651 539h-549v157h549v-157z" glyph-name="hyphen" horiz-adv-x="753" unicode="-"/><glyph d="M272 92q0 -37 -27.5 -64.5t-68.5 -27.5q-35 0 -64.5 28.5t-29.5 63.5q0 39 28.5 67.5t65.5 28.5q43 0 69.5 -27.5t26.5 -68.5z" glyph-name="period" horiz-adv-x="354" unicode="."/><glyph d="M61 0l586 1516h154l-588 -1516h-152z" glyph-name="slash" horiz-adv-x="872" unicode="/"/><glyph d="M616 -12q-195 0 -334 138t-139 331v602q0 193 139.5 331t333.5 138q193 0 332 -138.5t139 -330.5v-602q0 -193 -139 -331t-332 -138zM287 1059v-602q0 -133 96 -229.5t233 -96.5q135 0 231.5 96.5t96.5 229.5v602q0 133 -96 229t-232 96q-137 0 -233 -96t-96 -229z" glyph-name="zero" horiz-adv-x="1230" unicode="0"/><glyph d="M514 1516v-1516h-143v1393h-269v123h412z" glyph-name="one" horiz-adv-x="688" unicode="1"/><glyph d="M1038 143v-143h-848v143l598 729q82 102 69 239.5t-112 219.5q-68 55 -154.5 65.5t-177.5 -32.5t-155 -135l-104 86q117 180 323.5 215t364.5 -96q147 -121 160.5 -320t-103.5 -332l-526 -639h665z" glyph-name="two" horiz-adv-x="1181" unicode="2"/><glyph d="M782 848q106 -59 170 -167t64 -232q0 -190 -137.5 -325.5t-327.5 -135.5q-154 0 -279 94t-170 260l134 49q31 -115 115.5 -184.5t199.5 -69.5q135 0 227 92.5t92 219.5q0 131 -94 228t-229 97h-51v135h51q98 0 168.5 71t70.5 169t-70.5 170t-168.5 72q-150 0 -228 -154 l-114 74q51 102 142 159.5t200 57.5q158 0 270.5 -111.5t112.5 -269.5q-1 -184 -148 -299z" glyph-name="three" horiz-adv-x="1169" unicode="3"/><glyph d="M1165 444v-143h-186v-301h-143v301h-723v143l755 1072h111v-1072h186zM285 444h551v779z" glyph-name="four" horiz-adv-x="1277" unicode="4"/><glyph d="M528 997q207 0 355.5 -148.5t148.5 -354.5q0 -209 -149.5 -357.5t-358.5 -148.5q-250 0 -401 205l110 88q104 -150 293 -150q150 0 256.5 106.5t106.5 256t-106.5 256t-256.5 106.5q-121 0 -219 -78l-112 86l96 652h624v-144h-503l-60 -407q88 32 176 32z" glyph-name="five" horiz-adv-x="1165" unicode="5"/><glyph d="M657 1001q209 0 356.5 -149.5t147.5 -359.5q0 -207 -147.5 -355.5t-356 -148.5t-356 148.5t-147.5 355.5q0 143 57 237l469 787l119 -70l-277 -465q76 20 135 20zM657.5 131q149.5 0 257 106.5t107.5 254.5q0 152 -107.5 259t-257.5 107q-152 0 -258 -109.5t-106 -257 t107.5 -254t257 -106.5z" glyph-name="six" horiz-adv-x="1263" unicode="6"/><glyph d="M885 1516v-144l-471 -1372h-158l475 1372h-670v144h824z" glyph-name="seven" horiz-adv-x="966" unicode="7"/><glyph d="M831 858q106 -59 169 -167.5t63 -235.5q0 -195 -136 -331t-328.5 -136t-329 136t-136.5 331q0 127 62.5 235.5t169.5 167.5q-139 113 -140 293q0 156 109.5 266.5t265.5 110.5t265.5 -110.5t109.5 -264.5q-1 -178 -144 -295zM598 1384q-94 0 -161.5 -67.5t-67.5 -163.5 t66.5 -162.5t162.5 -66.5t164.5 66.5t68.5 162.5q0 94 -68.5 162.5t-164.5 68.5zM600 131q133 0 227.5 95.5t94.5 228.5t-94.5 227t-227.5 94t-229.5 -94t-96.5 -227t96.5 -228.5t229.5 -95.5z" glyph-name="eight" horiz-adv-x="1196" unicode="8"/><glyph d="M606 1532q209 0 356.5 -148.5t147.5 -359.5q0 -139 -57 -233l-465 -791h-160l313 539q-76 -20 -139 -21q-205 0 -352.5 149.5t-147.5 358.5t147.5 357.5t356.5 148.5zM606 662q152 0 258.5 109.5t106.5 257t-107.5 254t-257 106.5t-257 -106.5t-107.5 -256t107 -257 t257 -107.5z" glyph-name="nine" horiz-adv-x="1191" unicode="9"/><glyph d="M272 930q0 -37 -29.5 -64.5t-66.5 -27.5t-65.5 27.5t-28.5 64.5t28.5 65.5t65.5 28.5t66.5 -28.5t29.5 -65.5zM272 96q0 -37 -28.5 -66.5t-67.5 -29.5q-37 0 -65.5 29.5t-28.5 66.5q0 39 27.5 66.5t66.5 27.5t67.5 -27.5t28.5 -66.5z" glyph-name="colon" horiz-adv-x="344" unicode=":"/><glyph d="M207 838q-37 0 -65.5 27.5t-28.5 64.5t28.5 65.5t65.5 28.5t66.5 -28.5t29.5 -65.5t-29.5 -64.5t-66.5 -27.5zM82 -133l90 362h131l-88 -362h-133z" glyph-name="semicolon" horiz-adv-x="395" unicode=";"/><glyph d="M928 -37l-815 486v126l815 484v-168l-649 -379l649 -377v-172z" glyph-name="less" horiz-adv-x="1009" unicode="&lt;"/><glyph d="M1071 674h-958v139h958v-139zM1071 334h-958v139h958v-139z" glyph-name="equal" horiz-adv-x="1173" unicode="="/><glyph d="M82 -37v172l649 377l-649 379v168l815 -484v-126z" glyph-name="greater" horiz-adv-x="1009" unicode=">"/><glyph d="M942 1079q0 -168 -109.5 -294t-273.5 -154v-340h-143v479h73q129 0 219.5 91t90.5 224q0 94 -48.5 167t-124 103.5t-156.5 32t-154.5 -48t-112.5 -139.5l-131 57q51 125 165.5 201t251.5 76q186 0 319.5 -133.5t133.5 -321.5zM592 96q0 -39 -28.5 -67.5t-67.5 -28.5 t-67 28.5t-28 67.5t28 66.5t67 27.5t67.5 -27.5t28.5 -66.5z" glyph-name="question" horiz-adv-x="1034" unicode="?"/><glyph d="M864 1528q317 0 542.5 -225.5t225.5 -544.5q0 -131 -31.5 -241.5t-108.5 -185.5t-185.5 -75t-183 65.5t-83.5 137.5q-109 -88 -239 -88q-156 0 -267.5 110.5t-111.5 266t111.5 265t269.5 109.5q129 0 229 -82v62h142v-574q4 -55 41.5 -93t91.5 -38q94 0 139 110.5 t45 250.5q0 262 -183.5 445t-443.5 183q-262 0 -445 -183t-183 -445q0 -260 184 -444.5t442 -184.5q115 0 215 35l31 -139q-123 -37 -246 -37q-317 0 -543.5 227t-226.5 544.5t226.5 543t545.5 225.5zM798.5 512q96.5 0 165 69.5t68.5 166t-68.5 164t-165 67.5t-165 -67.5 t-68.5 -164t68.5 -166t165 -69.5z" glyph-name="at" horiz-adv-x="1724" unicode="@"/><glyph d="M1430 0h-158l-121 301h-770l-121 -301h-158l605 1516h118zM436 442h662l-332 832z" glyph-name="A" horiz-adv-x="1521" unicode="A"/><glyph d="M778 774q96 -55 152.5 -150.5t56.5 -207.5q0 -172 -122 -294t-294 -122h-438v1516h389q172 0 294 -122t122 -292q0 -203 -160 -328zM279 1372v-541h243q113 0 192 79t79 192q0 111 -79 190.5t-192 79.5h-243zM571 143q113 0 192 80t79 191q0 113 -79 192.5t-192 79.5 h-292v-543h292z" glyph-name="B" horiz-adv-x="1089" unicode="B"/><glyph d="M866 -12q-322 0 -548 225t-226 545q0 317 225.5 543.5t538.5 226.5q283 0 526 -205l-84 -111q-203 172 -438 172q-256 0 -440 -184t-184 -442t183 -442.5t441 -184.5q238 0 438 170l84 -115q-235 -198 -516 -198z" glyph-name="C" horiz-adv-x="1505" unicode="C"/><glyph d="M508 1516q313 0 535.5 -222.5t222.5 -536t-222.5 -535.5t-535.5 -222h-375v1516h375zM508 143q254 0 434 180.5t180 434.5t-180 434t-434 180h-232v-1229h232z" glyph-name="D" horiz-adv-x="1357" unicode="D"/><glyph d="M903 143v-143h-770v1516h770v-144h-627v-549h586v-127h-586v-553h627z" glyph-name="E" horiz-adv-x="1015" unicode="E"/><glyph d="M276 0h-143v1516h735v-144h-592v-549h551v-127h-551v-696z" glyph-name="F" horiz-adv-x="960" unicode="F"/><glyph d="M1604 801v-74q-12 -311 -228.5 -525t-523.5 -214q-319 0 -534.5 224t-215.5 544q0 317 226.5 544.5t541.5 227.5q272 0 516 -205l-86 -111q-92 80 -207.5 126t-222.5 46q-258 0 -441 -184t-183 -444q0 -264 175 -444.5t431 -180.5q236 0 404.5 156.5t195.5 386.5h-678 v127h830z" glyph-name="G" horiz-adv-x="1716" unicode="G"/><glyph d="M934 1516h143v-1516h-143v694h-658v-694h-143v1516h143v-695h658v695z" glyph-name="H" horiz-adv-x="1200" unicode="H"/><glyph d="M133 0v1516h141v-1516h-141z" glyph-name="I" horiz-adv-x="397" unicode="I"/><glyph d="M459 1516h141v-1182q0 -137 -97 -235.5t-237 -98.5h-164v141h164q80 0 136.5 57.5t56.5 135.5v1182z" glyph-name="J" horiz-adv-x="733" unicode="J"/><glyph d="M1026 0h-170l-504 735l-76 -100v-635h-143v1516h143v-676l512 676h162l-512 -668z" glyph-name="K" horiz-adv-x="1138" unicode="K"/><glyph d="M866 0h-733v1516h143v-1373h590v-143z" glyph-name="L" horiz-adv-x="948" unicode="L"/><glyph d="M1622 1516v-1516h-143v1184l-561 -1135h-80l-562 1135v-1184h-143v1516h117l627 -1268l626 1268h119z" glyph-name="M" horiz-adv-x="1744" unicode="M"/><glyph d="M1128 1516h144v-1516h-111l-885 1253v-1253h-143v1516h111l884 -1254v1254z" glyph-name="N" horiz-adv-x="1394" unicode="N"/><glyph d="M874 1530q317 0 544 -226.5t227 -543.5q0 -319 -226.5 -545.5t-544.5 -226.5q-319 0 -545.5 226t-226.5 546q0 317 226.5 543.5t545.5 226.5zM874 1386q-260 0 -444 -184t-184 -442q0 -260 184 -444.5t444 -184.5q258 0 442.5 184.5t184.5 444.5q0 258 -184.5 442 t-442.5 184z" glyph-name="O" horiz-adv-x="1746" unicode="O"/><glyph d="M573 1516q176 0 302 -125t126 -301.5t-125.5 -302t-302.5 -125.5h-297v-662h-143v1516h440zM573 805q119 0 202 83t83 202q0 117 -83 199.5t-202 82.5h-297v-567h297z" glyph-name="P" horiz-adv-x="1073" unicode="P"/><glyph d="M1442 233l149 -145l-86 -88l-153 150q-209 -166 -478 -166q-319 0 -545.5 226t-226.5 546q0 317 226.5 543.5t546 226.5t545 -226.5t225.5 -543.5q0 -304 -203 -523zM874 127q209 0 375 125l-137 135l84 86l143 -139q162 180 162 422q0 258 -183 442t-443.5 184 t-444.5 -184t-184 -442q0 -260 184 -444.5t444 -184.5z" glyph-name="Q" horiz-adv-x="1746" unicode="Q"/><glyph d="M864 0l-387 664h-203v-664h-143v1516h440q176 0 301 -125t125 -301q0 -162 -106.5 -282t-263.5 -140l399 -668h-162zM274 1372v-565h297q117 0 200 83t83 199.5t-83 199.5t-200 83h-297z" glyph-name="R" horiz-adv-x="1118" unicode="R"/><glyph d="M522 -16q-219 0 -420 178l84 129q184 -152 332 -152q109 0 186.5 72t77.5 174q0 59 -26.5 109.5t-79.5 92.5t-102.5 69.5t-125 62.5t-119.5 60.5t-107.5 76.5t-92.5 121t-25 158q8 172 132 282.5t294 110.5q164 0 293 -98l-80 -115q-121 74 -221 74q-106 0 -186 -77 t-80 -188q0 -51 17.5 -90t55.5 -69.5t71.5 -49t93.5 -45.5q66 -29 108.5 -50t113 -68t113.5 -94.5t76 -120t33 -154.5q0 -170 -118 -284.5t-298 -114.5z" glyph-name="S" horiz-adv-x="1030" unicode="S"/><glyph d="M975 1516v-144h-375v-1372h-143v1372h-375v144h893z" glyph-name="T" horiz-adv-x="1046" unicode="T"/><glyph d="M600.5 -12q-194.5 0 -331 137t-136.5 330v1061h143v-1061q0 -133 95.5 -228.5t228.5 -95.5t228.5 95.5t95.5 228.5v1061h143v-1061q0 -193 -136 -330t-330.5 -137z" glyph-name="U" horiz-adv-x="1189" unicode="U"/><glyph d="M1325 1516l-555 -1516h-113l-555 1516h156l457 -1252l454 1252h156z" glyph-name="V" horiz-adv-x="1417" unicode="V"/><glyph d="M1806 1516l-424 -1516h-108l-320 1206l-319 -1206h-109l-424 1516h148l340 -1209l317 1200h94l318 -1200l340 1209h147z" glyph-name="W" horiz-adv-x="1898" unicode="W"/><glyph d="M807 760l516 -760h-174l-430 635l-432 -635h-174l516 760l-514 756h172l432 -631l430 631h172z" glyph-name="X" horiz-adv-x="1425" unicode="X"/><glyph d="M1184 1516l-465 -793v-723h-141v723l-465 793h174l360 -615l363 615h174z" glyph-name="Y" horiz-adv-x="1286" unicode="Y"/><glyph d="M1194 143v-143h-1067v143l870 1239h-905v134h1088v-123l-875 -1250h889z" glyph-name="Z" horiz-adv-x="1275" unicode="Z"/><glyph d="M471 -225h-348v1822h348v-143h-205v-1536h205v-143z" glyph-name="bracketleft" horiz-adv-x="563" unicode="["/><glyph d="M811 0h-152l-587 1516h153z" glyph-name="backslash" horiz-adv-x="872" unicode="\"/><glyph d="M92 -225v143h205v1536h-205v143h348v-1822h-348z" glyph-name="bracketright" horiz-adv-x="563" unicode="]"/><glyph d="M92 520l486 815h127l483 -815h-168l-379 649l-377 -649h-172z" glyph-name="asciicircum" horiz-adv-x="1280" unicode="^"/><glyph d="M1081 -135h-1009v135h1009v-135z" glyph-name="underscore" horiz-adv-x="1153" unicode="_"/><glyph d="M375 1184l-406 217l70 125l401 -215z" glyph-name="grave" horiz-adv-x="532" unicode="`"/><glyph d="M1159 1024v-1024h-125v170q-156 -186 -401 -186q-219 0 -375 155.5t-156 374.5q0 217 156 371.5t375 154.5q246 0 401 -186v170h125zM633 127q160 0 272.5 112.5t112.5 274.5q0 158 -112.5 270.5t-272.5 112.5t-272.5 -112.5t-112.5 -270.5q0 -162 112.5 -274.5 t272.5 -112.5z" glyph-name="a" horiz-adv-x="1282" unicode="a"/><glyph d="M649 1040q219 0 374 -154.5t155 -373.5t-155 -373.5t-374 -154.5q-242 0 -401 186v-170h-125v1434h141v-560q156 166 385 166zM649 129q160 0 272.5 111.5t112.5 271.5t-112.5 272.5t-272.5 112.5q-158 0 -271.5 -112.5t-113.5 -272.5t112.5 -271.5t272.5 -111.5z" glyph-name="b" horiz-adv-x="1269" unicode="b"/><glyph d="M631 -16q-219 0 -374 154.5t-155 373.5t155 373.5t374 154.5q211 0 370 -149l-83 -117q-123 123 -287 123q-158 0 -271.5 -113.5t-113.5 -271.5t113.5 -271.5t271.5 -113.5q164 0 287 123l83 -115q-161 -151 -370 -151z" glyph-name="c" horiz-adv-x="1103" unicode="c"/><glyph d="M621 1040q229 0 385 -166v560h141v-1434h-125v170q-160 -186 -401 -186q-219 0 -374 154.5t-155 373.5t155 373.5t374 154.5zM620.5 129q159.5 0 272.5 111.5t113 271.5t-114 272.5t-271 112.5q-160 0 -272.5 -112.5t-112.5 -272.5t112.5 -271.5t272 -111.5z" glyph-name="d" horiz-adv-x="1269" unicode="d"/><glyph d="M1133 465h-879q23 -150 128 -243t247 -93q190 0 338 160l88 -109q-170 -197 -426 -196q-227 0 -377 162.5t-150 383.5q0 219 148.5 364.5t363.5 145.5q223 0 371 -160.5t148 -414.5zM254 586h723q-23 135 -125 226t-238 91q-131 0 -234 -86t-126 -231z" glyph-name="e" horiz-adv-x="1224" unicode="e"/><glyph d="M446 1292q-78 0 -135 -57t-57 -135v-76h356v-125h-356v-899h-141v1100q0 147 99 240.5t234 93.5h164v-142h-164z" glyph-name="f" horiz-adv-x="692" unicode="f"/><glyph d="M1139 1024v-868q0 -156 -42 -274t-114 -182.5t-152.5 -95t-171.5 -30.5q-133 0 -260 72l58 123q100 -55 194 -56q160 0 254 115t94 328q-162 -172 -387 -172q-219 0 -374.5 154.5t-155.5 373.5t155.5 373.5t374.5 154.5q242 0 400 -184v168h127zM612 127 q158 0 270.5 113.5t112.5 271.5t-112.5 271.5t-270 113.5t-272.5 -113.5t-115 -271.5t113.5 -271.5t273.5 -113.5z" glyph-name="g" horiz-adv-x="1261" unicode="g"/><glyph d="M563 1040q182 0 310 -129t128 -309v-602h-143v602q0 121 -87 208t-208 87q-123 0 -209 -87t-86 -208v-602h-145v1434h145v-508q125 114 295 114z" glyph-name="h" horiz-adv-x="1073" unicode="h"/><glyph d="M313 1221q0 -41 -26.5 -68t-69.5 -27q-39 0 -66.5 27t-27.5 68q0 37 28.5 65.5t65.5 28.5q41 0 68.5 -27.5t27.5 -66.5zM291 0h-146v1024h146v-1024z" glyph-name="i" horiz-adv-x="425" unicode="i"/><glyph d="M430 1223q0 -41 -26.5 -69t-65.5 -28q-41 0 -68.5 27t-27.5 66q0 41 27.5 69.5t68.5 28.5q39 0 65.5 -28.5t26.5 -65.5zM410 33q0 -150 -77 -267.5t-218 -191.5l-74 121q225 143 225 338v991h144v-991z" glyph-name="j" horiz-adv-x="552" unicode="j"/><glyph d="M850 0h-168l-346 489l-70 -79v-410h-143v1434h143v-828l377 418h170l-381 -432z" glyph-name="k" horiz-adv-x="952" unicode="k"/><glyph d="M465 143v-143h-45q-137 0 -217 76t-80 239v1119h143v-1119q0 -84 43 -128t111 -44h45z" glyph-name="l" horiz-adv-x="526" unicode="l"/><glyph d="M836 0v614q0 117 -83 201t-202 84t-202 -84t-83 -201v-614h-143v1024h129v-123q43 61 122 100t177 39q111 0 204 -51t150 -139q57 88 151.5 139t205.5 51q176 0 301 -124.5t125 -301.5v-614h-144v614q0 117 -83 201t-199 84q-119 0 -202 -84t-83 -201v-614h-141z" glyph-name="m" horiz-adv-x="1789" unicode="m"/><glyph d="M551 1040q176 0 301 -124.5t125 -301.5v-614h-143v614q0 117 -84 201t-201 84q-119 0 -202 -84t-83 -201v-614h-143v1024h127v-109q125 125 303 125z" glyph-name="n" horiz-adv-x="1077" unicode="n"/><glyph d="M620.5 1040q219.5 0 374 -155.5t154.5 -372.5t-154.5 -372.5t-374 -155.5t-374 155.5t-154.5 372.5t154.5 372.5t374 155.5zM620.5 895q-159.5 0 -272 -111.5t-112.5 -271.5t112.5 -272.5t272 -112.5t271.5 112.5t112 272.5t-112 271.5t-271.5 111.5z" glyph-name="o" horiz-adv-x="1241" unicode="o"/><glyph d="M649 -16q-229 0 -385 166v-560h-141v1434h125v-170q160 186 401 186q219 0 374 -154.5t155 -373.5t-155 -373.5t-374 -154.5zM649 895q-160 0 -272.5 -111.5t-112.5 -271.5t114 -272.5t271 -112.5q160 0 272.5 112.5t112.5 272.5t-112.5 271.5t-272.5 111.5z" glyph-name="p" horiz-adv-x="1269" unicode="p"/><glyph d="M621 -16q-219 0 -374 154.5t-155 373.5t154.5 373.5t374.5 154.5q242 0 401 -186v170h125v-1434h-141v560q-156 -166 -385 -166zM620.5 895q-159.5 0 -272 -111.5t-112.5 -271.5t112.5 -272.5t272.5 -112.5q158 0 271.5 112.5t113.5 272.5t-113 271.5t-272.5 111.5z" glyph-name="q" horiz-adv-x="1269" unicode="q"/><glyph d="M655 1024v-137h-106q-121 0 -202 -69.5t-81 -188.5v-629h-143v1024h127v-104q84 104 270 104h135z" glyph-name="r" horiz-adv-x="727" unicode="r"/><glyph d="M711 952l-66 -106q-104 72 -213 72q-82 0 -141.5 -39t-59.5 -101q0 -43 35 -75.5t69 -48t101 -38.5q137 -47 225.5 -133t88.5 -200q0 -125 -96.5 -212t-237.5 -87q-162 0 -328 94l59 129q129 -78 259 -78q94 0 144 49t50 115q0 63 -55.5 107t-179.5 94q-59 23 -94 40 t-82.5 49.5t-71 79t-23.5 105.5q0 121 94.5 196.5t239.5 75.5q144 0 283 -88z" glyph-name="s" horiz-adv-x="841" unicode="s"/><glyph d="M457 0q-143 0 -238.5 95t-95.5 239v1016h143v-326h359v-127h-359v-563q0 -78 56.5 -134.5t134.5 -56.5h168v-143h-168z" glyph-name="t" horiz-adv-x="696" unicode="t"/><glyph d="M549 -16q-176 0 -301 124.5t-125 301.5v614h141v-614q0 -117 83 -201t202 -84q117 0 199.5 84t82.5 201v614h144v-614q0 -176 -125 -301t-301 -125z" glyph-name="u" horiz-adv-x="1077" unicode="u"/><glyph d="M606 0h-96l-418 1024h156l311 -797l313 797h154z" glyph-name="v" horiz-adv-x="1118" unicode="v"/><glyph d="M831 991h93l295 -788l301 821h151l-395 -1024h-102l-295 784l-295 -784h-105l-397 1024h156l301 -821z" glyph-name="w" horiz-adv-x="1753" unicode="w"/><glyph d="M1081 0h-178l-307 383l-305 -383h-178l407 512l-407 512h178l305 -383l305 383h178l-407 -512z" glyph-name="x" horiz-adv-x="1183" unicode="x"/><glyph d="M1032 1024l-450 -1096q-111 -264 -379 -354l-51 131q127 45 200.5 127t126.5 221l-397 971h154l321 -784l320 784h155z" glyph-name="y" horiz-adv-x="1144" unicode="y"/><glyph d="M907 143v-143h-811v143l637 758h-641v123h797v-127l-629 -754h647z" glyph-name="z" horiz-adv-x="989" unicode="z"/><glyph d="M727 -61v-144h-74q-135 0 -228 95.5t-93 228.5v334q0 76 -53.5 128t-126.5 52h-60v147h60q74 0 127 53.5t53 127.5v333q0 135 93 229.5t228 94.5h74v-143h-74q-74 0 -127 -53.5t-53 -127.5v-333q0 -150 -121 -254q121 -96 121 -254v-334q0 -74 53.5 -127t126.5 -53h74z " glyph-name="braceleft" horiz-adv-x="798" unicode="{"/><glyph d="M123 -389v1905h141v-1905h-141z" glyph-name="bar" horiz-adv-x="387" unicode="|"/><glyph d="M72 -61h73q74 0 127.5 53t53.5 127v334q0 158 120 254q-121 104 -120 254v333q0 74 -53.5 127.5t-127.5 53.5h-73v143h73q135 0 228.5 -94t93.5 -230v-333q0 -74 53 -127.5t127 -53.5h60v-147h-60q-74 0 -127 -52.5t-53 -127.5v-334q0 -133 -93 -228.5t-229 -95.5h-73 v144z" glyph-name="braceright" horiz-adv-x="798" unicode="}"/><glyph d="M266 289l-153 59q53 254 254 342q76 35 152.5 39t152.5 -22.5t123 -50t114 -64.5q221 -133 336 -82q125 55 201 278l160 -61q-96 -301 -301 -379q-68 -25 -136.5 -25.5t-135 22t-115 46t-107.5 60.5q-246 156 -377 81q-105 -59 -168 -243z" glyph-name="asciitilde" horiz-adv-x="1708" unicode="~"/><glyph d="M197 1516q37 0 65.5 -29t28.5 -70t-27.5 -65.5t-66.5 -24.5t-67 24.5t-28 65.5t28 70t67 29zM125 1225h141v-1225h-141v1225z" glyph-name="exclamdown" horiz-adv-x="393" unicode="¡"/><glyph d="M907 250l84 -115q-135 -129 -317 -149v-226h-144v232q-188 33 -313 179t-125 341t125 341t313 179v211h144v-205q182 -18 317 -147l-84 -117q-102 102 -233 119v-762q131 17 233 119zM236 512q0 -133 83.5 -238.5t210.5 -136.5v750q-127 -31 -210.5 -136.5t-83.5 -238.5z " glyph-name="cent" horiz-adv-x="1073" unicode="¢"/><glyph d="M1010 461h141v-107q0 -152 -107.5 -253t-267.5 -101h-665v143h315v346q0 86 -47 164h-277v142h170q-74 94 -106.5 165.5t-32.5 155.5q0 168 119 289t301 121q281 0 446 -283l-116 -72q-135 217 -338 211q-115 -2 -190.5 -78.5t-75.5 -187.5q0 -47 20 -96t39.5 -75.5 t79.5 -104.5l33 -45h491v-142h-405q33 -72 32 -159v-351h207q98 0 166 59.5t68 151.5v107z" glyph-name="sterling" horiz-adv-x="1232" unicode="£"/><glyph d="M1110 532.5q0 -143.5 -80 -270.5l100 -102l-129 -127l-98 98q-125 -90 -285 -90q-158 0 -286 92l-101 -100l-129 127l105 104q-80 121 -80 268q0 139 72 256l-97 99l129 127l91 -90q129 100 296 100q164 0 295 -98l88 88l129 -127l-94 -96q74 -115 74 -258.5zM616.5 197 q137.5 0 235.5 99t98 236.5t-98 234.5t-235.5 97t-234.5 -97t-97 -235q0 -139 97 -237t234.5 -98z" glyph-name="currency" horiz-adv-x="1222" unicode="¤"/><glyph d="M1153 1516l-381 -650h299v-143h-383v-150h383v-143h-383v-430h-141v430h-381v143h381v150h-381v143h297l-381 650h174l360 -615l363 615h174z" glyph-name="yen" horiz-adv-x="1224" unicode="¥"/><glyph d="M700 246q78 -55 121 -138t43 -176q0 -158 -114.5 -261t-280.5 -103q-190 0 -377 141l72 137q154 -121 295 -120q113 0 184.5 59t71.5 160q0 70 -43 123t-106.5 83.5t-138.5 68.5t-138.5 77t-106.5 109.5t-43 166.5q0 125 64.5 208t154.5 114q-145 90 -145 270 q0 154 113.5 261.5t273.5 107.5q143 0 264 -92l-76 -119q-88 68 -186 68q-94 0 -165.5 -61.5t-71.5 -162.5q0 -72 55 -123t135 -85.5t159 -74.5t134 -115t55 -181q0 -227 -203 -342zM553 326q86 25 143.5 99.5t57.5 156.5q0 92 -69 150.5t-165 58.5q-98 0 -165.5 -59.5 t-67.5 -151.5q0 -174 266 -254z" glyph-name="section" horiz-adv-x="985" unicode="§"/><glyph d="M231 1235q0 -29 -20.5 -48.5t-49 -19.5t-49 19.5t-20.5 48.5t20.5 49.5t49 20.5t49 -20.5t20.5 -49.5zM492 1235q0 -27 -20.5 -47.5t-47.5 -20.5q-29 0 -49.5 19.5t-20.5 48.5t20.5 49.5t49.5 20.5t48.5 -20.5t19.5 -49.5z" glyph-name="dieresis" horiz-adv-x="583" unicode="¨"/><glyph d="M866 -12q-322 0 -548 225t-226 547q0 317 226.5 542.5t547.5 225.5q317 0 541.5 -225.5t224.5 -542.5q0 -322 -224.5 -547t-541.5 -225zM866 133q258 0 440.5 183.5t182.5 443.5q0 258 -182.5 440t-440.5 182q-260 0 -444 -182t-184 -440q0 -260 183 -443.5t445 -183.5z M870 375q-162 0 -275.5 114.5t-113.5 276.5t114 276.5t275 114.5q164 0 281 -121l-94 -112q-82 82 -185 82q-98 0 -168.5 -71t-70.5 -167q0 -98 70.5 -169t168.5 -71q106 0 187 86l92 -116q-127 -123 -281 -123z" glyph-name="copyright" horiz-adv-x="1724" unicode="©"/><glyph d="M612 195l-102 -99l-418 420l418 418l102 -94l-323 -324zM895 195l-102 -99l-418 420l418 418l102 -94l-324 -324z" glyph-name="guillemotleft" horiz-adv-x="976" unicode="«"/><glyph d="M973 319v371h-901v139h1040v-510h-139z" glyph-name="logicalnot" horiz-adv-x="1224" unicode="¬"/><glyph d="M866 1528q317 0 541.5 -225.5t224.5 -542.5q0 -322 -224 -547t-542 -225q-322 0 -548 225t-226 547q0 317 226 542.5t548 225.5zM866 133q258 0 440.5 183.5t182.5 443.5q0 258 -182.5 440t-440.5 182q-260 0 -444 -182t-184 -440q0 -260 183 -443.5t445 -183.5z M1108 936q0 -74 -40 -132.5t-105 -84.5l194 -332h-158l-180 313h-49v-313h-139v784h241q98 0 167 -69.5t69 -165.5zM770 1032v-192h102q41 0 69 27.5t28 68.5q0 39 -28 67.5t-69 28.5h-102z" glyph-name="registered" horiz-adv-x="1724" unicode="®"/><glyph d="M641 1167h-549v142h549v-142z" glyph-name="macron" horiz-adv-x="733" unicode="¯"/><glyph d="M385 1516q121 0 206 -85t85 -206q0 -123 -85 -208t-206 -85t-207 85t-86 208q0 121 86 206t207 85zM385 1374q-61 0 -105 -45t-44 -104q0 -61 44 -106.5t105 -45.5t105.5 45t44.5 107q0 59 -44.5 104t-105.5 45z" glyph-name="degree" horiz-adv-x="768" unicode="°"/><glyph d="M1057 856v-141h-420v-373h-139v373h-416v141h416v354h139v-354h420zM1057 0h-975v141h975v-141z" glyph-name="plusminus" horiz-adv-x="1128" unicode="±"/><glyph d="M137 592v127l338 405q47 53 43 128t-59 118q-51 43 -130 29.5t-130 -84.5l-86 69q74 113 203.5 132.5t222.5 -60.5q92 -78 99 -202t-69 -210l-276 -325h362v-127h-518z" glyph-name="uni00B2" horiz-adv-x="747" unicode="²"/><glyph d="M524 1112q121 -80 121 -227q0 -117 -83 -200t-200 -83q-98 0 -175.5 62.5t-104.5 166.5l111 41q20 -68 65 -105.5t104 -37.5q68 0 114 45t46 113q0 66 -47 115t-117 49h-36v114h38q47 0 81 34t34 83q0 47 -33.5 81t-81.5 34q-74 0 -110 -74l-94 61q29 55 84 93.5 t125 38.5q98 0 165.5 -69t67.5 -167q0 -100 -74 -168z" glyph-name="uni00B3" horiz-adv-x="757" unicode="³"/><glyph d="M158 1184l-66 127l402 215l69 -125z" glyph-name="acute" horiz-adv-x="532" unicode="´"/><glyph d="M907 1516v-1760h-143v1620h-119v-1620h-143v852q-184 16 -307 144.5t-123 308.5q0 188 129 321.5t313 133.5h393z" glyph-name="paragraph" horiz-adv-x="1030" unicode="¶"/><glyph d="M307 -494q-90 0 -152.5 60.5t-62.5 150.5h121q0 -39 27.5 -64.5t66.5 -25.5q41 0 67.5 25.5t26.5 64.5t-27.5 67t-66.5 28h-61v211h125v-97q68 -23 110.5 -80t42.5 -129q0 -90 -62.5 -150.5t-154.5 -60.5z" glyph-name="cedilla" horiz-adv-x="616" unicode="¸"/><glyph d="M219 602v807h-158v107h283v-914h-125z" glyph-name="uni00B9" horiz-adv-x="466" unicode="¹"/><glyph d="M82 195l324 321l-324 324l102 94l418 -418l-418 -420zM365 195l323 321l-323 324l102 94l418 -418l-418 -420z" glyph-name="guillemotright" horiz-adv-x="976" unicode="»"/><glyph d="M281 602v807h-158v107h283v-914h-125zM195 0l931 1516h168l-932 -1516h-167zM1391 293v-117h-105v-176h-123v176h-411v117l438 620h96v-620h105zM891 293h272v385z" glyph-name="onequarter" horiz-adv-x="1513" unicode="¼"/><glyph d="M281 602v807h-158v107h283v-914h-125zM195 0l931 1516h168l-932 -1516h-167zM1036 0v127l338 405q47 53 41 125t-61 117q-51 43 -126 30t-126 -85l-90 74q74 111 200.5 131t225.5 -60q92 -78 99 -200.5t-69 -210.5l-276 -326h362v-127h-518z" glyph-name="onehalf" horiz-adv-x="1697" unicode="½"/><glyph d="M524 1112q121 -80 121 -227q0 -117 -83 -200t-200 -83q-98 0 -175.5 62.5t-104.5 166.5l111 41q20 -68 65 -105.5t104 -37.5q68 0 114 45t46 113q0 66 -47 115t-117 49h-36v114h38q47 0 81 34t34 83q0 47 -33.5 81t-81.5 34q-74 0 -110 -74l-94 61q29 55 84 93.5 t125 38.5q98 0 165.5 -69t67.5 -167q0 -100 -74 -168zM338 0l932 1516h168l-932 -1516h-168zM1534 293v-117h-104v-176h-123v176h-412v117l438 620h97v-620h104zM1034 293h273v385z" glyph-name="threequarters" horiz-adv-x="1646" unicode="¾"/><glyph d="M442 1419q0 39 29 68t68 29t66.5 -29t27.5 -68t-27.5 -66.5t-66.5 -27.5t-68 27.5t-29 66.5zM92 436q0 168 109.5 294t273.5 155v340h143v-480h-73q-129 0 -219 -91t-90 -224q0 -94 48 -167t123.5 -103.5t156.5 -31.5t155 48t112 139l132 -57q-51 -125 -166 -200.5 t-252 -75.5q-186 0 -319.5 133t-133.5 321z" glyph-name="questiondown" horiz-adv-x="1034" unicode="¿"/><glyph d="M866 1647l-405 217l69 125l402 -215zM1430 0h-158l-121 301h-770l-121 -301h-158l605 1516h118zM436 442h662l-332 832z" glyph-name="Agrave" horiz-adv-x="1521" unicode="À"/><glyph d="M647 1647l-65 127l401 215l70 -125zM1430 0h-158l-121 301h-770l-121 -301h-158l605 1516h118zM436 442h662l-332 832z" glyph-name="Aacute" horiz-adv-x="1521" unicode="Á"/><glyph d="M1094 1630h-185l-149 170l-142 -170h-184l283 307h94zM1430 0h-158l-121 301h-770l-121 -301h-158l605 1516h118zM436 442h662l-332 832z" glyph-name="Acircumflex" horiz-adv-x="1521" unicode="Â"/><glyph d="M563 1632l-119 78q25 45 79.5 77t107.5 32q41 0 108.5 -29t98.5 -29q61 0 108 74l123 -78q-88 -127 -225 -127q-51 0 -112.5 28t-84.5 28q-49 -1 -84 -54zM1430 0h-158l-121 301h-770l-121 -301h-158l605 1516h118zM436 442h662l-332 832z" glyph-name="Atilde" horiz-adv-x="1521" unicode="Ã"/><glyph d="M705 1697.5q0 -28.5 -20.5 -48t-49.5 -19.5t-49.5 19.5t-20.5 48t20.5 49t49.5 20.5t49.5 -20.5t20.5 -49zM965 1698q0 -27 -19.5 -47.5t-48.5 -20.5t-49.5 19.5t-20.5 48t20.5 49t49.5 20.5t48.5 -20t19.5 -49zM1430 0h-158l-121 301h-770l-121 -301h-158l605 1516h118z M436 442h662l-332 832z" glyph-name="Adieresis" horiz-adv-x="1521" unicode="Ä"/><glyph d="M766 2030q84 0 142.5 -58.5t58.5 -140.5t-59.5 -141.5t-141.5 -59.5t-141.5 59.5t-59.5 141.5t58.5 140.5t142.5 58.5zM766 1927q-41 0 -69.5 -28.5t-28.5 -67.5q0 -41 28.5 -69.5t69.5 -28.5t69.5 28.5t28.5 69.5q0 39 -28.5 67.5t-69.5 28.5zM1430 0h-158l-121 301 h-770l-121 -301h-158l605 1516h118zM436 442h662l-332 832z" glyph-name="Aring" horiz-adv-x="1521" unicode="Å"/><glyph d="M1554 143v-143h-727v303h-434l-129 -303h-162l668 1516h784v-144h-585v-551h549v-127h-549v-551h585zM827 444v842l-372 -842h372z" glyph-name="AE" horiz-adv-x="1667" unicode="Æ"/><glyph d="M1382 186q-233 -197 -505 -198v-62q68 -23 110.5 -80t42.5 -129q0 -90 -62.5 -150.5t-154.5 -60.5q-90 0 -152.5 60.5t-62.5 150.5h121q0 -39 27.5 -64.5t66.5 -25.5q41 0 67.5 25.5t26.5 64.5t-27.5 67t-66.5 28h-61v184q-283 41 -471.5 258t-188.5 504 q0 317 225.5 543.5t538.5 226.5q283 0 526 -205l-84 -111q-203 172 -438 172q-256 0 -440 -184t-184 -442t183 -442.5t441 -184.5q238 0 438 170z" glyph-name="Ccedilla" horiz-adv-x="1505" unicode="Ç"/><glyph d="M629 1647l-406 217l70 125l401 -215zM903 143v-143h-770v1516h770v-144h-627v-549h586v-127h-586v-553h627z" glyph-name="Egrave" horiz-adv-x="1015" unicode="È"/><glyph d="M410 1647l-66 127l401 215l70 -125zM903 143v-143h-770v1516h770v-144h-627v-549h586v-127h-586v-553h627z" glyph-name="Eacute" horiz-adv-x="1015" unicode="É"/><glyph d="M856 1630h-184l-150 170l-141 -170h-184l282 307h94zM903 143v-143h-770v1516h770v-144h-627v-549h586v-127h-586v-553h627z" glyph-name="Ecircumflex" horiz-adv-x="1015" unicode="Ê"/><glyph d="M467 1697.5q0 -28.5 -20.5 -48t-49 -19.5t-49 19.5t-20.5 48t20.5 49t49 20.5t49 -20.5t20.5 -49zM727 1698q0 -27 -19.5 -47.5t-48 -20.5t-49 19.5t-20.5 48t20.5 49t49 20.5t48 -20t19.5 -49zM903 143v-143h-770v1516h770v-144h-627v-549h586v-127h-586v-553h627z" glyph-name="Edieresis" horiz-adv-x="1015" unicode="Ë"/><glyph d="M315 1630l-405 217l70 125l401 -215zM145 0v1516h142v-1516h-142z" glyph-name="Igrave" horiz-adv-x="419" unicode="Ì"/><glyph d="M96 1630l-65 127l401 215l70 -125zM145 0v1516h142v-1516h-142z" glyph-name="Iacute" horiz-adv-x="421" unicode="Í"/><glyph d="M561 1614h-184l-150 170l-141 -170h-184l282 307h95zM164 0v1516h141v-1516h-141z" glyph-name="Icircumflex" horiz-adv-x="458" unicode="Î"/><glyph d="M141 1681.5q0 -28.5 -20.5 -48t-49 -19.5t-49 19.5t-20.5 48t20.5 49t49 20.5t49 -20.5t20.5 -49zM401 1681q0 -27 -20.5 -47t-46.5 -20q-29 0 -49.5 19.5t-20.5 48t20.5 49t49 20.5t48 -20.5t19.5 -49.5zM133 0v1516h141v-1516h-141z" glyph-name="Idieresis" horiz-adv-x="397" unicode="Ï"/><glyph d="M584 1516q313 0 535 -222.5t222 -536t-222 -535.5t-535 -222h-375v700h-76v144h76v672h375zM584 143q254 0 434 180.5t180 434.5t-180 434t-434 180h-232v-528h90v-144h-90v-557h232z" glyph-name="Eth" horiz-adv-x="1433" unicode="Ð"/><glyph d="M479 1632l-119 78q25 45 79.5 77t107.5 32q41 0 108.5 -29t98.5 -29q61 0 108 74l123 -78q-88 -127 -225 -127q-51 0 -112.5 28t-84.5 28q-49 -1 -84 -54zM1128 1516h144v-1516h-111l-885 1253v-1253h-143v1516h111l884 -1254v1254z" glyph-name="Ntilde" horiz-adv-x="1394" unicode="Ñ"/><glyph d="M969 1647l-406 217l70 125l401 -215zM874 1530q317 0 544 -226.5t227 -543.5q0 -319 -226.5 -545.5t-544.5 -226.5q-319 0 -545.5 226t-226.5 546q0 317 226.5 543.5t545.5 226.5zM874 1386q-260 0 -444 -184t-184 -442q0 -260 184 -444.5t444 -184.5q258 0 442.5 184.5 t184.5 444.5q0 258 -184.5 442t-442.5 184z" glyph-name="Ograve" horiz-adv-x="1746" unicode="Ò"/><glyph d="M750 1647l-66 127l401 215l70 -125zM874 1530q317 0 544 -226.5t227 -543.5q0 -319 -226.5 -545.5t-544.5 -226.5q-319 0 -545.5 226t-226.5 546q0 317 226.5 543.5t545.5 226.5zM874 1386q-260 0 -444 -184t-184 -442q0 -260 184 -444.5t444 -184.5q258 0 442.5 184.5 t184.5 444.5q0 258 -184.5 442t-442.5 184z" glyph-name="Oacute" horiz-adv-x="1746" unicode="Ó"/><glyph d="M1196 1630h-184l-150 170l-141 -170h-184l282 307h94zM874 1530q317 0 544 -226.5t227 -543.5q0 -319 -226.5 -545.5t-544.5 -226.5q-319 0 -545.5 226t-226.5 546q0 317 226.5 543.5t545.5 226.5zM874 1386q-260 0 -444 -184t-184 -442q0 -260 184 -444.5t444 -184.5 q258 0 442.5 184.5t184.5 444.5q0 258 -184.5 442t-442.5 184z" glyph-name="Ocircumflex" horiz-adv-x="1746" unicode="Ô"/><glyph d="M666 1632l-119 78q25 45 79 77t107 32q41 0 108.5 -29t98.5 -29q61 0 109 74l122 -78q-88 -127 -225 -127q-53 0 -114.5 28t-81.5 28q-49 -1 -84 -54zM874 1530q317 0 544 -226.5t227 -543.5q0 -319 -226.5 -545.5t-544.5 -226.5q-319 0 -545.5 226t-226.5 546 q0 317 226.5 543.5t545.5 226.5zM874 1386q-260 0 -444 -184t-184 -442q0 -260 184 -444.5t444 -184.5q258 0 442.5 184.5t184.5 444.5q0 258 -184.5 442t-442.5 184z" glyph-name="Otilde" horiz-adv-x="1746" unicode="Õ"/><glyph d="M807 1697.5q0 -28.5 -20.5 -48t-49 -19.5t-49 19.5t-20.5 48t20.5 49t49 20.5t49 -20.5t20.5 -49zM1067 1698q0 -27 -19.5 -47.5t-48 -20.5t-49 19.5t-20.5 48t20.5 49t49 20.5t48 -20t19.5 -49zM874 1530q317 0 544 -226.5t227 -543.5q0 -319 -226.5 -545.5 t-544.5 -226.5q-319 0 -545.5 226t-226.5 546q0 317 226.5 543.5t545.5 226.5zM874 1386q-260 0 -444 -184t-184 -442q0 -260 184 -444.5t444 -184.5q258 0 442.5 184.5t184.5 444.5q0 258 -184.5 442t-442.5 184z" glyph-name="Odieresis" horiz-adv-x="1746" unicode="Ö"/><glyph d="M991 178l-98 -98l-342 344l-350 -350l-99 98l351 350l-342 342l98 99l342 -342l334 333l98 -98l-334 -334z" glyph-name="multiply" horiz-adv-x="1083" unicode="×"/><glyph d="M1317 1391q152 -106 240 -273.5t88 -357.5q0 -319 -226.5 -545.5t-544.5 -226.5q-201 0 -376 98l-56 -86l-114 68l59 94q-133 109 -209 264.5t-76 333.5q0 317 226.5 543.5t545.5 226.5q170 0 328 -74l49 80l113 -70zM246 760q0 -289 219 -475l659 1048q-117 53 -250 53 q-260 0 -444 -184t-184 -442zM874 131q258 0 442.5 184.5t184.5 444.5q0 154 -70.5 287t-191.5 221l-666 -1059q143 -78 301 -78z" glyph-name="Oslash" horiz-adv-x="1746" unicode="Ø"/><glyph d="M700 1647l-405 217l70 125l401 -215zM600.5 -12q-194.5 0 -331 137t-136.5 330v1061h143v-1061q0 -133 95.5 -228.5t228.5 -95.5t228.5 95.5t95.5 228.5v1061h143v-1061q0 -193 -136 -330t-330.5 -137z" glyph-name="Ugrave" horiz-adv-x="1189" unicode="Ù"/><glyph d="M481 1647l-65 127l401 215l70 -125zM600.5 -12q-194.5 0 -331 137t-136.5 330v1061h143v-1061q0 -133 95.5 -228.5t228.5 -95.5t228.5 95.5t95.5 228.5v1061h143v-1061q0 -193 -136 -330t-330.5 -137z" glyph-name="Uacute" horiz-adv-x="1189" unicode="Ú"/><glyph d="M928 1630h-185l-149 170l-141 -170h-185l283 307h94zM600.5 -12q-194.5 0 -331 137t-136.5 330v1061h143v-1061q0 -133 95.5 -228.5t228.5 -95.5t228.5 95.5t95.5 228.5v1061h143v-1061q0 -193 -136 -330t-330.5 -137z" glyph-name="Ucircumflex" horiz-adv-x="1189" unicode="Û"/><glyph d="M539 1697.5q0 -28.5 -20.5 -48t-49.5 -19.5t-49.5 19.5t-20.5 48t20.5 49t49.5 20.5t49.5 -20.5t20.5 -49zM799 1698q0 -27 -20.5 -47.5t-47.5 -20.5q-29 0 -49 19.5t-20 48t20 49t49 20.5t48.5 -20t19.5 -49zM600.5 -12q-194.5 0 -331 137t-136.5 330v1061h143v-1061 q0 -133 95.5 -228.5t228.5 -95.5t228.5 95.5t95.5 228.5v1061h143v-1061q0 -193 -136 -330t-330.5 -137z" glyph-name="Udieresis" horiz-adv-x="1189" unicode="Ü"/><glyph d="M520 1647l-65 127l401 215l70 -125zM1184 1516l-465 -793v-723h-141v723l-465 793h174l360 -615l363 615h174z" glyph-name="Yacute" horiz-adv-x="1286" unicode="Ý"/><glyph d="M573 1214q176 0 302 -124.5t126 -301t-125.5 -302.5t-302.5 -126h-297v-360h-143v1516h143v-302h297zM573 504q119 0 202 83t83 201q0 117 -83 200t-202 83h-297v-567h297z" glyph-name="Thorn" horiz-adv-x="1073" unicode="Þ"/><glyph d="M709 780q92 -55 146 -151.5t54 -206.5q0 -168 -117.5 -295t-269.5 -127h-76v143h70q98 0 174 84t76 192.5t-76 195.5t-174 87h-70v142h70q92 0 146.5 78.5t54.5 177.5q0 117 -80 194.5t-193 77.5h-168v-1372h-143v1516h311q172 0 294 -120t122 -290q1 -199 -151 -326z " glyph-name="germandbls" horiz-adv-x="1011" unicode="ß"/><glyph d="M733 1159l-405 217l69 125l402 -215zM1159 1024v-1024h-125v170q-156 -186 -401 -186q-219 0 -375 155.5t-156 374.5q0 217 156 371.5t375 154.5q246 0 401 -186v170h125zM633 127q160 0 272.5 112.5t112.5 274.5q0 158 -112.5 270.5t-272.5 112.5t-272.5 -112.5 t-112.5 -270.5q0 -162 112.5 -274.5t272.5 -112.5z" glyph-name="agrave" horiz-adv-x="1282" unicode="à"/><glyph d="M514 1159l-65 127l401 215l70 -125zM1159 1024v-1024h-125v170q-156 -186 -401 -186q-219 0 -375 155.5t-156 374.5q0 217 156 371.5t375 154.5q246 0 401 -186v170h125zM633 127q160 0 272.5 112.5t112.5 274.5q0 158 -112.5 270.5t-272.5 112.5t-272.5 -112.5 t-112.5 -270.5q0 -162 112.5 -274.5t272.5 -112.5z" glyph-name="aacute" horiz-adv-x="1282" unicode="á"/><glyph d="M961 1143h-185l-149 170l-142 -170h-184l283 307h94zM1159 1024v-1024h-125v170q-156 -186 -401 -186q-219 0 -375 155.5t-156 374.5q0 217 156 371.5t375 154.5q246 0 401 -186v170h125zM633 127q160 0 272.5 112.5t112.5 274.5q0 158 -112.5 270.5t-272.5 112.5 t-272.5 -112.5t-112.5 -270.5q0 -162 112.5 -274.5t272.5 -112.5z" glyph-name="acircumflex" horiz-adv-x="1282" unicode="â"/><glyph d="M430 1145l-119 78q25 45 79 76.5t108 31.5q41 0 108.5 -28.5t98.5 -28.5q61 0 108 74l123 -78q-88 -127 -225 -127q-51 0 -112.5 27.5t-84.5 27.5q-49 0 -84 -53zM1159 1024v-1024h-125v170q-156 -186 -401 -186q-219 0 -375 155.5t-156 374.5q0 217 156 371.5t375 154.5 q246 0 401 -186v170h125zM633 127q160 0 272.5 112.5t112.5 274.5q0 158 -112.5 270.5t-272.5 112.5t-272.5 -112.5t-112.5 -270.5q0 -162 112.5 -274.5t272.5 -112.5z" glyph-name="atilde" horiz-adv-x="1282" unicode="ã"/><glyph d="M571 1210.5q0 -28.5 -20.5 -48t-49 -19.5t-49 19.5t-20.5 48t20.5 49t49 20.5t49 -20.5t20.5 -49zM831 1210q0 -27 -20 -47t-47 -20q-29 0 -49.5 19.5t-20.5 48t20.5 49t49.5 20.5t48 -20.5t19 -49.5zM1159 1024v-1024h-125v170q-156 -186 -401 -186q-219 0 -375 155.5 t-156 374.5q0 217 156 371.5t375 154.5q246 0 401 -186v170h125zM633 127q160 0 272.5 112.5t112.5 274.5q0 158 -112.5 270.5t-272.5 112.5t-272.5 -112.5t-112.5 -270.5q0 -162 112.5 -274.5t272.5 -112.5z" glyph-name="adieresis" horiz-adv-x="1282" unicode="ä"/><glyph d="M633 1542q84 0 142.5 -58.5t58.5 -140t-58.5 -141t-142.5 -59.5t-142.5 59.5t-58.5 141t58.5 140t142.5 58.5zM633 1440q-41 0 -69.5 -29t-28.5 -68q0 -41 28.5 -69.5t69.5 -28.5t69.5 29t28.5 69q0 39 -28.5 68t-69.5 29zM1159 1024v-1024h-125v170q-156 -186 -401 -186 q-219 0 -375 155.5t-156 374.5q0 217 156 371.5t375 154.5q246 0 401 -186v170h125zM633 127q160 0 272.5 112.5t112.5 274.5q0 158 -112.5 270.5t-272.5 112.5t-272.5 -112.5t-112.5 -270.5q0 -162 112.5 -274.5t272.5 -112.5z" glyph-name="aring" horiz-adv-x="1282" unicode="å"/><glyph d="M102 514q0 217 156 371.5t375 154.5q246 0 401 -186v170h125v-125q147 141 361 141q223 0 370.5 -160.5t147.5 -414.5h-879q23 -150 128.5 -243t246.5 -93q190 0 338 160l88 -109q-170 -197 -426 -196q-225 0 -375 159v-143h-125v170q-156 -186 -401 -186 q-219 0 -375 155.5t-156 374.5zM1159 586h723q-23 135 -125 226t-237 91q-131 0 -234.5 -86t-126.5 -231zM248 514q0 -162 112.5 -274.5t272.5 -112.5t272.5 112.5t112.5 274.5q0 158 -112.5 270.5t-272.5 112.5t-272.5 -112.5t-112.5 -270.5z" glyph-name="ae" horiz-adv-x="2129" unicode="æ"/><glyph d="M1001 135q-133 -127 -311 -147v-62q68 -23 111 -80t43 -129q0 -90 -62.5 -150.5t-154.5 -60.5q-90 0 -152.5 60.5t-62.5 150.5h120q0 -39 28 -64.5t67 -25.5q41 0 67.5 25.5t26.5 64.5t-27.5 67t-66.5 28h-62v176q-197 25 -330 174t-133 350q0 219 155 373.5t374 154.5 q211 0 370 -149l-83 -117q-123 123 -287 123q-158 0 -271.5 -113.5t-113.5 -271.5t113.5 -271.5t271.5 -113.5q164 0 287 123z" glyph-name="ccedilla" horiz-adv-x="1103" unicode="ç"/><glyph d="M715 1159l-406 217l70 125l401 -215zM1133 465h-879q23 -150 128 -243t247 -93q190 0 338 160l88 -109q-170 -197 -426 -196q-227 0 -377 162.5t-150 383.5q0 219 148.5 364.5t363.5 145.5q223 0 371 -160.5t148 -414.5zM254 586h723q-23 135 -125 226t-238 91 q-131 0 -234 -86t-126 -231z" glyph-name="egrave" horiz-adv-x="1224" unicode="è"/><glyph d="M496 1159l-66 127l401 215l70 -125zM1133 465h-879q23 -150 128 -243t247 -93q190 0 338 160l88 -109q-170 -197 -426 -196q-227 0 -377 162.5t-150 383.5q0 219 148.5 364.5t363.5 145.5q223 0 371 -160.5t148 -414.5zM254 586h723q-23 135 -125 226t-238 91 q-131 0 -234 -86t-126 -231z" glyph-name="eacute" horiz-adv-x="1224" unicode="é"/><glyph d="M942 1143h-184l-150 170l-141 -170h-184l282 307h94zM1133 465h-879q23 -150 128 -243t247 -93q190 0 338 160l88 -109q-170 -197 -426 -196q-227 0 -377 162.5t-150 383.5q0 219 148.5 364.5t363.5 145.5q223 0 371 -160.5t148 -414.5zM254 586h723q-23 135 -125 226 t-238 91q-131 0 -234 -86t-126 -231z" glyph-name="ecircumflex" horiz-adv-x="1224" unicode="ê"/><glyph d="M553 1210.5q0 -28.5 -20.5 -48t-49 -19.5t-49 19.5t-20.5 48t20.5 49t49 20.5t49 -20.5t20.5 -49zM813 1210q0 -27 -19.5 -47t-48 -20t-49 19.5t-20.5 48t20.5 49t49 20.5t48 -20.5t19.5 -49.5zM1133 465h-879q23 -150 128 -243t247 -93q190 0 338 160l88 -109 q-170 -197 -426 -196q-227 0 -377 162.5t-150 383.5q0 219 148.5 364.5t363.5 145.5q223 0 371 -160.5t148 -414.5zM254 586h723q-23 135 -125 226t-238 91q-131 0 -234 -86t-126 -231z" glyph-name="edieresis" horiz-adv-x="1224" unicode="ë"/><glyph d="M307 1159l-405 217l69 125l402 -215zM281 0h-146v1024h146v-1024z" glyph-name="igrave" horiz-adv-x="403" unicode="ì"/><glyph d="M86 1159l-66 127l402 215l70 -125zM279 0h-146v1024h146v-1024z" glyph-name="iacute" horiz-adv-x="403" unicode="í"/><glyph d="M553 1143h-184l-150 170l-141 -170h-184l282 307h94zM299 0h-145v1024h145v-1024z" glyph-name="icircumflex" horiz-adv-x="442" unicode="î"/><glyph d="M133 1210.5q0 -28.5 -20.5 -48t-49 -19.5t-49 19.5t-20.5 48t20.5 49t49 20.5t49 -20.5t20.5 -49zM393 1210q0 -27 -20.5 -47t-46.5 -20q-29 0 -49.5 19.5t-20.5 48t20.5 49t49 20.5t48 -20.5t19.5 -49.5zM268 0h-145v1024h145v-1024z" glyph-name="idieresis" horiz-adv-x="380" unicode="ï"/><glyph d="M1053 729q57 -94 57 -237q0 -207 -147.5 -355.5t-356.5 -148.5t-356.5 148.5t-147.5 355.5q0 211 147.5 360t356.5 149q59 0 135 -20l-129 215l-139 -82l-74 123l142 84l-76 125l119 70l73 -125l144 84l73 -123l-143 -84zM606.5 131q149.5 0 257 106.5t107.5 254 t-106.5 257t-258.5 109.5q-150 0 -257 -107.5t-107 -258.5q0 -147 107.5 -254t257 -107z" glyph-name="eth" horiz-adv-x="1202" unicode="ð"/><glyph d="M346 1145l-119 78q25 45 79 76.5t108 31.5q41 0 108.5 -28.5t98.5 -28.5q61 0 108 74l123 -78q-88 -127 -225 -127q-53 0 -114.5 27.5t-82.5 27.5q-49 0 -84 -53zM551 1040q176 0 301 -124.5t125 -301.5v-614h-143v614q0 117 -84 201t-201 84q-119 0 -202 -84t-83 -201 v-614h-143v1024h127v-109q125 125 303 125z" glyph-name="ntilde" horiz-adv-x="1077" unicode="ñ"/><glyph d="M721 1159l-406 217l70 125l401 -215zM620.5 1040q219.5 0 374 -155.5t154.5 -372.5t-154.5 -372.5t-374 -155.5t-374 155.5t-154.5 372.5t154.5 372.5t374 155.5zM620.5 895q-159.5 0 -272 -111.5t-112.5 -271.5t112.5 -272.5t272 -112.5t271.5 112.5t112 272.5 t-112 271.5t-271.5 111.5z" glyph-name="ograve" horiz-adv-x="1241" unicode="ò"/><glyph d="M502 1159l-66 127l402 215l69 -125zM620.5 1040q219.5 0 374 -155.5t154.5 -372.5t-154.5 -372.5t-374 -155.5t-374 155.5t-154.5 372.5t154.5 372.5t374 155.5zM620.5 895q-159.5 0 -272 -111.5t-112.5 -271.5t112.5 -272.5t272 -112.5t271.5 112.5t112 272.5 t-112 271.5t-271.5 111.5z" glyph-name="oacute" horiz-adv-x="1241" unicode="ó"/><glyph d="M948 1143h-184l-150 170l-141 -170h-184l282 307h95zM620.5 1040q219.5 0 374 -155.5t154.5 -372.5t-154.5 -372.5t-374 -155.5t-374 155.5t-154.5 372.5t154.5 372.5t374 155.5zM620.5 895q-159.5 0 -272 -111.5t-112.5 -271.5t112.5 -272.5t272 -112.5t271.5 112.5 t112 272.5t-112 271.5t-271.5 111.5z" glyph-name="ocircumflex" horiz-adv-x="1241" unicode="ô"/><glyph d="M418 1145l-119 78q25 45 79 76.5t107 31.5q41 0 109 -28.5t98 -28.5q61 0 109 74l123 -78q-88 -127 -226 -127q-51 0 -113.5 27.5t-82.5 27.5q-49 0 -84 -53zM620.5 1040q219.5 0 374 -155.5t154.5 -372.5t-154.5 -372.5t-374 -155.5t-374 155.5t-154.5 372.5 t154.5 372.5t374 155.5zM620.5 895q-159.5 0 -272 -111.5t-112.5 -271.5t112.5 -272.5t272 -112.5t271.5 112.5t112 272.5t-112 271.5t-271.5 111.5z" glyph-name="otilde" horiz-adv-x="1241" unicode="õ"/><glyph d="M559 1210.5q0 -28.5 -20.5 -48t-49 -19.5t-49 19.5t-20.5 48t20.5 49t49 20.5t49 -20.5t20.5 -49zM819 1210q0 -27 -20.5 -47t-46.5 -20q-29 0 -49.5 19.5t-20.5 48t20.5 49t49 20.5t48 -20.5t19.5 -49.5zM620.5 1040q219.5 0 374 -155.5t154.5 -372.5t-154.5 -372.5 t-374 -155.5t-374 155.5t-154.5 372.5t154.5 372.5t374 155.5zM620.5 895q-159.5 0 -272 -111.5t-112.5 -271.5t112.5 -272.5t272 -112.5t271.5 112.5t112 272.5t-112 271.5t-271.5 111.5z" glyph-name="odieresis" horiz-adv-x="1241" unicode="ö"/><glyph d="M659 897q0 -39 -28.5 -67.5t-67.5 -28.5q-41 0 -67.5 27.5t-26.5 68.5t26.5 67.5t67.5 26.5q39 0 67.5 -27.5t28.5 -66.5zM1044 526h-962v140h962v-140zM659 297q0 -39 -28.5 -65.5t-67.5 -26.5q-41 0 -67.5 26.5t-26.5 65.5q0 41 26.5 69.5t67.5 28.5q39 0 67.5 -28.5 t28.5 -69.5z" glyph-name="divide" horiz-adv-x="1116" unicode="÷"/><glyph d="M938 934q98 -74 154.5 -184.5t56.5 -237.5q0 -217 -154.5 -372.5t-373.5 -155.5q-129 0 -240 57l-25 -41l-114 68l30 49q-180 158 -180 395q0 217 154.5 372.5t374.5 155.5q104 0 202 -41l27 45l113 -69zM236 512q0 -160 112 -272l395 634q-53 20 -122 21 q-160 0 -272.5 -111.5t-112.5 -271.5zM621 127q160 0 271.5 112.5t111.5 272.5q0 186 -144 299l-403 -647q78 -37 164 -37z" glyph-name="oslash" horiz-adv-x="1241" unicode="ø"/><glyph d="M643 1159l-405 217l69 125l402 -215zM549 -16q-176 0 -301 124.5t-125 301.5v614h141v-614q0 -117 83 -201t202 -84q117 0 199.5 84t82.5 201v614h144v-614q0 -176 -125 -301t-301 -125z" glyph-name="ugrave" horiz-adv-x="1077" unicode="ù"/><glyph d="M424 1159l-66 127l402 215l69 -125zM549 -16q-176 0 -301 124.5t-125 301.5v614h141v-614q0 -117 83 -201t202 -84q117 0 199.5 84t82.5 201v614h144v-614q0 -176 -125 -301t-301 -125z" glyph-name="uacute" horiz-adv-x="1077" unicode="ú"/><glyph d="M870 1143h-184l-149 170l-142 -170h-184l283 307h94zM549 -16q-176 0 -301 124.5t-125 301.5v614h141v-614q0 -117 83 -201t202 -84q117 0 199.5 84t82.5 201v614h144v-614q0 -176 -125 -301t-301 -125z" glyph-name="ucircumflex" horiz-adv-x="1077" unicode="û"/><glyph d="M481 1210.5q0 -28.5 -20.5 -48t-49 -19.5t-49 19.5t-20.5 48t20.5 49t49 20.5t49 -20.5t20.5 -49zM741 1210q0 -27 -20.5 -47t-46.5 -20q-29 0 -49.5 19.5t-20.5 48t20.5 49t49 20.5t48 -20.5t19.5 -49.5zM549 -16q-176 0 -301 124.5t-125 301.5v614h141v-614 q0 -117 83 -201t202 -84q117 0 199.5 84t82.5 201v614h144v-614q0 -176 -125 -301t-301 -125z" glyph-name="udieresis" horiz-adv-x="1077" unicode="ü"/><glyph d="M424 1159l-66 127l402 215l69 -125zM1032 1024l-450 -1096q-111 -264 -379 -354l-51 131q127 45 200.5 127t126.5 221l-397 971h154l321 -784l320 784h155z" glyph-name="yacute" horiz-adv-x="1144" unicode="ý"/><glyph d="M649 -16q-229 0 -385 166v-560h-141v1844h141v-555q152 162 385 161q219 0 374 -154.5t155 -373.5t-155 -373.5t-374 -154.5zM649 895q-160 0 -272.5 -111.5t-112.5 -271.5t114 -272.5t271 -112.5q160 0 272.5 112.5t112.5 272.5t-112.5 271.5t-272.5 111.5z" glyph-name="thorn" horiz-adv-x="1269" unicode="þ"/><glyph d="M481 1210.5q0 -28.5 -20.5 -48t-49 -19.5t-49 19.5t-20.5 48t20.5 49t49 20.5t49 -20.5t20.5 -49zM741 1210q0 -27 -20.5 -47t-46.5 -20q-29 0 -49.5 19.5t-20.5 48t20.5 49t49 20.5t48 -20.5t19.5 -49.5zM1032 1024l-450 -1096q-111 -264 -379 -354l-51 131 q127 45 200.5 127t126.5 221l-397 971h154l321 -784l320 784h155z" glyph-name="ydieresis" horiz-adv-x="1144" unicode="ÿ"/><glyph d="M1053 1630h-549v142h549v-142zM1430 0h-158l-121 301h-770l-121 -301h-158l605 1516h118zM436 442h662l-332 832z" glyph-name="Amacron" horiz-adv-x="1521" unicode="Ā"/><glyph d="M920 1143h-549v141h549v-141zM1159 1024v-1024h-125v170q-156 -186 -401 -186q-219 0 -375 155.5t-156 374.5q0 217 156 371.5t375 154.5q246 0 401 -186v170h125zM633 127q160 0 272.5 112.5t112.5 274.5q0 158 -112.5 270.5t-272.5 112.5t-272.5 -112.5t-112.5 -270.5 q0 -162 112.5 -274.5t272.5 -112.5z" glyph-name="amacron" horiz-adv-x="1282" unicode="ā"/><glyph d="M765.5 1628q-108.5 0 -174 63.5t-65.5 149.5v51h127v-32q0 -47 33 -77t80 -30t77.5 28.5t30.5 78.5v32h127v-51q0 -86 -63.5 -149.5t-172 -63.5zM1430 0h-158l-121 301h-770l-121 -301h-158l605 1516h118zM436 442h662l-332 832z" glyph-name="Abreve" horiz-adv-x="1521" unicode="Ă"/><glyph d="M632.5 1141q-108.5 0 -174 63.5t-65.5 149.5v51h127v-33q0 -47 33 -76.5t80 -29.5t77.5 28.5t30.5 77.5v33h127v-51q0 -86 -63.5 -149.5t-172 -63.5zM1159 1024v-1024h-125v170q-156 -186 -401 -186q-219 0 -375 155.5t-156 374.5q0 217 156 371.5t375 154.5 q246 0 401 -186v170h125zM633 127q160 0 272.5 112.5t112.5 274.5q0 158 -112.5 270.5t-272.5 112.5t-272.5 -112.5t-112.5 -270.5q0 -162 112.5 -274.5t272.5 -112.5z" glyph-name="abreve" horiz-adv-x="1282" unicode="ă"/><glyph d="M1540 -281l39 -69q-57 -27 -111 -27q-102 0 -173.5 72t-71.5 176q0 86 41 149l-113 281h-770l-121 -301h-158l605 1516h118l605 -1516h-64q-41 -66 -41 -131q0 -86 68.5 -132.5t146.5 -17.5zM436 442h662l-332 832z" glyph-name="Aogonek" horiz-adv-x="1529" unicode="Ą"/><glyph d="M1311 -281l39 -69q-57 -27 -111 -27q-102 0 -174 72t-72 176q0 86 41 149v150q-156 -186 -401 -186q-219 0 -375 155.5t-156 374.5q0 217 156 371.5t375 154.5q246 0 401 -186v170h125v-1024h-22q-41 -66 -41 -131q0 -86 68.5 -132.5t146.5 -17.5zM633 127 q160 0 272.5 112.5t112.5 274.5q0 158 -112.5 270.5t-272.5 112.5t-272.5 -112.5t-112.5 -270.5q0 -162 112.5 -274.5t272.5 -112.5z" glyph-name="aogonek" horiz-adv-x="1288" unicode="ą"/><glyph d="M711 1647l-66 127l402 215l69 -125zM866 -12q-322 0 -548 225t-226 545q0 317 225.5 543.5t538.5 226.5q283 0 526 -205l-84 -111q-203 172 -438 172q-256 0 -440 -184t-184 -442t183 -442.5t441 -184.5q238 0 438 170l84 -115q-235 -198 -516 -198z" glyph-name="Cacute" horiz-adv-x="1505" unicode="Ć"/><glyph d="M512 1159l-66 127l402 215l70 -125zM631 -16q-219 0 -374 154.5t-155 373.5t155 373.5t374 154.5q211 0 370 -149l-83 -117q-123 123 -287 123q-158 0 -271.5 -113.5t-113.5 -271.5t113.5 -271.5t271.5 -113.5q164 0 287 123l83 -115q-161 -151 -370 -151z" glyph-name="cacute" horiz-adv-x="1103" unicode="ć"/><glyph d="M1157 1937l-283 -307h-94l-282 307h184l141 -170l150 170h184zM866 -12q-322 0 -548 225t-226 545q0 317 225.5 543.5t538.5 226.5q283 0 526 -205l-84 -111q-203 172 -438 172q-256 0 -440 -184t-184 -442t183 -442.5t441 -184.5q238 0 438 170l84 -115 q-235 -198 -516 -198z" glyph-name="Ccaron" horiz-adv-x="1505" unicode="Č"/><glyph d="M958 1450l-282 -307h-94l-283 307h184l142 -170l149 170h184zM631 -16q-219 0 -374 154.5t-155 373.5t155 373.5t374 154.5q211 0 370 -149l-83 -117q-123 123 -287 123q-158 0 -271.5 -113.5t-113.5 -271.5t113.5 -271.5t271.5 -113.5q164 0 287 123l83 -115 q-161 -151 -370 -151z" glyph-name="ccaron" horiz-adv-x="1103" unicode="č"/><glyph d="M815 1630h-549v142h549v-142zM903 143v-143h-770v1516h770v-144h-627v-549h586v-127h-586v-553h627z" glyph-name="Emacron" horiz-adv-x="1015" unicode="Ē"/><glyph d="M901 1143h-549v141h549v-141zM1133 465h-879q23 -150 128 -243t247 -93q190 0 338 160l88 -109q-170 -197 -426 -196q-227 0 -377 162.5t-150 383.5q0 219 148.5 364.5t363.5 145.5q223 0 371 -160.5t148 -414.5zM254 586h723q-23 135 -125 226t-238 91q-131 0 -234 -86 t-126 -231z" glyph-name="emacron" horiz-adv-x="1224" unicode="ē"/><glyph d="M592 1697.5q0 -28.5 -20.5 -48t-49 -19.5t-49 19.5t-20.5 48t20.5 49t49 20.5t49 -20.5t20.5 -49zM903 143v-143h-770v1516h770v-144h-627v-549h586v-127h-586v-553h627z" glyph-name="Edotaccent" horiz-adv-x="1015" unicode="Ė"/><glyph d="M678 1210.5q0 -28.5 -20.5 -48t-49 -19.5t-49 19.5t-20.5 48t20.5 49t49 20.5t49 -20.5t20.5 -49zM1133 465h-879q23 -150 128 -243t247 -93q190 0 338 160l88 -109q-170 -197 -426 -196q-227 0 -377 162.5t-150 383.5q0 219 148.5 364.5t363.5 145.5q223 0 371 -160.5 t148 -414.5zM254 586h723q-23 135 -125 226t-238 91q-131 0 -234 -86t-126 -231z" glyph-name="edotaccent" horiz-adv-x="1224" unicode="ė"/><glyph d="M1047 -281l38 -69q-57 -27 -110 -27q-102 0 -174 72t-72 176q0 68 29 129h-625v1516h770v-144h-627v-549h586v-127h-586v-553h627v-143h-31q-41 -66 -41 -131q0 -86 69 -132.5t147 -17.5z" glyph-name="Eogonek" horiz-adv-x="1024" unicode="Ę"/><glyph d="M629 129q190 0 338 160l88 -109q-125 -145 -316 -186q-39 -63 -39 -125q0 -86 69 -132t146 -18l39 -69q-57 -27 -110 -27q-102 0 -174 72t-72 176q0 57 23 113q-225 2 -372 164.5t-147 382t148.5 364.5t363.5 145q223 0 371 -160.5t148 -414.5h-879q23 -150 128.5 -243 t246.5 -93zM614 903q-131 0 -234.5 -86t-125.5 -231h723q-23 135 -125.5 226t-237.5 91z" glyph-name="eogonek" horiz-adv-x="1224" unicode="ę"/><glyph d="M856 1937l-283 -307h-94l-282 307h184l141 -170l150 170h184zM903 143v-143h-770v1516h770v-144h-627v-549h586v-127h-586v-553h627z" glyph-name="Ecaron" horiz-adv-x="1015" unicode="Ě"/><glyph d="M942 1450l-283 -307h-94l-282 307h184l141 -170l150 170h184zM1133 465h-879q23 -150 128 -243t247 -93q190 0 338 160l88 -109q-170 -197 -426 -196q-227 0 -377 162.5t-150 383.5q0 219 148.5 364.5t363.5 145.5q223 0 371 -160.5t148 -414.5zM254 586h723 q-23 135 -125 226t-238 91q-131 0 -234 -86t-126 -231z" glyph-name="ecaron" horiz-adv-x="1224" unicode="ě"/><glyph d="M489 1614h-548v141h548v-141zM133 0v1516h141v-1516h-141z" glyph-name="Imacron" horiz-adv-x="397" unicode="Ī"/><glyph d="M481 1143h-549v141h549v-141zM268 0h-145v1024h145v-1024z" glyph-name="imacron" horiz-adv-x="380" unicode="ī"/><glyph d="M424 -281l39 -69q-57 -27 -111 -27q-102 0 -174 72t-72 176q0 68 29 129h-2v1516h141v-1516h-24q-41 -66 -41 -131q0 -86 68.5 -132.5t146.5 -17.5z" glyph-name="Iogonek" horiz-adv-x="405" unicode="Į"/><glyph d="M188.5 1143q-28.5 0 -49 19.5t-20.5 48t20.5 49t49 20.5t49 -20.5t20.5 -49t-20.5 -48t-49 -19.5zM399 -281l39 -69q-57 -27 -110 -27q-102 0 -174 72t-72 176q0 86 41 149v1004h145v-1024h-43q-41 -66 -41 -131q0 -86 68.5 -132.5t146.5 -17.5z" glyph-name="iogonek" horiz-adv-x="389" unicode="į"/><glyph d="M268 0h-145v1024h145v-1024z" glyph-name="dotlessi" horiz-adv-x="380" unicode="ı"/><glyph d="M201 1647l-66 127l402 215l69 -125zM866 0h-733v1516h143v-1373h590v-143z" glyph-name="Lacute" horiz-adv-x="948" unicode="Ĺ"/><glyph d="M188 1573l-65 127l401 215l70 -125zM487 143v-143h-45q-137 0 -217 76t-80 239v1119h144v-1119q0 -84 43 -128t110 -44h45z" glyph-name="lacute" horiz-adv-x="571" unicode="ĺ"/><glyph d="M358 143h590v-143h-733v551l-82 -45v166l82 45v799h143v-719l482 266v-166l-482 -266v-488z" glyph-name="Lslash" horiz-adv-x="1030" unicode="Ł"/><glyph d="M502 143h37v-143h-37q-141 0 -219 84t-78 250v217l-82 -45v166l82 45v717h143v-637l189 104v-166l-189 -104v-297q0 -90 42 -140.5t112 -50.5z" glyph-name="lslash" horiz-adv-x="600" unicode="ł"/><glyph d="M563 1647l-65 127l401 215l70 -125zM1128 1516h144v-1516h-111l-885 1253v-1253h-143v1516h111l884 -1254v1254z" glyph-name="Nacute" horiz-adv-x="1394" unicode="Ń"/><glyph d="M430 1159l-65 127l401 215l70 -125zM551 1040q176 0 301 -124.5t125 -301.5v-614h-143v614q0 117 -84 201t-201 84q-119 0 -202 -84t-83 -201v-614h-143v1024h127v-109q125 125 303 125z" glyph-name="nacute" horiz-adv-x="1077" unicode="ń"/><glyph d="M1010 1937l-283 -307h-94l-283 307h185l141 -170l149 170h185zM1128 1516h144v-1516h-111l-885 1253v-1253h-143v1516h111l884 -1254v1254z" glyph-name="Ncaron" horiz-adv-x="1394" unicode="Ň"/><glyph d="M877 1450l-283 -307h-94l-283 307h184l142 -170l149 170h185zM551 1040q176 0 301 -124.5t125 -301.5v-614h-143v614q0 117 -84 201t-201 84q-119 0 -202 -84t-83 -201v-614h-143v1024h127v-109q125 125 303 125z" glyph-name="ncaron" horiz-adv-x="1077" unicode="ň"/><glyph d="M1155 1630h-549v142h549v-142zM874 1530q317 0 544 -226.5t227 -543.5q0 -319 -226.5 -545.5t-544.5 -226.5q-319 0 -545.5 226t-226.5 546q0 317 226.5 543.5t545.5 226.5zM874 1386q-260 0 -444 -184t-184 -442q0 -260 184 -444.5t444 -184.5q258 0 442.5 184.5 t184.5 444.5q0 258 -184.5 442t-442.5 184z" glyph-name="Omacron" horiz-adv-x="1746" unicode="Ō"/><glyph d="M907 1143h-549v141h549v-141zM620.5 1040q219.5 0 374 -155.5t154.5 -372.5t-154.5 -372.5t-374 -155.5t-374 155.5t-154.5 372.5t154.5 372.5t374 155.5zM620.5 895q-159.5 0 -272 -111.5t-112.5 -271.5t112.5 -272.5t272 -112.5t271.5 112.5t112 272.5t-112 271.5 t-271.5 111.5z" glyph-name="omacron" horiz-adv-x="1241" unicode="ō"/><glyph d="M739 1599l-106 97l305 340l106 -94zM995 1599l-106 97l305 340l106 -94zM874 1530q317 0 544 -226.5t227 -543.5q0 -319 -226.5 -545.5t-544.5 -226.5q-319 0 -545.5 226t-226.5 546q0 317 226.5 543.5t545.5 226.5zM874 1386q-260 0 -444 -184t-184 -442 q0 -260 184 -444.5t444 -184.5q258 0 442.5 184.5t184.5 444.5q0 258 -184.5 442t-442.5 184z" glyph-name="Ohungarumlaut" horiz-adv-x="1746" unicode="Ő"/><glyph d="M492 1112l-107 96l305 340l107 -94zM748 1112l-107 96l305 340l107 -94zM620.5 1040q219.5 0 374 -155.5t154.5 -372.5t-154.5 -372.5t-374 -155.5t-374 155.5t-154.5 372.5t154.5 372.5t374 155.5zM620.5 895q-159.5 0 -272 -111.5t-112.5 -271.5t112.5 -272.5 t272 -112.5t271.5 112.5t112 272.5t-112 271.5t-271.5 111.5z" glyph-name="ohungarumlaut" horiz-adv-x="1241" unicode="ő"/><glyph d="M2230 143v-143h-731v305q-106 -150 -271 -235.5t-356 -85.5q-319 0 -544.5 226t-225.5 546q0 317 225.5 543.5t544.5 226.5q190 0 355.5 -86t271.5 -236v312h731v-144h-588v-551h549v-127h-549v-551h588zM1501 756q0 258 -184 442t-444.5 184t-443.5 -184t-183 -442 q0 -262 182 -445.5t444 -183.5q260 0 444.5 184.5t184.5 444.5z" glyph-name="OE" horiz-adv-x="2342" unicode="Œ"/><glyph d="M92 512q0 217 154.5 372.5t374.5 155.5q137 0 255.5 -66.5t190.5 -178.5q68 113 184.5 179t257.5 66q223 0 371 -160.5t148 -414.5h-879q23 -150 128 -243t247 -93q190 0 338 160l88 -109q-170 -197 -426 -196q-145 0 -263 70.5t-186 187.5q-70 -117 -191.5 -187.5 t-262.5 -70.5q-219 0 -374 155.5t-155 372.5zM1149 586h723q-23 135 -125 226t-238 91q-131 0 -234 -86t-126 -231zM236 512q0 -160 112.5 -272.5t272 -112.5t271.5 112.5t112 272.5t-112 271.5t-271.5 111.5t-272 -111.5t-112.5 -271.5z" glyph-name="oe" horiz-adv-x="2119" unicode="œ"/><glyph d="M754 1847l-406 -217l-65 127l401 215zM864 0l-387 664h-203v-664h-143v1516h440q176 0 301 -125t125 -301q0 -162 -106.5 -282t-263.5 -140l399 -668h-162zM274 1372v-565h297q117 0 200 83t83 199.5t-83 199.5t-200 83h-297z" glyph-name="Racute" horiz-adv-x="1097" unicode="Ŕ"/><glyph d="M231 1149l-65 127l401 215l70 -125zM655 1024v-137h-106q-121 0 -202 -69.5t-81 -188.5v-629h-143v1024h127v-104q84 104 270 104h135z" glyph-name="racute" horiz-adv-x="727" unicode="ŕ"/><glyph d="M512 1614h-94l-283 307h184l142 -170l149 170h185zM864 0l-387 664h-203v-664h-143v1516h440q176 0 301 -125t125 -301q0 -162 -106.5 -282t-263.5 -140l399 -668h-162zM274 1372v-565h297q117 0 200 83t83 199.5t-83 199.5t-200 83h-297z" glyph-name="Rcaron" horiz-adv-x="1097" unicode="Ř"/><glyph d="M707 1440l-283 -307h-94l-283 307h184l142 -170l149 170h185zM684 1024v-137h-106q-121 0 -202 -69.5t-81 -188.5v-629h-143v1024h127v-104q84 104 270 104h135z" glyph-name="rcaron" horiz-adv-x="778" unicode="ř"/><glyph d="M377 1647l-66 127l402 215l69 -125zM522 -16q-219 0 -420 178l84 129q184 -152 332 -152q109 0 186.5 72t77.5 174q0 59 -26.5 109.5t-79.5 92.5t-102.5 69.5t-125 62.5t-119.5 60.5t-107.5 76.5t-92.5 121t-25 158q8 172 132 282.5t294 110.5q164 0 293 -98l-80 -115 q-121 74 -221 74q-106 0 -186 -77t-80 -188q0 -51 17.5 -90t55.5 -69.5t71.5 -49t93.5 -45.5q66 -29 108.5 -50t113 -68t113.5 -94.5t76 -120t33 -154.5q0 -170 -118 -284.5t-298 -114.5z" glyph-name="Sacute" horiz-adv-x="1030" unicode="Ś"/><glyph d="M303 1159l-65 127l401 215l70 -125zM711 952l-66 -106q-104 72 -213 72q-82 0 -141.5 -39t-59.5 -101q0 -43 35 -75.5t69 -48t101 -38.5q137 -47 225.5 -133t88.5 -200q0 -125 -96.5 -212t-237.5 -87q-162 0 -328 94l59 129q129 -78 259 -78q94 0 144 49t50 115 q0 63 -55.5 107t-179.5 94q-59 23 -94 40t-82.5 49.5t-71 79t-23.5 105.5q0 121 94.5 196.5t239.5 75.5q144 0 283 -88z" glyph-name="sacute" horiz-adv-x="841" unicode="ś"/><glyph d="M938 383q0 -154 -98.5 -264.5t-253.5 -130.5v-62q68 -23 110.5 -80t42.5 -129q0 -90 -62.5 -150.5t-154.5 -60.5q-90 0 -152.5 60.5t-62.5 150.5h121q0 -39 27.5 -64.5t66.5 -25.5q41 0 67.5 25.5t26.5 64.5t-27.5 67t-66.5 28h-61v176q-184 20 -359 174l84 129 q184 -152 332 -152q109 0 186.5 72t77.5 174q0 111 -87 185.5t-246 148.5q-76 35 -120 60.5t-107.5 76.5t-92.5 121t-25 158q8 172 132 282.5t294 110.5q164 0 293 -98l-80 -115q-121 74 -221 74q-106 0 -186 -77t-80 -188q0 -51 17.5 -90t55.5 -69.5t71.5 -49t93.5 -45.5 q66 -29 108.5 -50t113 -68t113.5 -94.5t76 -120t33 -154.5z" glyph-name="Scedilla" horiz-adv-x="1030" unicode="Ş"/><glyph d="M750 283q0 -106 -74 -188.5t-189 -104.5v-64q68 -23 111 -80t43 -129q0 -90 -62.5 -150.5t-154.5 -60.5q-90 0 -152.5 60.5t-62.5 150.5h121q0 -39 27.5 -64.5t66.5 -25.5q41 0 67.5 25.5t26.5 64.5t-27.5 67t-66.5 28h-62v176q-147 16 -274 90l59 129q129 -78 259 -78 q94 0 144 49t50 115q0 63 -55.5 107t-179.5 94q-59 23 -94 40t-82.5 49.5t-71 79t-23.5 105.5q0 121 94.5 196.5t239.5 75.5q143 0 283 -88l-66 -106q-104 72 -213 72q-82 0 -141.5 -39t-59.5 -101q0 -43 35 -75.5t69 -48t101 -38.5q137 -47 225.5 -132.5t88.5 -200.5z" glyph-name="scedilla" horiz-adv-x="841" unicode="ş"/><glyph d="M823 1937l-282 -307h-95l-282 307h184l141 -170l150 170h184zM522 -16q-219 0 -420 178l84 129q184 -152 332 -152q109 0 186.5 72t77.5 174q0 59 -26.5 109.5t-79.5 92.5t-102.5 69.5t-125 62.5t-119.5 60.5t-107.5 76.5t-92.5 121t-25 158q8 172 132 282.5t294 110.5 q164 0 293 -98l-80 -115q-121 74 -221 74q-106 0 -186 -77t-80 -188q0 -51 17.5 -90t55.5 -69.5t71.5 -49t93.5 -45.5q66 -29 108.5 -50t113 -68t113.5 -94.5t76 -120t33 -154.5q0 -170 -118 -284.5t-298 -114.5z" glyph-name="Scaron" horiz-adv-x="1030" unicode="Š"/><glyph d="M750 1450l-283 -307h-94l-283 307h184l142 -170l149 170h185zM711 952l-66 -106q-104 72 -213 72q-82 0 -141.5 -39t-59.5 -101q0 -43 35 -75.5t69 -48t101 -38.5q137 -47 225.5 -133t88.5 -200q0 -125 -96.5 -212t-237.5 -87q-162 0 -328 94l59 129q129 -78 259 -78 q94 0 144 49t50 115q0 63 -55.5 107t-179.5 94q-59 23 -94 40t-82.5 49.5t-71 79t-23.5 105.5q0 121 94.5 196.5t239.5 75.5q144 0 283 -88z" glyph-name="scaron" horiz-adv-x="841" unicode="š"/><glyph d="M600 0h-10v-74q68 -23 110.5 -80t42.5 -129q0 -90 -62.5 -150.5t-154.5 -60.5q-90 0 -152.5 60.5t-62.5 150.5h121q0 -39 27.5 -64.5t66.5 -25.5q41 0 68 25.5t27 64.5t-28 67t-67 28h-61v188h-8v1372h-375v144h893v-144h-375v-1372z" glyph-name="Tcommaaccent" horiz-adv-x="1046" unicode="Ţ"/><glyph d="M625 897h-359v-563q0 -78 56.5 -134.5t134.5 -56.5h168v-143h-154v-74q68 -23 111 -80t43 -129q0 -90 -62.5 -150.5t-154.5 -60.5q-90 0 -152.5 60.5t-62.5 150.5h120q0 -39 28 -64.5t67 -25.5q41 0 67.5 25.5t26.5 64.5t-28 67t-66 28h-62v204q-100 33 -161.5 118 t-61.5 200v1016h143v-326h359v-127z" glyph-name="tcommaaccent" horiz-adv-x="696" unicode="ţ"/><glyph d="M887 1630h-549v142h549v-142zM600.5 -12q-194.5 0 -331 137t-136.5 330v1061h143v-1061q0 -133 95.5 -228.5t228.5 -95.5t228.5 95.5t95.5 228.5v1061h143v-1061q0 -193 -136 -330t-330.5 -137z" glyph-name="Umacron" horiz-adv-x="1189" unicode="Ū"/><glyph d="M829 1143h-548v141h548v-141zM549 -16q-176 0 -301 124.5t-125 301.5v614h141v-614q0 -117 83 -201t202 -84q117 0 199.5 84t82.5 201v614h144v-614q0 -176 -125 -301t-301 -125z" glyph-name="umacron" horiz-adv-x="1077" unicode="ū"/><glyph d="M600 2030q84 0 142.5 -58.5t58.5 -140.5t-58.5 -141.5t-142.5 -59.5t-142.5 59.5t-58.5 141.5t58.5 140.5t142.5 58.5zM600 1927q-41 0 -69.5 -28.5t-28.5 -67.5q0 -41 28.5 -69.5t69.5 -28.5t69.5 28.5t28.5 69.5q0 39 -28.5 67.5t-69.5 28.5zM600.5 -12 q-194.5 0 -331 137t-136.5 330v1061h143v-1061q0 -133 95.5 -228.5t228.5 -95.5t228.5 95.5t95.5 228.5v1061h143v-1061q0 -193 -136 -330t-330.5 -137z" glyph-name="Uring" horiz-adv-x="1189" unicode="Ů"/><glyph d="M543 1542q84 0 142 -58.5t58 -140t-58 -141t-142 -59.5t-142.5 59.5t-58.5 141t58.5 140t142.5 58.5zM543 1440q-41 0 -70 -29t-29 -68q0 -41 29 -69.5t70 -28.5t69.5 29t28.5 69q0 39 -28.5 68t-69.5 29zM549 -16q-176 0 -301 124.5t-125 301.5v614h141v-614 q0 -117 83 -201t202 -84q117 0 199.5 84t82.5 201v614h144v-614q0 -176 -125 -301t-301 -125z" glyph-name="uring" horiz-adv-x="1077" unicode="ů"/><glyph d="M471 1599l-106 97l305 340l106 -94zM727 1599l-106 97l305 340l106 -94zM600.5 -12q-194.5 0 -331 137t-136.5 330v1061h143v-1061q0 -133 95.5 -228.5t228.5 -95.5t228.5 95.5t95.5 228.5v1061h143v-1061q0 -193 -136 -330t-330.5 -137z" glyph-name="Uhungarumlaut" horiz-adv-x="1189" unicode="Ű"/><glyph d="M414 1112l-107 96l305 340l107 -94zM670 1112l-107 96l305 340l107 -94zM549 -16q-176 0 -301 124.5t-125 301.5v614h141v-614q0 -117 83 -201t202 -84q117 0 199.5 84t82.5 201v614h144v-614q0 -176 -125 -301t-301 -125z" glyph-name="uhungarumlaut" horiz-adv-x="1077" unicode="ű"/><glyph d="M1067 455q0 -150 -86 -269.5t-221 -169.5q-53 -72 -53 -147q0 -86 68.5 -132t146.5 -18l39 -69q-57 -27 -111 -27q-102 0 -174 72t-72 176q0 63 25 117h-29q-195 0 -331 137t-136 330v1061h143v-1061q0 -133 95.5 -228.5t228.5 -95.5t228.5 95.5t95.5 228.5v1061h143 v-1061z" glyph-name="Uogonek" horiz-adv-x="1189" unicode="Ų"/><glyph d="M975 410q0 -131 -73 -237.5t-189 -156.5q-53 -72 -54 -147q0 -86 69 -132t146 -18l39 -69q-57 -27 -110 -27q-102 0 -174 72t-72 176q0 59 23 115q-10 -2 -31 -2q-176 0 -301 124.5t-125 301.5v614h141v-614q0 -117 83 -201t202 -84q117 0 199.5 84t82.5 201v614h144 v-614z" glyph-name="uogonek" horiz-adv-x="1077" unicode="ų"/><glyph d="M1282 1630h-184l-150 170l-141 -170h-184l282 307h94zM1806 1516l-424 -1516h-108l-320 1206l-319 -1206h-109l-424 1516h148l340 -1209l317 1200h94l318 -1200l340 1209h147z" glyph-name="Wcircumflex" horiz-adv-x="1898" unicode="Ŵ"/><glyph d="M1204 1143h-184l-150 170l-141 -170h-184l282 307h95zM831 991h93l295 -788l301 821h151l-395 -1024h-102l-295 784l-295 -784h-105l-397 1024h156l301 -821z" glyph-name="wcircumflex" horiz-adv-x="1753" unicode="ŵ"/><glyph d="M967 1630h-185l-149 170l-141 -170h-185l283 307h94zM1184 1516l-465 -793v-723h-141v723l-465 793h174l360 -615l363 615h174z" glyph-name="Ycircumflex" horiz-adv-x="1286" unicode="Ŷ"/><glyph d="M870 1143h-184l-149 170l-142 -170h-184l283 307h94zM1032 1024l-450 -1096q-111 -264 -379 -354l-51 131q127 45 200.5 127t126.5 221l-397 971h154l321 -784l320 784h155z" glyph-name="ycircumflex" horiz-adv-x="1144" unicode="ŷ"/><glyph d="M578 1697.5q0 -28.5 -20.5 -48t-49.5 -19.5t-49.5 19.5t-20.5 48t20.5 49t49.5 20.5t49.5 -20.5t20.5 -49zM838 1698q0 -27 -19.5 -47.5t-48.5 -20.5t-49.5 19.5t-20.5 48t20.5 49t49.5 20.5t48.5 -20t19.5 -49zM1184 1516l-465 -793v-723h-141v723l-465 793h174 l360 -615l363 615h174z" glyph-name="Ydieresis" horiz-adv-x="1286" unicode="Ÿ"/><glyph d="M502 1647l-66 127l402 215l69 -125zM1194 143v-143h-1067v143l870 1239h-905v134h1088v-123l-875 -1250h889z" glyph-name="Zacute" horiz-adv-x="1275" unicode="Ź"/><glyph d="M369 1159l-66 127l402 215l69 -125zM907 143v-143h-811v143l637 758h-641v123h797v-127l-629 -754h647z" glyph-name="zacute" horiz-adv-x="989" unicode="ź"/><glyph d="M684 1697.5q0 -28.5 -20.5 -48t-49 -19.5t-49 19.5t-20.5 48t20.5 49t49 20.5t49 -20.5t20.5 -49zM1194 143v-143h-1067v143l870 1239h-905v134h1088v-123l-875 -1250h889z" glyph-name="Zdotaccent" horiz-adv-x="1275" unicode="Ż"/><glyph d="M551 1210.5q0 -28.5 -20.5 -48t-49 -19.5t-49 19.5t-20.5 48t20.5 49t49 20.5t49 -20.5t20.5 -49zM907 143v-143h-811v143l637 758h-641v123h797v-127l-629 -754h647z" glyph-name="zdotaccent" horiz-adv-x="989" unicode="ż"/><glyph d="M948 1937l-282 -307h-95l-282 307h184l141 -170l150 170h184zM1194 143v-143h-1067v143l870 1239h-905v134h1088v-123l-875 -1250h889z" glyph-name="Zcaron" horiz-adv-x="1275" unicode="Ž"/><glyph d="M815 1450l-283 -307h-94l-282 307h184l141 -170l150 170h184zM907 143v-143h-811v143l637 758h-641v123h797v-127l-629 -754h647z" glyph-name="zcaron" horiz-adv-x="989" unicode="ž"/><glyph d="M649 1290q-80 0 -136 -57t-56 -137v-252h356v-103h-356v-850q0 -125 -89 -213t-212 -88h-74v144h74q63 0 111 47t48 110v1205q0 154 98.5 246t235.5 92h164v-144h-164z" glyph-name="florin" horiz-adv-x="884" unicode="ƒ"/><glyph d="M410 33q0 -150 -77 -267.5t-218 -191.5l-74 121q225 143 225 338v991h144v-991z" glyph-name="uni0237" horiz-adv-x="532" unicode="ȷ"/><glyph d="M752 1167h-185l-149 170l-142 -170h-184l283 308h94z" glyph-name="circumflex" horiz-adv-x="843" unicode="ˆ"/><glyph d="M752 1475l-283 -308h-94l-283 308h184l142 -170l149 170h185z" glyph-name="caron" horiz-adv-x="843" unicode="ˇ"/><glyph d="M331.5 1165q-108.5 0 -174 63.5t-65.5 149.5v52h127v-33q0 -47 33 -77t80 -30t77.5 29t30.5 78v33h127v-52q0 -86 -63.5 -149.5t-172 -63.5z" glyph-name="breve" horiz-adv-x="659" unicode="˘"/><glyph d="M231 1235q0 -29 -20.5 -48.5t-49 -19.5t-49 19.5t-20.5 48.5t20.5 49.5t49 20.5t49 -20.5t20.5 -49.5z" glyph-name="dotaccent" horiz-adv-x="323" unicode="˙"/><glyph d="M293 1567q84 0 142.5 -58.5t58.5 -140.5t-58.5 -141.5t-142.5 -59.5t-142.5 59.5t-58.5 141.5t58.5 140.5t142.5 58.5zM293 1464q-41 0 -69.5 -28.5t-28.5 -67.5q0 -41 28.5 -69.5t69.5 -28.5t69.5 28.5t28.5 69.5q0 39 -28.5 67.5t-69.5 28.5z" glyph-name="ring" horiz-adv-x="585" unicode="˚"/><glyph d="M338 -389q-102 0 -174 71.5t-72 176.5q0 92 45 155h119q-61 -72 -61 -157.5t68.5 -132t146.5 -17.5l39 -69q-58 -27 -111 -27z" glyph-name="ogonek" horiz-adv-x="540" unicode="˛"/><glyph d="M211 1169l-119 78q25 45 79 77t108 32q41 0 108.5 -29t97.5 -29q61 0 109 74l123 -78q-88 -127 -225 -127q-51 0 -114 28t-83 28q-49 -1 -84 -54z" glyph-name="tilde" horiz-adv-x="808" unicode="˜"/><glyph d="M199 1137l-107 96l305 340l107 -94zM455 1137l-107 96l305 340l107 -94z" glyph-name="hungarumlaut" horiz-adv-x="729" unicode="˝"/><glyph d="M-158 1184l-405 217l69 125l402 -215z" glyph-name="gravecomb" unicode="̀"/><glyph d="M-375 1184l-65 127l401 215l70 -125z" glyph-name="acutecomb" unicode="́"/><glyph d="M-92 1167h-184l-150 170l-141 -170h-185l283 308h94z" glyph-name="uni0302" unicode="̂"/><glyph d="M-598 1169l-119 78q25 45 79 77t108 32q41 0 108.5 -29t97.5 -29q61 0 109 74l123 -78q-88 -127 -225 -127q-51 0 -113 28t-84 28q-49 -1 -84 -54z" glyph-name="tildecomb" unicode="̃"/><glyph d="M-92 1167h-549v142h549v-142z" glyph-name="uni0304" unicode="̄"/><glyph d="M-327.5 1165q-108.5 0 -174 63.5t-65.5 149.5v52h127v-33q0 -47 32.5 -77t79.5 -30t78 29t31 78v33h127v-52q0 -86 -63.5 -149.5t-172 -63.5z" glyph-name="uni0306" unicode="̆"/><glyph d="M-92 1235q0 -29 -20.5 -48.5t-49 -19.5t-49 19.5t-20.5 48.5t20.5 49.5t49 20.5t49 -20.5t20.5 -49.5z" glyph-name="uni0307" unicode="̇"/><glyph d="M-352 1235q0 -29 -20.5 -48.5t-49.5 -19.5t-49.5 19.5t-20.5 48.5t20.5 49.5t49.5 20.5t49.5 -20.5t20.5 -49.5zM-92 1235q0 -27 -19.5 -47.5t-48 -20.5t-49 19.5t-20.5 48.5t20.5 49.5t49 20.5t48 -20.5t19.5 -49.5z" glyph-name="uni0308" unicode="̈"/><glyph d="M-293 1567q84 0 142.5 -58.5t58.5 -140.5t-58.5 -141.5t-142.5 -59.5t-142.5 59.5t-58.5 141.5t58.5 140.5t142.5 58.5zM-293 1464q-41 0 -69.5 -28.5t-28.5 -67.5q0 -41 28.5 -69.5t69.5 -28.5t69.5 28.5t28.5 69.5q0 39 -28.5 67.5t-69.5 28.5z" glyph-name="uni030A" unicode="̊"/><glyph d="M-530 1137l-107 96l305 340l107 -94zM-274 1137l-107 96l305 340l107 -94z" glyph-name="uni030B" unicode="̋"/><glyph d="M-92 1475l-283 -308h-94l-283 308h185l141 -170l150 170h184z" glyph-name="uni030C" unicode="̌"/><glyph d="M-309 -494q-90 0 -152.5 60.5t-62.5 150.5h121q0 -39 27.5 -64.5t66.5 -25.5q41 0 67.5 25.5t26.5 64.5t-27.5 67t-66.5 28h-62v211h125v-97q68 -23 111 -80t43 -129q0 -90 -62.5 -150.5t-154.5 -60.5z" glyph-name="uni0327" unicode="̧"/><glyph d="M-203 -389q-102 0 -174 71.5t-72 176.5q0 92 46 155h118q-61 -72 -61 -157.5t68.5 -132t146.5 -17.5l39 -69q-58 -27 -111 -27z" glyph-name="uni0328" unicode="̨"/><glyph d="M-92 496h-549v141h549v-141z" glyph-name="uni0335" unicode="̵"/><glyph d="M-811 0l586 1516h153l-587 -1516h-152z" glyph-name="uni0338" unicode="̸"/><glyph d="M1065 0v1372h-809v-1372h-143v1516h1095v-1516h-143z" glyph-name="Pi" horiz-adv-x="1310" unicode="Π"/><glyph d="M1823 145v-145h-602v137q164 86 257 248t93 348q0 272 -179.5 465t-433 193t-434 -192.5t-180.5 -465.5q0 -193 95.5 -353.5t256.5 -242.5v-137h-604v145h352q-117 111 -180 265.5t-63 322.5q0 332 222 566.5t535 234.5q311 0 533.5 -234.5t222.5 -566.5 q0 -168 -63.5 -322.5t-180.5 -265.5h353z" glyph-name="Omega" horiz-adv-x="1914" unicode="Ω"/><glyph d="M825 1024h142v-614q0 -176 -125 -302t-301 -126q-166 0 -287 110v-502h-141v1434h141v-614q0 -119 84 -202t203 -83q117 0 200.5 83t83.5 202v614z" glyph-name="mu" horiz-adv-x="1048" unicode="μ"/><glyph d="M1245 143h70v-143h-70q-127 0 -218 91t-91 218v572h-416l-201 -881h-145l199 881h-260v143h966v-715q0 -70 48 -118t118 -48z" glyph-name="pi" horiz-adv-x="1396" unicode="π"/><glyph d="M1055 1647l-406 217l70 125l401 -215zM1806 1516l-424 -1516h-108l-320 1206l-319 -1206h-109l-424 1516h148l340 -1209l317 1200h94l318 -1200l340 1209h147z" glyph-name="Wgrave" horiz-adv-x="1898" unicode="Ẁ"/><glyph d="M977 1159l-406 217l70 125l401 -215zM831 991h93l295 -788l301 821h151l-395 -1024h-102l-295 784l-295 -784h-105l-397 1024h156l301 -821z" glyph-name="wgrave" horiz-adv-x="1753" unicode="ẁ"/><glyph d="M836 1647l-66 127l401 215l70 -125zM1806 1516l-424 -1516h-108l-320 1206l-319 -1206h-109l-424 1516h148l340 -1209l317 1200h94l318 -1200l340 1209h147z" glyph-name="Wacute" horiz-adv-x="1898" unicode="Ẃ"/><glyph d="M758 1159l-66 127l402 215l69 -125zM831 991h93l295 -788l301 821h151l-395 -1024h-102l-295 784l-295 -784h-105l-397 1024h156l301 -821z" glyph-name="wacute" horiz-adv-x="1753" unicode="ẃ"/><glyph d="M893 1697.5q0 -28.5 -20.5 -48t-49 -19.5t-49 19.5t-20.5 48t20.5 49t49 20.5t49 -20.5t20.5 -49zM1153 1698q0 -27 -19.5 -47.5t-48 -20.5t-49 19.5t-20.5 48t20.5 49t49 20.5t48 -20t19.5 -49zM1806 1516l-424 -1516h-108l-320 1206l-319 -1206h-109l-424 1516h148 l340 -1209l317 1200h94l318 -1200l340 1209h147z" glyph-name="Wdieresis" horiz-adv-x="1898" unicode="Ẅ"/><glyph d="M815 1210.5q0 -28.5 -20.5 -48t-49 -19.5t-49 19.5t-20.5 48t20.5 49t49 20.5t49 -20.5t20.5 -49zM1075 1210q0 -27 -19.5 -47t-48 -20t-49 19.5t-20.5 48t20.5 49t49 20.5t48 -20.5t19.5 -49.5zM831 991h93l295 -788l301 821h151l-395 -1024h-102l-295 784l-295 -784 h-105l-397 1024h156l301 -821z" glyph-name="wdieresis" horiz-adv-x="1753" unicode="ẅ"/><glyph d="M739 1647l-405 217l69 125l402 -215zM1184 1516l-465 -793v-723h-141v723l-465 793h174l360 -615l363 615h174z" glyph-name="Ygrave" horiz-adv-x="1286" unicode="Ỳ"/><glyph d="M643 1159l-405 217l69 125l402 -215zM1032 1024l-450 -1096q-111 -264 -379 -354l-51 131q127 45 200.5 127t126.5 221l-397 971h154l321 -784l320 784h155z" glyph-name="ygrave" horiz-adv-x="1144" unicode="ỳ"/><glyph d="M1294 532h-1181v158h1181v-158z" glyph-name="endash" horiz-adv-x="1406" unicode="–"/><glyph d="M180 1153l-88 363h131l90 -363h-133z" glyph-name="quoteleft" horiz-adv-x="395" unicode="‘"/><glyph d="M215 1153h-133l90 363h131z" glyph-name="quoteright" horiz-adv-x="395" unicode="’"/><glyph d="M180 1153l-88 363h131l90 -363h-133zM410 1153l-88 363h131l90 -363h-133z" glyph-name="quotedblleft" horiz-adv-x="624" unicode="“"/><glyph d="M215 1153h-133l90 363h131zM444 1153h-133l90 363h131z" glyph-name="quotedblright" horiz-adv-x="624" unicode="”"/><glyph d="M205 -133h-133l90 362h131zM434 -133h-133l90 362h131z" glyph-name="quotedblbase" horiz-adv-x="614" unicode="„"/><glyph d="M1063 950v-143h-426v-1196h-143v1196h-422v143h422v566h143v-566h426z" glyph-name="dagger" horiz-adv-x="1124" unicode="†"/><glyph d="M1063 598v-143h-426v-844h-143v844h-422v143h422v209h-422v143h422v566h143v-566h426v-143h-426v-209h426z" glyph-name="daggerdbl" horiz-adv-x="1124" unicode="‡"/><glyph d="M582 506q0 -102 -72 -174t-172 -72t-173 73t-73 173t72 172t174 72q100 0 172 -72t72 -172z" glyph-name="bullet" horiz-adv-x="673" unicode="•"/><glyph d="M420 864q-135 0 -231.5 95.5t-96.5 230.5t96.5 230.5t231.5 95.5t232.5 -95.5t97.5 -230.5t-97.5 -230.5t-232.5 -95.5zM473 0h-164l795 1516h164zM420 1370q-76 0 -129 -52t-53 -128q0 -74 53 -127t129 -53t130 53t54 127q0 76 -53 128t-131 52zM1151 -4 q-133 0 -229.5 95t-96.5 230.5t96.5 230.5t229.5 95q137 0 234.5 -95t97.5 -230.5t-97.5 -230.5t-234.5 -95zM1905 -4q-135 0 -230.5 95t-95.5 230.5t95 230.5t231 95q137 0 232 -95t95 -230.5t-95 -230.5t-232 -95zM1151 502q-74 0 -127 -52.5t-53 -127.5q0 -74 53 -127.5 t127 -53.5q78 0 132 53.5t54 127.5q0 76 -54 128t-132 52zM1905 502q-78 0 -129.5 -52.5t-51.5 -127.5q0 -74 52.5 -127.5t128 -53.5t129 53.5t53.5 127.5q0 76 -53 128t-129 52z" glyph-name="perthousand" horiz-adv-x="2293" unicode="‰"/><glyph d="M612 195l-102 -99l-418 420l418 418l102 -94l-323 -324z" glyph-name="guilsinglleft" horiz-adv-x="694" unicode="‹"/><glyph d="M82 195l324 321l-324 324l102 94l418 -418l-418 -420z" glyph-name="guilsinglright" horiz-adv-x="694" unicode="›"/><glyph d="M240 0h-168l932 1516h167z" glyph-name="fraction" horiz-adv-x="1232" unicode="⁄"/><glyph d="M411.5 614q-118.5 0 -203.5 84t-85 203v340q0 119 85 203t203.5 84t203.5 -84t85 -203v-340q0 -119 -85 -203t-203.5 -84zM246 1241v-340q0 -68 48 -117t118 -49q68 0 117 49.5t49 116.5v340q0 68 -49.5 117t-116.5 49q-70 0 -118 -49t-48 -117z" glyph-name="uni2070" horiz-adv-x="823" unicode="⁰"/><glyph d="M721 895v-117h-105v-176h-122v176h-412v117l438 621h96v-621h105zM221 895h273v385z" glyph-name="uni2074" horiz-adv-x="802" unicode="⁴"/><glyph d="M365 1219q127 0 216 -90.5t89 -217.5t-90.5 -218t-217.5 -91q-152 0 -249 129l94 80q55 -82 155 -82q78 0 132.5 54.5t54.5 130t-55.5 130t-131.5 54.5q-66 0 -112 -41l-98 73l59 386h391v-123h-289l-26 -187q37 13 78 13z" glyph-name="uni2075" horiz-adv-x="751" unicode="⁵"/><glyph d="M424 1221q127 0 217 -91.5t90 -218.5t-91 -218t-218 -91t-218 91t-91 218q0 82 37 144l274 461l104 -62l-141 -235q12 2 37 2zM422 725q78 0 132 55.5t54 131t-55 131t-131 55.5q-78 0 -132 -55.5t-54 -131t54 -131t132 -55.5z" glyph-name="uni2076" horiz-adv-x="833" unicode="⁶"/><glyph d="M569 1391l-270 -789h-135l274 789h-377v125h508v-125z" glyph-name="uni2077" horiz-adv-x="661" unicode="⁷"/><glyph d="M553 1126q123 -80 123 -229q0 -117 -82 -200t-201 -83q-117 0 -198.5 83t-81.5 200q0 150 123 229q-72 66 -72 168q0 96 67.5 165t164 69t165 -68.5t68.5 -165.5q0 -98 -76 -168zM393 1409q-47 0 -79.5 -34t-32.5 -81t32.5 -79.5t79.5 -32.5q49 0 83 32.5t34 79.5t-34 81 t-83 34zM395.5 733q67.5 0 115.5 48t48 116q0 66 -48 115t-115.5 49t-116 -48t-48.5 -116t48.5 -116t116 -48z" glyph-name="uni2078" horiz-adv-x="788" unicode="⁸"/><glyph d="M401 1528q127 0 218.5 -91t91.5 -218q0 -82 -37 -144l-275 -461l-104 62l141 235q-12 -2 -37 -2q-127 0 -217 91.5t-90 218.5t91 218t218 91zM401 1032q78 0 132.5 55.5t54.5 131t-54.5 131t-132 55.5t-132 -55.5t-54.5 -131t55 -131t131 -55.5z" glyph-name="uni2079" horiz-adv-x="823" unicode="⁹"/><glyph d="M979 131q127 0 250 53l47 -139q-147 -57 -297 -57q-250 0 -450.5 146.5t-278.5 375.5h-158v143h123q-8 47 -8 104.5t8 104.5h-123v144h158q82 227 282.5 374.5t446.5 147.5q166 0 297 -64l-45 -129q-133 49 -252 49q-188 0 -344 -105t-232 -273h607v-144h-650 q-10 -57 -10 -104t10 -105h650v-143h-604q76 -166 231.5 -272.5t341.5 -106.5z" glyph-name="Euro" horiz-adv-x="1357" unicode="€"/><glyph d="M526 1516v-105h-180v-663h-104v663h-181v105h465zM1372 1516v-768h-104v524l-248 -498h-55l-248 498v-524h-105v768h86l293 -596l295 596h86z" glyph-name="trademark" horiz-adv-x="1454" unicode="™"/><glyph d="M1055 461q0 -195 -141.5 -334t-340 -139t-340 141t-141.5 340q0 201 141.5 342t341.5 141q199 0 338 -139v184q0 156 -109.5 265.5t-262.5 109.5h-181v144h181q211 0 362.5 -153t151.5 -366v-536zM573.5 131q141.5 0 240.5 99.5t99 238.5q0 141 -99 240.5t-240.5 99.5 t-241 -99.5t-99.5 -240.5q0 -139 99.5 -238.5t241 -99.5z" glyph-name="partialdiff" horiz-adv-x="1167" unicode="∂"/><glyph d="M1155 143v-143h-1053v143l473 1373h107zM252 143h754l-377 1082z" glyph-name="uni2206" horiz-adv-x="1247" unicode="∆"/><glyph d="M1577 1516v-144h-277v-1761h-143v1761h-649v-1761h-143v1761h-273v144h1485z" glyph-name="product" horiz-adv-x="1658" unicode="∏"/><glyph d="M1083 -287h-999v144l522 778l-524 737v144h1001v-144h-827l524 -737l-528 -778h831v-144z" glyph-name="summation" horiz-adv-x="1155" unicode="∑"/><glyph d="M1366 1516l-614 -1516h-99l-325 881h-256v143h358l277 -754l507 1246h152z" glyph-name="radical" horiz-adv-x="1437" unicode="√"/><glyph d="M1456 965q160 0 274.5 -128t114.5 -306.5t-114.5 -306.5t-276.5 -128q-229 0 -485 312q-238 -311 -484 -312q-162 0 -277.5 129t-115.5 305q0 178 116 306.5t273 128.5q131 0 259 -90.5t229 -221.5q256 312 487 312zM483 246q104 0 212 89t184 195q-76 106 -183.5 195.5 t-212.5 89.5q-98 0 -170.5 -84t-72.5 -200.5t72.5 -200.5t170.5 -84zM1456 246q98 0 169 83t71 201.5t-71 201.5t-169 83q-102 0 -209.5 -89t-183.5 -196q76 -106 183.5 -195t209.5 -89z" glyph-name="infinity" horiz-adv-x="1927" unicode="∞"/><glyph d="M156 -389h-74v143h74q78 0 132 54.5t54 132.5v1204q0 156 107.5 263.5t259.5 107.5h73v-144h-73q-94 0 -159 -65.5t-65 -161.5v-1204q0 -137 -96 -233.5t-233 -96.5z" glyph-name="integral" horiz-adv-x="854" unicode="∫"/><glyph d="M1102 719q-238 -139 -527 -72q-2 0 -36.5 8.5t-49 12.5t-52.5 10t-62.5 8t-62.5 3t-67.5 -4t-65.5 -14t-66 -24v135q90 35 182 41t151.5 -5t171.5 -40q246 -63 484 76v-135zM1102 383q-238 -139 -527 -72q-2 0 -36.5 8.5t-49 12.5t-52.5 10t-62.5 8t-62.5 3t-67.5 -4 t-65.5 -14t-66 -24v135q90 35 182 41.5t151.5 -5t171.5 -40.5q246 -63 484 76v-135z" glyph-name="approxequal" horiz-adv-x="1204" unicode="≈"/><glyph d="M1071 674h-352l-98 -201h450v-139h-520l-180 -367l-127 62l151 305h-282v139h350l100 201h-450v139h518l188 381l125 -61l-158 -320h285v-139z" glyph-name="notequal" horiz-adv-x="1173" unicode="≠"/><glyph d="M954 264l-829 377v98l829 375v-158l-598 -266l598 -272v-154zM113 0v141h841v-141h-841z" glyph-name="lessequal" horiz-adv-x="1056" unicode="≤"/><glyph d="M102 264v154l598 272l-598 266v158l830 -375v-98zM944 0h-842v141h842v-141z" glyph-name="greaterequal" horiz-adv-x="1056" unicode="≥"/><glyph d="M612 0h-75l-455 756l455 760h75l451 -760zM252 756l321 -543l324 543l-324 547z" glyph-name="lozenge" horiz-adv-x="1134" unicode="◊"/><glyph d="M113 0v1100q0 147 99 240.5t234 93.5h164v-142h-164q-78 0 -135 -57t-57 -135v-76h479v76q0 147 99.5 240.5t234.5 93.5h164v-142h-164q-78 0 -135.5 -57t-57.5 -135v-76h357v-125h-357v-899h-141v899h-479v-899h-141z" glyph-name="f_f.dlig" horiz-adv-x="1312"/><glyph d="M113 0v1100q0 147 99 240.5t234 93.5h164v-142h-164q-78 0 -135 -57t-57 -135v-76h479v76q0 147 99.5 240.5t234.5 93.5h164v-142h-164q-78 0 -135.5 -57t-57.5 -135v-76h707v-1024h-145v899h-562v-899h-141v899h-479v-899h-141zM1413 1221q0 37 28.5 65.5t65.5 28.5 q41 0 69 -27.5t28 -66.5q0 -41 -27 -68t-70 -27q-39 0 -66.5 27t-27.5 68z" glyph-name="f_f_i.dlig" horiz-adv-x="1716"/><glyph d="M113 0v1100q0 147 99 240.5t234 93.5h164v-142h-164q-78 0 -135 -57t-57 -135v-76h698v-1024h-145v899h-553v-899h-141zM879 1126q-39 0 -67 27t-28 68q0 37 29 65.5t66 28.5q41 0 68.5 -27.5t27.5 -66.5q0 -41 -26.5 -68t-69.5 -27z" glyph-name="f_i.dlig" horiz-adv-x="1087"/><glyph d="M123 334v1016h143v-326h500v326h143v-326h359v-127h-359v-563q0 -78 56.5 -134.5t134.5 -56.5h168v-143h-168q-143 0 -238.5 95t-95.5 239v563h-500v-563q0 -78 56.5 -134.5t134.5 -56.5h168v-143h-168q-143 0 -238.5 95.5t-95.5 238.5z" glyph-name="t_t.dlig" horiz-adv-x="1339"/></font>
</defs>
</svg>
